<?xml version="1.0" encoding="UTF-8"?>
<svg id="Capa_1" xmlns="http://www.w3.org/2000/svg" width="48" height="48" xmlns:xlink="http://www.w3.org/1999/xlink" viewBox="0 0 48 48">
  <defs>
    <clipPath id="clippath">
      <rect width="48" height="48" fill="none"/>
    </clipPath>
  </defs>
  <g clip-path="url(#clippath)">
    <g id="Grupo_782-2">
      <path id="Trazado_1221" d="M48,19.72c.03,1.57-.59,3.09-1.7,4.2-2.11,2.24-4.21,4.49-6.33,6.71-.33.32-.47.8-.36,1.25.49,3.29,1.09,6.58,1.37,9.9.31,3.09-1.94,5.85-5.03,6.16-1.01.1-2.03-.07-2.95-.5-2.75-1.39-5.49-2.8-8.22-4.24-.47-.29-1.06-.28-1.52.01-2.75,1.45-5.5,2.91-8.29,4.25-2.81,1.28-6.12.04-7.4-2.77-.16-.34-.28-.7-.36-1.06-.24-1.42-.18-2.87.16-4.26.35-2.6.76-5.2,1.1-7.8-.01-.35-.16-.67-.4-.92-2.14-2.31-4.34-4.57-6.46-6.9-2.22-2.37-2.11-6.09.26-8.31.72-.68,1.6-1.16,2.56-1.41,1.58-.38,3.2-.61,4.81-.9,1.58-.28,3.17-.52,4.74-.84.32-.1.59-.33.75-.63,1.41-2.73,2.81-5.47,4.17-8.23,1.19-2.85,4.47-4.19,7.31-2.99,1.35.57,2.43,1.64,2.99,2.99,1.32,2.69,2.7,5.35,4.04,8.04.19.49.65.84,1.18.89,3,.48,5.98,1.01,8.97,1.57,2.76.53,4.73,2.99,4.65,5.8M24,11.63c-7.72.14-13.87,6.5-13.73,14.23,0,.04,0,.07,0,.11-.13,7.73,6.03,14.1,13.76,14.24,7.74-.16,13.89-6.56,13.73-14.3,0-.02,0-.03,0-.05.14-7.72-6.01-14.09-13.73-14.23,0,0-.02,0-.03,0" fill="#fff"/>
      <path id="Trazado_1222" d="M36.44,25.95c.12,6.98-5.44,12.74-12.42,12.86-.02,0-.04,0-.06,0-6.98-.14-12.52-5.91-12.38-12.89-.12-7.02,5.47-12.82,12.49-12.94,0,0,.02,0,.03,0,6.97.21,12.47,5.99,12.34,12.97M21.39,25.5c-.37-.45-.65-.86-.99-1.2-1.21-1.31-3.26-1.39-4.56-.17-.06.05-.11.11-.17.17-1.32,1.34-1.35,3.48-.07,4.86,1.15,1.27,2.34,2.51,3.57,3.71,1.2,1.27,3.2,1.32,4.47.12.03-.03.06-.06.09-.09,2.94-2.99,5.85-6.02,8.73-9.07,1.06-1.15,1.21-2.87.36-4.19-.91-1.56-2.91-2.1-4.47-1.19-.29.17-.56.38-.78.63-2.02,2.06-4.01,4.17-6.18,6.42" fill="#fff"/>
      <path id="Trazado_1223" d="M21.42,27.43c-.62-.69-1.2-1.38-1.82-2.02-.69-.86-1.95-.99-2.81-.3-.07.06-.14.12-.21.19-.8.88-.74,2.25.14,3.05,0,0,.01.01.02.02.96,1.03,1.95,2.03,2.93,3.05,1.31,1.36,2.31,1.37,3.61.02,2.59-2.69,5.19-5.39,7.78-8.08.2-.2.39-.41.55-.64.68-.94.47-2.25-.46-2.93-.17-.13-.37-.23-.57-.29-.82-.26-1.72.03-2.22.72-2.27,2.36-4.54,4.72-6.93,7.21" fill="#fff"/>
    </g>
  </g>
</svg>