<?xml version="1.0" encoding="UTF-8"?>
<svg id="Capa_1" xmlns="http://www.w3.org/2000/svg" width="100" height="100" xmlns:xlink="http://www.w3.org/1999/xlink" viewBox="0 0 100 100">
  <defs>
    <clipPath id="clippath">
      <rect width="100" height="100" fill="none"/>
    </clipPath>
    <clipPath id="clippath-1">
      <rect x="15.47" y="24.6" width="69.53" height="56.38" fill="none"/>
    </clipPath>
  </defs>
  <g clip-path="url(#clippath)">
    <g id="Grupo_777">
      <g id="Grupo_818">
        <g clip-path="url(#clippath-1)">
          <g id="Grupo_817">
            <path id="Trazado_1317" d="M48.72,74.48c-1.3,0-1.96-.24-1.96-1.5v-2.36c0-1.18.59-1.56,1.78-1.56h5.14v.87h-5.49c-.26,0-.48.2-.5.46v2.72c.02.27.23.48.5.5h4.92v-1.47h-2.86v-.87h3.79v3.21h-5.33Z" fill="#040506"/>
            <path id="Trazado_1318" d="M24,69.06h-5.52v5.42h.96v-1.68h4.56c1.1,0,1.71-.4,1.71-1.53v-.62c0-1.11-.61-1.59-1.71-1.59M24.78,71.49c-.03.25-.25.44-.5.44h-4.84v-2h4.84c.26,0,.48.2.5.46v1.1Z" fill="#040506"/>
            <path id="Trazado_1319" d="M34.73,69.93v-.87h-6.9v5.42h6.9v-.88h-5.96v-1.46h5.3v-.87h-5.3v-1.33h5.96Z" fill="#040506"/>
            <path id="Trazado_1320" d="M63.27,69.93v-.87h-6.9v5.42h6.9v-.88h-5.96v-1.46h5.3v-.87h-5.3v-1.33h5.96Z" fill="#040506"/>
            <path id="Trazado_1321" d="M39.03,74.48c-1.22,0-1.96-.27-1.96-1.5v-3.92h.93v4.09c0,.26.23.47.49.46,0,0,0,0,0,0h4.49c.25,0,.46-.19.47-.44,0,0,0-.01,0-.02v-4.09h.96v3.92c0,1.24-.65,1.5-1.96,1.5h-3.43Z" fill="#040506"/>
            <path id="Trazado_1322" d="M67.04,69.93c-.27,0-.49.2-.5.47,0,.01,0,.02,0,.03v2.68c0,.27.23.5.5.5h4.64c.27-.02.48-.23.5-.5v-2.69c0-.27-.23-.5-.5-.5h-4.64ZM67.57,74.48c-1.3,0-1.96-.21-1.96-1.5v-2.42c0-1.22.6-1.5,1.96-1.5h3.58c1.18,0,1.96.26,1.96,1.5v2.42c0,1.22-.67,1.5-1.96,1.5h-3.58Z" fill="#040506"/>
            <path id="Trazado_1323" d="M82.11,69.06h-7.26v.87h3.17v4.55h.96v-4.55h3.14v-.87Z" fill="#040506"/>
            <path id="Trazado_1324" d="M20.57,78.3v.43c0,.79-.45,1.07-1.22,1.07h-3.2v1.17h-.68v-3.8h3.88c.77,0,1.22.34,1.22,1.12M19.89,78.16c0-.21-.17-.37-.38-.36,0,0-.01,0-.02,0h-3.34v1.39h3.4c.18,0,.33-.13.35-.31v-.72Z" fill="#969799"/>
            <path id="Trazado_1325" d="M26.21,79.78l.74,1.21h-.7l-.69-1.17h-2.94v1.17h-.68v-3.79h3.88c.85,0,1.2.34,1.2,1.12v.43c.08.5-.26.97-.76,1.04-.02,0-.03,0-.05,0M26.37,78.12c0-.23-.12-.32-.35-.32h-3.4v1.39h3.4c.18,0,.33-.13.35-.31v-.76Z" fill="#969799"/>
            <path id="Trazado_1326" d="M28.18,79.93v-1.69c0-.79.33-1.05,1.06-1.05h3.18c.77,0,1.04.26,1.04,1.05v1.69c0,.87-.45,1.05-1.04,1.05h-3.18c-.61,0-1.06-.19-1.06-1.05M32.45,80.36c.16.02.31-.1.33-.27,0-.02,0-.04,0-.06v-1.89c.02-.17-.11-.32-.28-.34-.02,0-.04,0-.05,0h-3.25c-.17-.02-.32.09-.35.26,0,.03,0,.05,0,.08v1.89c0,.17.13.32.31.32.01,0,.03,0,.04,0h3.25Z" fill="#969799"/>
            <path id="Trazado_1327" d="M35.62,77.8v1.09h3.71v.62h-3.71v1.46h-.68v-3.79h4.83v.62h-4.15Z" fill="#969799"/>
            <path id="Trazado_1328" d="M45.97,80.36v.62h-4.87v-3.79h4.83v.62h-4.15v.93h3.71v.62h-3.71v1.01h4.19Z" fill="#969799"/>
            <path id="Trazado_1329" d="M47.04,80.36h4.26c.25,0,.35-.09.35-.31v-.33c0-.24-.1-.33-.35-.33h-3.47c-.62,0-.87-.26-.87-.91v-.35c0-.68.27-.95.95-.95h4.06v.62h-4.04c-.25,0-.35.09-.35.32v.34c0,.22.1.31.35.31h3.14c.86,0,1.2.28,1.2.96v.34c0,.65-.29.91-1.02.91h-4.21v-.62Z" fill="#969799"/>
            <path id="Trazado_1330" d="M53.13,80.36h4.26c.25,0,.35-.09.35-.31v-.33c0-.24-.1-.33-.35-.33h-3.47c-.62,0-.87-.26-.87-.91v-.35c0-.68.27-.95.95-.95h4.06v.62h-4.04c-.25,0-.35.09-.35.32v.34c0,.22.1.31.35.31h3.14c.86,0,1.2.28,1.2.96v.34c0,.65-.29.91-1.02.91h-4.21v-.62Z" fill="#969799"/>
            <rect id="Rectángulo_462" x="59.47" y="77.18" width=".68" height="3.79" fill="#969799"/>
            <path id="Trazado_1331" d="M61.64,79.93v-1.69c0-.79.33-1.05,1.06-1.05h3.18c.77,0,1.04.26,1.04,1.05v1.69c0,.87-.45,1.05-1.04,1.05h-3.18c-.61,0-1.06-.19-1.06-1.05M65.91,80.36c.16.02.31-.1.33-.27,0-.02,0-.04,0-.06v-1.89c.02-.17-.11-.32-.28-.34-.02,0-.04,0-.05,0h-3.25c-.17-.02-.32.09-.35.26,0,.03,0,.05,0,.08v1.89c0,.17.13.32.31.32.01,0,.03,0,.04,0h3.25Z" fill="#969799"/>
            <path id="Trazado_1332" d="M73.2,77.18v3.79h-1l-3.12-3.26v3.26h-.68v-3.79h1.02l3.1,3.25v-3.25h.68Z" fill="#969799"/>
            <path id="Trazado_1333" d="M78.6,80.03h-3.26l-.46.94h-.69l1.79-3.79h1.97l1.84,3.79h-.74l-.45-.94ZM78.3,79.41l-.77-1.61h-1.13l-.77,1.61h2.67Z" fill="#969799"/>
            <path id="Trazado_1334" d="M81.47,77.18v3.17h3.53v.62h-4.2v-3.79h.67Z" fill="#969799"/>
            <path id="Trazado_1335" d="M49.9,64.3c-5.2-2.43-9.6-6.29-12.68-11.13-2.99-4.76-4.57-10.3-4.95-17.43-.13-2.31-.13-5.19,0-8.81l.03-.76.75-.13c11.42-1.92,23.08-1.92,34.49,0l.76.13.03.76c.12,3.62.12,6.51,0,8.81-.39,7.13-1.96,12.67-4.96,17.43-3.08,4.84-7.48,8.7-12.68,11.13l-.4.18-.39-.18Z" fill="#040506"/>
            <path id="Trazado_1336" d="M42.28,48.72c-.08.02-.16-.02-.18-.09,0,0,0-.01,0-.02-.04-.2-.16-.9-.19-1.1-.03-.08.01-.17.09-.2,0,0,.01,0,.02,0,.49-.16,1.33-.44,2-.68.14-.05.26-.15.32-.28.28-.45.97-1.66,1.29-2.29.05-.09.04-.2-.01-.28l-.15-.24c-.06-.09-.16-.17-.26-.2-.68-.17-1.58-.4-2.01-.5-.09-.02-.19-.02-.29.01l-.08.02c.65.22,1.21.42,1.91.69.07.03.12.09.15.16l.07.21c.03.09.02.18-.02.26-.35.66-.76,1.28-1.23,1.86-.06.07-.14.13-.23.17-.4.15-1.13.39-1.44.47-.05.02-.11,0-.15-.03-.23-.16-.71-.61-.71-.61,0,0-.04.49-.04.7,0,.02,0,.05.01.07.08.19.23.55.28.74.01.05.03.09.04.14.08.32.3,1.26.3,1.26.03.14.11.19.24.16.16-.03.68-.18.89-.25.03-.01.06-.03.09-.05l.37-.34s-.78.19-1.07.25" fill="#fff"/>
            <path id="Trazado_1337" d="M43.45,45.84c.33-.42.63-.86.91-1.31l-2.17,1.78c.35-.11.84-.27,1.12-.38.05-.02.1-.05.13-.09" fill="#fff"/>
            <path id="Trazado_1338" d="M43.5,38.65l-.39.03s-.06.03-.06.06l-.04.46s.01.04.03.04c0,0,0,0,.01,0l.39-.09c.05-.01.1-.05.12-.1.05-.11.06-.24.01-.35-.02-.03-.05-.05-.09-.05" fill="#fff"/>
            <path id="Trazado_1339" d="M39.73,44.4l.59.69.17-1.19c-.32.04-.6.23-.76.5" fill="#fff"/>
            <path id="Trazado_1340" d="M58.89,44.27c-.87-1.29-1.84-2.49-2.93-3.6-.05-.06-.12-.1-.19-.13l-.24-.11s.44,1.9.63,2.94c.03.13.09.25.19.35.55.52,1.04,1.1,1.48,1.72.16.24.25.51.27.8.1,1.58.06,3.16-.12,4.74,0,.18-.1.34-.24.44-1.44,1.17-3.83,3.23-4.86,4.24-.08.08-.15.16-.21.25-.1.16-.2.33-.28.5-.13-.38-.23-.76-.3-1.15-.03-.14-.03-.29,0-.44.22-1.08.5-2.14.83-3.18,0-.03.01-.05.01-.08v-.19c-.6,1.27-1.13,2.57-1.59,3.89-.05.13-.05.27,0,.4.15.42.58,1.47.77,1.9,0,0,.47-.87.74-1.31.08-.12.17-.23.27-.33.81-.75,3.71-3.17,5.06-4.18.15-.1.25-.25.29-.43.58-2.21.75-4.5.51-6.77-.01-.09-.04-.18-.09-.26" fill="#fff"/>
            <path id="Trazado_1341" d="M52.95,38.15c.06-.1.08-.21.06-.32-.04-.26-.11-.57-.17-.81-.01-.04-.04-.08-.08-.1l-.41-.19c-.05-.03-.11-.04-.17-.02-.99.17-2.02.38-2.81.56-.06.01-.12.05-.15.11l-.24.42s0,.06.02.07c0,0,.01,0,.02,0,.2.04.62.11.77.14.06.02.13,0,.19-.02.5-.21,1.31-.52,1.91-.74.05-.02.1-.02.15,0l.28.09s.07.04.1.08c.08.13.15.28.2.38.03.08.01.18-.04.24-.2.3-.56.77-.8,1.06-.05.06-.07.15-.05.23.14.49.45,1.49.61,1.97.02.06.05.11.1.15l.23.21s-.37-1.7-.46-2.19c-.02-.07,0-.15.03-.22.19-.28.54-.81.71-1.11" fill="#fff"/>
            <path id="Trazado_1342" d="M61.77,39.55c-.02-.11-.08-.21-.18-.26-1.34-.97-2.77-1.8-4.27-2.49-.15-.06-.32-.07-.48-.01-.56.21-1.46.59-2.4,1.02,0,0,.41.03.61.05.08.01.16,0,.24-.02.29-.08.8-.2,1.2-.3.2-.04.4,0,.56.12.55.41,1.43,1.12,2,1.6.1.08.21.15.33.2.86.35,1.24.52,1.43.62.13.07.23.19.27.34.23,1.04.38,2.09.45,3.15.01.18,0,.36-.07.52-.33.82-.72,1.62-1.18,2.37-.03.05-.07.1-.12.14-.12.1-.33.27-.48.39-.03.02-.05.06-.05.1,0,.37-.08,1.09-.08,1.09.9-1.19,1.68-2.46,2.31-3.81.05-.09.08-.19.09-.29.15-1.51.09-3.04-.19-4.53" fill="#fff"/>
            <path id="Trazado_1343" d="M50.77,58.11c-.19-.44-1.21-2.84-1.48-3.75-.09-.25-.12-.52-.07-.78.28-2.13.67-4.25,1.17-6.34.02-.08.03-.16,0-.24-.03-.19-.14-.83-.14-.83-.85,2.09-1.57,4.24-2.15,6.42-.09.23-.08.48,0,.7.81,1.9,1.74,3.75,2.78,5.53l-.07-.57c0-.05-.02-.1-.04-.15" fill="#fff"/>
            <path id="Trazado_1344" d="M49.2,58.25s-.38-.25-.5-.33c-.08-.05-.15-.11-.22-.17-1.66-1.75-3.15-3.66-4.46-5.69-.13-.18-.19-.4-.17-.63.02-.29.07-.85.13-1.18.02-.19.11-.37.26-.5.48-.43,1.25-1.21,1.66-1.62.14-.14.27-.3.36-.47.37-.69,1.5-3.15,1.88-4.16.06-.13.08-.28.05-.42-.13-.64-.3-1.28-.5-1.9l-.04.46s0,.06,0,.09c.08.46.14.92.16,1.39,0,.12-.02.24-.08.34-1.24,2.02-2.64,3.93-4.19,5.72-.13.14-.22.32-.25.51-.07.34-.16,1.12-.21,1.74-.05.28.03.57.2.8,1.37,2,2.93,3.86,4.67,5.55.06.05.13.1.2.13.33.18,1.23.62,1.23.62l-.14-.24s-.02-.03-.04-.04" fill="#fff"/>
            <path id="Trazado_1345" d="M45.01,38.19l1.79-.56c.11-.03.19-.1.25-.2l.95-1.64s0-.06-.02-.08c0,0-.02,0-.03,0h-.82c-.08.01-.15.03-.23.05-.78.28-1.55.6-2.29.98-.07.04-.12.09-.17.15l-.86,1.06s-.06.06-.11.08l-.56.24s-.05.03-.06.06l-.03.06s1.18-.04,1.58-.07c.2-.01.41-.05.6-.11" fill="#fff"/>
            <path id="Trazado_1346" d="M48.29,34.31c2.25-.17,4.84-.12,5.47-.11.09,0,.19.02.28.05l.46.15c-1.13.06-3.86.3-4.97.49l.39.06s.06,0,.08,0c.82-.05,2.42-.1,3.12-.11.15,0,.3.02.44.08.41.16,1.23.53,1.57.7.15.08.31.12.48.13.37.02.93.05,1.35.1.11.01.22.05.32.1.89.46,1.74.96,2.57,1.51.04.03.09.05.13.06l.35.07s-1.11-1.13-1.54-1.52c-.06-.06-.13-.1-.21-.15-1.29-.76-2.61-1.45-3.97-2.07-.13-.06-.28-.09-.42-.1-2.4-.18-4.8-.17-7.2.03-.13,0-.25.07-.32.18-.08.11-.2.31-.32.5-.06.09-.13.17-.21.24-.36.31-.95.81-1.33,1.1-.03.02-.05.04-.08.06-.16.11-.68.45-.78.52-.03.02-.05.04-.07.06-.03.04-.19.24-.19.24,1.57-.89,3.58-1.99,4.26-2.3.1-.04.21-.07.32-.08" fill="#fff"/>
            <path id="Trazado_1347" d="M40.96,39.3s-.04.05-.07.07c-1.4,1-2.18,1.63-2.49,1.9-.13.12-.25.24-.36.36s-.12.14-.13.22-.01.16-.01.21c0,.03,0,.05.02.08.02.03.13.16.16.18.01.01.03.02.05,0,.21-.15.5-.36.76-.56.03-.02.05-.05.07-.08.04-.08.1-.19.14-.26.02-.04.05-.07.09-.09l.21-.13c-.05.22-.12.44-.2.66-.02.04-.05.09-.08.12-.21.22-.58.63-.77.86-.05.07-.05.18.01.25.23.32.48.63.75.92.04.05.1.1.16.14.05.03.1.05.15.07,0,0,.18-.86.25-1.12.02-.09.1-.17.2-.19.92-.23,2.9-.56,2.9-.56-.21-.25-.91-.97-1.11-1.15-.06-.05-.13-.08-.21-.09-.26-.03-1.09-.09-1.09-.09,0,0,.07-.08.13-.14.04-.04.09-.08.15-.09,1.03-.36,2.4-.87,3.2-1.21.15-.05.29-.15.4-.27.06-.06.18-.2.25-.28.01-.01.02-.03.03-.05,0-.02.01-.07.01-.07,0,0-.34.26-.48.35-.1.08-.22.13-.35.16-.28.07-.81.2-1.13.27-.07.02-.14.02-.21,0-.05-.02-.15-.06-.2-.08-.05-.03-.11-.03-.16-.02-.28.06-1.04.25-1.04.25,0,0,.35-.31.38-.33.03-.02.07-.04.11-.06.26-.11.59-.22.87-.34.06-.01.1-.06.1-.12.02-.21.08-.6.11-.8,0-.05.03-.1.07-.12.16-.13.75-.58.9-.69l.03-.03.16-.2c-.42.24-1.18.69-1.57.94-.14.09-.28.19-.41.29-.02.02-.03.03-.05.05-.1.13-.52.67-.67.87" fill="#fff"/>
            <path id="Trazado_1348" d="M67.53,26.91c-11.41-1.98-23.07-1.98-34.48,0-.09,2.35-.19,5.99-.02,9.07.37,6.88,1.89,12.22,4.77,16.8,3.03,4.74,7.37,8.51,12.49,10.84,5.12-2.33,9.46-6.09,12.49-10.84,2.88-4.59,4.4-9.93,4.77-16.8.17-3.09.07-6.72-.02-9.07M66.89,35.95c-.37,6.76-1.85,12-4.67,16.49-2.9,4.55-7.03,8.18-11.92,10.46-4.89-2.28-9.03-5.91-11.93-10.46-2.82-4.49-4.3-9.72-4.67-16.49-.12-2.21-.12-4.99,0-8.48,10.99-1.85,22.2-1.85,33.19,0,.12,3.49.12,6.27,0,8.48" fill="#fff"/>
            <path id="Trazado_1349" d="M49.59,31.06c-.58,0-.87-.1-.87-.66v-1.05c0-.53.26-.7.8-.7.76,0,1.53,0,2.29,0v.39c-.81-.01-1.63-.01-2.45,0-.12,0-.21.09-.22.21v1.21c0,.12.1.21.22.22.73,0,1.46,0,2.19,0v-.65c-.42,0-.85,0-1.27,0v-.39c.56,0,1.13,0,1.69.01v1.43c-.79-.01-1.58-.02-2.38-.01" fill="#fff"/>
            <path id="Trazado_1350" d="M38.59,29.25c-.82.09-1.63.18-2.45.28v2.41l.42-.05v-.75c.67-.08,1.35-.16,2.02-.23.49-.05.76-.26.76-.76v-.27c0-.49-.27-.68-.76-.63M38.94,30.3c-.01.11-.11.2-.22.22-.72.07-1.43.15-2.15.24v-.89c.72-.09,1.43-.17,2.15-.24.11-.01.21.07.22.18,0,0,0,0,0,0v.49Z" fill="#fff"/>
            <path id="Trazado_1351" d="M43.37,29.25v-.39c-1.02.06-2.05.14-3.07.23v2.41c1.02-.09,2.04-.17,3.07-.23v-.39c-.89.05-1.77.12-2.65.19v-.65c.79-.07,1.57-.13,2.36-.18v-.39c-.79.05-1.57.11-2.36.18v-.59c.88-.08,1.77-.14,2.65-.2" fill="#fff"/>
            <path id="Trazado_1352" d="M56.08,29.18v-.39c-1.02-.05-2.05-.09-3.07-.11v2.41c1.02.03,2.05.06,3.07.12v-.39c-.89-.05-1.77-.08-2.66-.11v-.65c.79.02,1.58.05,2.36.09v-.39c-.79-.04-1.58-.07-2.36-.09v-.59c.89.03,1.77.06,2.66.11" fill="#fff"/>
            <path id="Trazado_1353" d="M45.28,31.17c-.54.02-.87-.08-.87-.62v-1.74l.42-.02v1.82c0,.11.09.2.2.2,0,0,.01,0,.02,0,.67-.03,1.33-.06,2-.07.12,0,.21-.09.21-.21v-1.82h.43s0,1.73,0,1.73c0,.55-.29.67-.87.69-.51.02-1.02.04-1.53.06" fill="#fff"/>
            <path id="Trazado_1354" d="M57.76,29.28c-.11-.01-.21.07-.22.18,0,0,0,.02,0,.03v1.19c0,.12.1.22.22.24.69.05,1.38.1,2.06.16.12,0,.21-.08.22-.2v-1.19c0-.12-.1-.22-.22-.24-.69-.06-1.38-.11-2.06-.16M57.99,31.32c-.58-.04-.87-.15-.87-.72v-1.08c0-.54.27-.65.87-.61.53.04,1.06.08,1.59.12.53.04.87.19.87.74v1.08c0,.54-.3.64-.87.59-.53-.04-1.06-.08-1.59-.12" fill="#fff"/>
            <path id="Trazado_1355" d="M64.45,29.53c-1.07-.13-2.15-.25-3.22-.36v.39c.47.04.93.09,1.4.14v2.02l.42.05v-2.02c.47.05.93.11,1.39.17v-.39Z" fill="#fff"/>
          </g>
        </g>
      </g>
    </g>
  </g>
</svg>