<?xml version="1.0" encoding="UTF-8"?>
<svg id="Capa_1" xmlns="http://www.w3.org/2000/svg" width="100" height="100" xmlns:xlink="http://www.w3.org/1999/xlink" viewBox="0 0 100 100">
  <defs>
    <clipPath id="clippath">
      <rect width="100" height="100" fill="none"/>
    </clipPath>
  </defs>
  <g id="Grupo_816">
    <g clip-path="url(#clippath)">
      <g id="Grupo_816-2">
        <path id="Trazado_1289" d="M48.41,75.13c-1.31,0-1.97-.24-1.97-1.51v-2.38c0-1.19.6-1.57,1.8-1.57h5.18v.88h-5.54c-.26,0-.48.2-.5.46v2.74c.02.27.23.48.5.5h4.96v-1.48h-2.88v-.88h3.82v3.24h-5.37Z" fill="#040506"/>
        <path id="Trazado_1290" d="M23.5,69.67h-5.55v5.46h.96v-1.69h4.59c1.11,0,1.73-.4,1.73-1.55v-.62c0-1.12-.62-1.61-1.73-1.61M24.28,72.12c-.03.25-.24.44-.5.44h-4.87v-2.01h4.88c.26,0,.48.2.5.46v1.11Z" fill="#040506"/>
        <path id="Trazado_1291" d="M34.32,70.55v-.88h-6.95v5.46h6.95v-.88h-6.01v-1.48h5.34v-.88h-5.34v-1.35h6.01Z" fill="#040506"/>
        <path id="Trazado_1292" d="M63.07,70.55v-.88h-6.95v5.46h6.95v-.88h-6.01v-1.48h5.34v-.88h-5.34v-1.35h6.01Z" fill="#040506"/>
        <path id="Trazado_1293" d="M38.65,75.13c-1.23,0-1.97-.27-1.97-1.51v-3.95h.94v4.12c0,.27.23.47.5.46,0,0,0,0,0,0h4.52c.25,0,.47-.19.48-.44,0,0,0-.01,0-.02v-4.12h.96v3.95c0,1.25-.65,1.51-1.97,1.51h-3.45Z" fill="#040506"/>
        <path id="Trazado_1294" d="M66.87,70.55c-.27,0-.49.21-.5.48,0,0,0,.02,0,.02v2.7c0,.27.23.49.5.5h4.68c.27-.02.48-.23.5-.5v-2.7c0-.27-.23-.49-.5-.5h-4.68ZM67.41,75.13c-1.31,0-1.97-.21-1.97-1.51v-2.44c0-1.22.61-1.51,1.97-1.51h3.61c1.19,0,1.98.26,1.98,1.51v2.44c0,1.22-.68,1.51-1.98,1.51h-3.61Z" fill="#040506"/>
        <path id="Trazado_1295" d="M82.05,69.67h-7.32v.88h3.19v4.58h.96v-4.58h3.17v-.88Z" fill="#040506"/>
        <path id="Trazado_1296" d="M49.6,64.87c-5.24-2.44-9.67-6.33-12.77-11.21-3.01-4.8-4.6-10.38-4.99-17.56-.13-2.32-.13-5.23,0-8.88l.03-.77.76-.13c11.5-1.94,23.25-1.94,34.76,0l.76.13.03.77c.13,3.65.13,6.55,0,8.88-.39,7.18-1.98,12.76-4.99,17.56-3.1,4.88-7.54,8.77-12.77,11.21l-.4.18-.4-.18Z" fill="#040506"/>
        <path id="Trazado_1297" d="M41.92,49.18c-.08.02-.16-.02-.18-.09,0,0,0-.01,0-.02-.04-.2-.16-.9-.19-1.11-.03-.08.01-.17.1-.2,0,0,.01,0,.02,0,.5-.16,1.34-.44,2.01-.68.14-.05.26-.15.33-.29.28-.45.98-1.67,1.3-2.31.05-.09.04-.2,0-.28l-.15-.25c-.06-.09-.16-.17-.27-.2-.69-.17-1.59-.4-2.02-.5-.1-.02-.19-.02-.29,0l-.08.03c.66.22,1.22.42,1.93.69.07.03.12.09.15.16l.06.21c.03.09.02.18-.02.26-.35.66-.77,1.29-1.24,1.88-.06.08-.14.13-.24.17-.4.15-1.13.39-1.46.48-.05.02-.11,0-.15-.03-.23-.16-.71-.61-.71-.61,0,0-.04.49-.04.71,0,.02,0,.05.01.07.08.19.23.56.29.74.02.05.03.09.04.14.08.32.3,1.27.3,1.27.03.14.11.19.24.17.16-.03.69-.18.9-.25.03-.01.06-.03.09-.05l.37-.34s-.78.19-1.08.25" fill="#fff"/>
        <path id="Trazado_1298" d="M43.1,46.27c.33-.42.64-.86.91-1.32l-2.18,1.8c.36-.11.84-.27,1.13-.38.05-.02.1-.05.13-.09" fill="#fff"/>
        <path id="Trazado_1299" d="M43.15,39.03l-.39.03s-.06.03-.06.06l-.04.46s.01.04.03.04c0,0,0,0,.01,0l.39-.09c.05-.01.1-.05.12-.1.05-.11.06-.24.01-.35-.01-.03-.05-.06-.09-.05" fill="#fff"/>
        <path id="Trazado_1300" d="M39.35,44.82l.59.69.17-1.2c-.32.04-.6.23-.77.51" fill="#fff"/>
        <path id="Trazado_1301" d="M58.66,44.69c-.87-1.29-1.86-2.51-2.95-3.62-.05-.06-.12-.1-.19-.13l-.25-.11s.44,1.91.63,2.96c.02.13.09.26.19.35.55.53,1.05,1.11,1.49,1.73.16.24.25.51.27.8.1,1.59.06,3.19-.12,4.77,0,.18-.1.34-.24.44-1.46,1.18-3.86,3.25-4.9,4.27-.08.08-.15.16-.22.26-.1.16-.2.33-.28.51-.13-.38-.23-.77-.3-1.16-.03-.15-.03-.29,0-.44.22-1.08.5-2.15.84-3.21,0-.03.01-.05.01-.08v-.19c-.6,1.28-1.14,2.59-1.61,3.92-.05.13-.05.27,0,.4.15.43.58,1.48.78,1.91,0,0,.47-.88.74-1.32.08-.12.17-.24.28-.33.81-.75,3.74-3.19,5.1-4.22.15-.1.25-.25.29-.42.59-2.22.76-4.54.51-6.82-.01-.09-.04-.18-.09-.26" fill="#fff"/>
        <path id="Trazado_1302" d="M52.68,38.53c.06-.1.08-.21.06-.32-.05-.26-.12-.58-.17-.81-.01-.04-.04-.08-.08-.1l-.41-.2c-.05-.03-.11-.03-.17-.02-.99.18-2.04.38-2.83.56-.06.01-.12.06-.15.11l-.25.43s0,.06.02.08c0,0,.01,0,.02,0,.21.04.63.11.78.14.06.02.13,0,.19-.02.5-.21,1.32-.53,1.93-.75.05-.02.1-.02.15,0l.28.09s.08.04.1.08c.08.13.16.28.2.38.03.08.01.18-.04.25-.21.3-.56.77-.8,1.06-.05.06-.07.15-.05.23.14.49.45,1.5.62,1.99.02.06.05.11.1.15l.23.21s-.37-1.71-.46-2.2c-.02-.07,0-.15.03-.22.2-.28.55-.82.72-1.11" fill="#fff"/>
        <path id="Trazado_1303" d="M61.56,39.93c-.02-.11-.08-.21-.18-.26-1.35-.97-2.79-1.81-4.3-2.5-.15-.06-.32-.07-.48-.01-.57.21-1.47.59-2.42,1.03,0,0,.42.03.61.05.08.01.16,0,.24-.02.29-.08.8-.21,1.21-.3.2-.04.4,0,.57.12.55.41,1.44,1.13,2.01,1.61.1.08.21.15.33.2.87.35,1.25.52,1.44.62.14.07.24.2.27.34.23,1.04.38,2.1.46,3.17.01.18,0,.36-.07.53-.33.83-.73,1.63-1.19,2.39-.03.05-.07.1-.12.14-.12.1-.33.28-.49.4-.03.02-.05.06-.05.1,0,.37-.08,1.1-.08,1.1.91-1.2,1.69-2.49,2.33-3.85.05-.09.08-.19.09-.3.15-1.52.09-3.06-.2-4.57" fill="#fff"/>
        <path id="Trazado_1304" d="M50.48,58.64c-.2-.44-1.22-2.86-1.49-3.78-.09-.25-.12-.52-.07-.78.28-2.15.67-4.28,1.18-6.38.02-.08.03-.16,0-.24-.03-.19-.14-.84-.14-.84-.86,2.11-1.58,4.27-2.17,6.47-.09.23-.09.48,0,.71.81,1.91,1.75,3.78,2.8,5.57l-.07-.57c0-.05-.02-.1-.04-.15" fill="#fff"/>
        <path id="Trazado_1305" d="M48.89,58.78s-.39-.25-.51-.33c-.08-.05-.15-.11-.22-.17-1.67-1.77-3.18-3.69-4.5-5.74-.13-.18-.19-.41-.17-.63.02-.29.07-.86.13-1.19.02-.19.11-.37.26-.5.48-.44,1.26-1.22,1.67-1.63.15-.14.27-.3.36-.47.37-.7,1.51-3.18,1.9-4.2.06-.13.08-.28.05-.42-.13-.65-.3-1.28-.5-1.91l-.04.46s0,.07,0,.1c.08.46.14.93.16,1.4,0,.12-.02.24-.08.34-1.25,2.03-2.66,3.96-4.22,5.76-.13.14-.22.32-.25.51-.07.34-.16,1.13-.21,1.75-.04.28.03.57.21.8,1.38,2.02,2.95,3.89,4.7,5.6.06.05.13.1.2.13.33.18,1.24.63,1.24.63l-.14-.25s-.02-.03-.04-.04" fill="#fff"/>
        <path id="Trazado_1306" d="M44.68,38.56l1.8-.56c.11-.03.19-.1.25-.2l.96-1.65s0-.06-.02-.08c0,0-.02,0-.03,0h-.82c-.08.01-.15.03-.23.05-.79.28-1.56.61-2.31.99-.07.04-.12.09-.17.15l-.87,1.07s-.06.06-.11.08l-.56.24s-.05.03-.06.06l-.03.06s1.19-.04,1.59-.07c.2-.01.41-.05.6-.11" fill="#fff"/>
        <path id="Trazado_1307" d="M47.98,34.66c2.27-.17,4.88-.12,5.51-.11.09,0,.19.02.28.05l.46.15c-1.14.06-3.89.31-5.01.5l.39.06s.06,0,.08,0c.82-.05,2.44-.1,3.15-.11.15,0,.3.02.44.08.41.16,1.24.53,1.58.71.15.08.32.13.49.13.37.01.94.05,1.36.1.11.01.22.05.33.1.89.46,1.76.97,2.59,1.52.04.03.09.05.14.06l.35.07s-1.11-1.15-1.56-1.53c-.06-.06-.13-.11-.21-.15-1.3-.76-2.63-1.46-4-2.08-.13-.06-.28-.09-.42-.1-2.41-.18-4.84-.17-7.25.03-.13,0-.25.07-.32.18-.08.11-.2.32-.32.51-.06.09-.13.17-.21.24-.36.31-.96.82-1.34,1.11l-.08.06c-.16.11-.69.46-.78.52-.03.02-.05.04-.07.06l-.19.24c1.58-.89,3.6-2.01,4.29-2.31.1-.05.21-.07.33-.08" fill="#fff"/>
        <path id="Trazado_1308" d="M40.59,39.68s-.04.05-.07.07c-1.41,1.01-2.2,1.65-2.51,1.91-.13.12-.25.25-.36.36s-.12.14-.13.22,0,.16,0,.22c0,.03,0,.06.02.08.02.03.13.16.16.18.01.01.03.02.04,0,.21-.15.5-.36.77-.57.03-.02.05-.05.08-.08.04-.08.1-.19.14-.26.02-.04.05-.08.09-.1l.21-.13c-.05.23-.12.45-.21.66-.02.04-.05.09-.08.12-.21.22-.58.64-.77.87-.06.07-.05.18,0,.25.23.33.48.64.75.93.05.05.1.1.16.14.05.03.1.05.15.07,0,0,.18-.86.26-1.13.02-.1.1-.17.2-.19.92-.23,2.92-.56,2.92-.56-.21-.25-.91-.97-1.12-1.15-.06-.05-.13-.08-.21-.09-.26-.03-1.1-.09-1.1-.09,0,0,.07-.08.13-.14.04-.04.09-.08.15-.09,1.04-.36,2.42-.88,3.23-1.22.15-.06.29-.15.4-.27.06-.06.18-.2.25-.28.01-.01.02-.03.03-.05,0-.03,0-.07,0-.07,0,0-.35.26-.48.35-.1.08-.23.14-.35.17-.28.07-.82.2-1.14.27-.07.02-.14.02-.21,0-.05-.02-.15-.06-.21-.08-.05-.03-.11-.03-.16-.02-.28.06-1.05.25-1.05.25,0,0,.35-.32.38-.34.03-.02.07-.04.11-.06.27-.11.6-.23.87-.34.06-.01.1-.06.1-.12.02-.21.08-.6.12-.8,0-.05.03-.1.08-.12.16-.13.76-.59.9-.69l.03-.03.16-.2c-.43.25-1.19.7-1.58.95-.14.09-.28.19-.42.29-.02.02-.03.03-.05.05-.1.13-.52.67-.67.88" fill="#fff"/>
        <path id="Trazado_1309" d="M67.37,27.2c-11.49-2-23.24-2-34.74,0-.09,2.37-.19,6.03-.02,9.14.38,6.93,1.9,12.31,4.81,16.93,3.05,4.78,7.42,8.57,12.58,10.92,5.16-2.35,9.53-6.14,12.58-10.92,2.9-4.62,4.43-10,4.81-16.93.17-3.11.07-6.77-.02-9.14M66.72,36.31c-.37,6.81-1.87,12.09-4.71,16.61-2.92,4.59-7.09,8.24-12.02,10.54-4.93-2.29-9.1-5.95-12.02-10.54-2.84-4.52-4.33-9.8-4.71-16.61-.12-2.22-.12-5.02,0-8.54,11.07-1.87,22.37-1.87,33.44,0,.12,3.52.12,6.31,0,8.54" fill="#fff"/>
        <path id="Trazado_1310" d="M49.29,31.38c-.58,0-.88-.1-.88-.66v-1.06c0-.53.26-.7.8-.71.77,0,1.54,0,2.31,0v.39c-.82-.01-1.64-.01-2.47,0-.12,0-.21.09-.22.21v1.22c0,.12.1.21.22.22.74,0,1.48,0,2.21,0v-.66c-.43,0-.86,0-1.28,0v-.39c.57,0,1.13,0,1.7.01v1.44c-.8-.01-1.6-.02-2.39-.01" fill="#fff"/>
        <path id="Trazado_1311" d="M38.21,29.56c-.82.09-1.64.18-2.46.28v2.43l.43-.05v-.75c.68-.08,1.36-.16,2.04-.23.49-.05.77-.26.77-.76v-.27c0-.5-.27-.69-.77-.64M38.55,30.62c-.01.12-.11.21-.22.22-.72.07-1.44.16-2.16.24v-.9c.72-.09,1.44-.17,2.16-.24.11-.01.21.07.22.18,0,0,0,0,0,0v.49Z" fill="#fff"/>
        <path id="Trazado_1312" d="M43.01,29.55v-.39c-1.03.07-2.06.14-3.09.23v2.43c1.03-.09,2.06-.17,3.09-.23v-.39c-.89.06-1.78.12-2.67.2v-.66c.79-.07,1.58-.13,2.38-.18v-.4c-.79.05-1.58.11-2.38.18v-.6c.89-.08,1.78-.14,2.67-.2" fill="#fff"/>
        <path id="Trazado_1313" d="M55.83,29.49v-.39c-1.03-.05-2.06-.09-3.1-.12v2.43c1.03.02,2.07.06,3.1.12v-.39c-.89-.05-1.78-.08-2.68-.1v-.66c.79.02,1.59.05,2.38.09v-.39c-.79-.04-1.59-.07-2.38-.09v-.6c.89.02,1.78.06,2.68.11" fill="#fff"/>
        <path id="Trazado_1314" d="M44.94,31.49c-.55.02-.88-.08-.88-.63v-1.76l.42-.02v1.83c0,.11.09.2.2.2,0,0,.02,0,.02,0,.67-.03,1.34-.06,2.01-.08.12,0,.21-.09.21-.21h0v-1.83h.43s0,1.75,0,1.75c0,.56-.29.68-.88.7-.51.02-1.02.04-1.54.06" fill="#fff"/>
        <path id="Trazado_1315" d="M57.52,29.59c-.11-.01-.21.07-.22.18,0,.01,0,.02,0,.03v1.2c0,.12.1.23.22.24.69.05,1.39.1,2.08.16.12,0,.21-.08.22-.2v-1.2c0-.12-.1-.23-.22-.24-.69-.06-1.39-.11-2.08-.16M57.75,31.65c-.58-.04-.88-.15-.88-.73v-1.09c0-.55.27-.66.88-.62.53.04,1.07.08,1.6.12.53.04.88.19.88.75v1.09c0,.55-.3.64-.88.6-.53-.04-1.07-.08-1.6-.12" fill="#fff"/>
        <path id="Trazado_1316" d="M64.26,29.84c-1.08-.14-2.16-.26-3.25-.36v.39c.47.05.94.1,1.42.15v2.04l.43.05v-2.04c.47.05.93.11,1.4.17v-.39Z" fill="#fff"/>
      </g>
    </g>
  </g>
</svg>