<?xml version="1.0" encoding="UTF-8"?>
<svg id="Capa_1" xmlns="http://www.w3.org/2000/svg" width="150" height="40" viewBox="0 0 150 40">
  <g>
    <path d="M35.39,12.18c-.52,0-1.03-.04-1.51-.11-.49-.07-.95-.18-1.38-.31v-1.47c.3.1.62.19.96.25.34.07.68.12,1.02.15s.65.05.93.05c.77,0,1.32-.11,1.64-.34.32-.23.48-.55.48-.97,0-.35-.12-.62-.37-.81-.25-.18-.69-.34-1.32-.46l-.7-.14c-1-.19-1.73-.51-2.17-.95s-.67-1.01-.67-1.72c0-.88.34-1.56,1.01-2.05.68-.49,1.7-.74,3.06-.74.47,0,.92.03,1.34.08.42.05.81.13,1.15.23v1.46c-.35-.11-.74-.19-1.17-.25s-.86-.09-1.29-.09c-.55,0-1,.05-1.33.15-.34.1-.58.25-.73.44s-.23.42-.23.69c0,.34.11.6.32.79.22.19.61.33,1.18.45l.7.13c.73.14,1.32.33,1.77.58s.77.53.96.88c.2.35.3.75.3,1.22,0,.59-.16,1.1-.47,1.52-.32.42-.77.75-1.36.97-.59.23-1.3.34-2.12.34Z" fill="#fff"/>
    <path d="M45.38,12.18c-.98,0-1.83-.18-2.55-.54-.72-.36-1.28-.9-1.68-1.61s-.6-1.59-.6-2.64.2-1.93.6-2.64.96-1.25,1.69-1.61c.72-.36,1.57-.54,2.55-.54s1.84.18,2.56.55c.73.36,1.29.9,1.68,1.62.4.71.59,1.59.59,2.64s-.2,1.92-.6,2.64-.96,1.25-1.69,1.62-1.58.55-2.55.55ZM45.38,10.71c.61,0,1.14-.12,1.58-.35.44-.23.78-.59,1.02-1.08.24-.49.36-1.11.36-1.87s-.12-1.42-.36-1.92c-.24-.5-.58-.86-1.03-1.1-.44-.24-.97-.35-1.57-.35s-1.12.12-1.56.34c-.44.23-.79.59-1.03,1.07-.24.49-.36,1.11-.36,1.87s.12,1.43.36,1.93c.24.5.58.86,1.02,1.09.44.23.97.35,1.57.35Z" fill="#fff"/>
    <path d="M51.97,12.06V2.7h1.84v7.9h5.03v1.46h-6.87Z" fill="#fff"/>
    <path d="M66.44,12.13c-.29,0-.59,0-.9-.02-.31-.01-.63-.03-.95-.05s-.65-.06-.99-.1V2.94c.32-.07.66-.13,1.03-.18.37-.05.75-.09,1.13-.11.38-.03.75-.04,1.1-.04,1.83,0,3.22.39,4.17,1.17.95.78,1.42,1.98,1.42,3.6,0,1.1-.22,2.01-.67,2.71s-1.11,1.22-2,1.55c-.89.33-2,.5-3.34.5ZM66.9,10.67c.83,0,1.52-.12,2.07-.35.54-.23.95-.59,1.21-1.08s.4-1.11.4-1.87-.13-1.38-.4-1.86c-.27-.49-.68-.85-1.22-1.08s-1.22-.35-2.04-.35c-.23,0-.47.01-.72.03-.26.02-.5.05-.75.09v6.39c.21.03.43.04.66.06.23.01.5.02.8.02Z" fill="#fff"/>
    <path d="M74.21,12.06V2.7h7.12v1.4h-5.3v6.56h5.37v1.4h-7.18ZM75.11,7.97v-1.4h5.56v1.4h-5.56Z" fill="#fff"/>
  </g>
  <g>
    <path d="M32.88,25.52v-9.36h2.21l3.31,6.58h-.28l3.24-6.58h2.21v9.36h-1.72v-7.88h.42l-3.26,6.54h-1.57l-3.34-6.54h.51v7.88h-1.72Z" fill="#fff"/>
    <path d="M45.73,25.52v-9.36h1.84v9.36h-1.84Z" fill="#fff"/>
    <path d="M54.62,25.64c-.83,0-1.58-.09-2.23-.28s-1.21-.48-1.67-.86c-.46-.39-.8-.88-1.04-1.49-.24-.6-.35-1.32-.35-2.15,0-1.05.21-1.93.63-2.64.42-.72,1.03-1.26,1.83-1.62s1.78-.55,2.93-.55c.42,0,.82.02,1.19.06.38.04.75.11,1.12.2v1.49c-.34-.08-.69-.15-1.06-.19-.36-.04-.74-.07-1.13-.07-.8,0-1.47.12-2,.35-.53.23-.93.59-1.2,1.08-.27.49-.4,1.11-.4,1.86s.13,1.42.4,1.9c.27.48.66.84,1.18,1.06.52.23,1.15.34,1.9.34.4,0,.79-.03,1.17-.08.37-.05.75-.13,1.13-.24v1.49c-.36.11-.75.19-1.15.25-.4.05-.82.08-1.26.08Z" fill="#fff"/>
    <path d="M58.49,25.52v-9.36h1.84v3.78h4.9v-3.78h1.84v9.36h-1.84v-4h-4.9v4h-1.84Z" fill="#fff"/>
    <path d="M73.66,25.64c-.98,0-1.83-.18-2.55-.54-.72-.36-1.28-.9-1.68-1.61s-.6-1.59-.6-2.64.2-1.93.6-2.64.96-1.25,1.69-1.61c.72-.36,1.57-.54,2.55-.54s1.84.18,2.56.55c.73.36,1.29.9,1.68,1.62.4.71.59,1.59.59,2.64s-.2,1.92-.6,2.64-.96,1.25-1.69,1.62-1.58.55-2.55.55ZM73.66,24.18c.61,0,1.14-.12,1.58-.35.44-.23.78-.59,1.02-1.08.24-.49.36-1.11.36-1.87s-.12-1.42-.36-1.92c-.24-.5-.58-.86-1.03-1.1-.44-.24-.97-.35-1.57-.35s-1.12.12-1.56.34c-.44.23-.79.59-1.03,1.07-.24.49-.36,1.11-.36,1.87s.12,1.43.36,1.93c.24.5.58.86,1.02,1.09.44.23.97.35,1.57.35Z" fill="#fff"/>
    <path d="M79.15,25.52l3.6-9.36h2.62l3.6,9.36h-1.82l-3.21-8.57h.21l-3.21,8.57h-1.79ZM81.6,22.85l.44-1.4h4.03l.43,1.4h-4.9Z" fill="#fff"/>
    <path d="M94.91,25.64c-.83,0-1.58-.09-2.24-.28s-1.21-.48-1.67-.86c-.46-.39-.8-.88-1.04-1.49-.24-.6-.35-1.32-.35-2.15,0-1.05.21-1.93.63-2.64.42-.72,1.03-1.26,1.83-1.62s1.78-.55,2.93-.55c.42,0,.82.02,1.2.06s.75.11,1.12.2v1.49c-.34-.08-.69-.15-1.06-.19-.36-.04-.74-.07-1.13-.07-.8,0-1.47.12-2,.35-.53.23-.93.59-1.19,1.08s-.4,1.11-.4,1.86.13,1.42.4,1.9c.27.48.66.84,1.18,1.06.52.23,1.15.34,1.9.34.4,0,.79-.03,1.17-.08.37-.05.75-.13,1.13-.24v1.49c-.36.11-.75.19-1.15.25s-.82.08-1.25.08Z" fill="#fff"/>
    <path d="M97.92,25.52l3.6-9.36h2.62l3.6,9.36h-1.82l-3.21-8.57h.21l-3.21,8.57h-1.79ZM100.37,22.85l.44-1.4h4.03l.43,1.4h-4.9ZM101.98,15.41l1.34-1.87h1.93l-1.61,1.87h-1.66Z" fill="#fff"/>
    <path d="M109,25.52v-9.36h1.85l5.46,7.3h-.34v-7.3h1.73v9.36h-1.85l-5.46-7.3h.34v7.3h-1.73Z" fill="#fff"/>
  </g>
  <g>
    <path d="M33.25,37.39c-.09,0-.18,0-.27,0-.09,0-.18,0-.28-.01-.1,0-.21-.01-.33-.03v-4.63c.1-.01.21-.03.32-.04s.22-.02.33-.03c.11,0,.22-.01.33-.01.73,0,1.27.19,1.64.58s.55.99.55,1.81c0,.56-.09,1.02-.26,1.37-.17.35-.43.6-.77.76-.34.16-.76.24-1.25.24ZM33.26,37.19c.45,0,.83-.07,1.12-.21.3-.14.52-.37.67-.69.15-.32.22-.74.22-1.26s-.07-.93-.21-1.25-.35-.56-.64-.71c-.29-.15-.65-.22-1.1-.22-.11,0-.23,0-.36.01-.12,0-.25.02-.37.04v4.26c.12.01.23.02.33.02.1,0,.21,0,.32,0Z" fill="#fff"/>
    <path d="M37.67,37.36v-4.68h.24v4.68h-.24Z" fill="#fff"/>
    <path d="M40.99,37.42c-.15,0-.31-.01-.48-.04s-.35-.07-.51-.12v-.21c.12.04.24.07.36.09.12.02.23.04.34.05.11.01.22.02.32.02.41,0,.72-.09.94-.26.21-.17.32-.43.32-.77,0-.29-.08-.51-.24-.67-.16-.16-.42-.29-.79-.4l-.18-.06c-.36-.11-.64-.27-.83-.46-.19-.19-.29-.45-.29-.77,0-.37.13-.67.39-.88.26-.21.64-.32,1.13-.32.14,0,.29,0,.45.03s.3.05.42.09v.21c-.15-.04-.3-.08-.44-.09s-.29-.03-.44-.03c-.28,0-.51.04-.7.11-.19.07-.32.18-.42.33-.09.15-.14.32-.14.53,0,.28.08.49.23.65.15.15.41.29.76.4l.18.06c.25.08.46.17.64.29.17.11.3.25.39.41s.13.35.13.57c0,.27-.06.49-.18.68s-.29.33-.52.42-.51.14-.84.14Z" fill="#fff"/>
    <path d="M45.6,37.36v-4.47h-1.59v-.21h3.41v.21h-1.59v4.47h-.24Z" fill="#fff"/>
    <path d="M49.24,37.36v-4.64c.11-.01.22-.03.33-.04.11-.01.23-.02.35-.03.12,0,.25-.01.4-.01.59,0,1.02.11,1.31.33s.43.55.43.98c0,.3-.07.55-.22.74-.15.2-.36.35-.66.45s-.65.15-1.09.15c-.14,0-.25,0-.35,0-.09,0-.18,0-.27-.01v2.08h-.24ZM50.08,35.1c.61,0,1.06-.09,1.33-.28s.41-.48.41-.86c0-.25-.05-.45-.15-.62-.1-.16-.27-.29-.49-.37s-.52-.12-.88-.12c-.16,0-.3,0-.42.01-.13,0-.26.02-.39.04v2.18c.08,0,.15,0,.22.01.06,0,.13,0,.19,0,.06,0,.12,0,.19,0ZM52.18,37.36l-1.77-2.21h.29l1.78,2.21h-.3Z" fill="#fff"/>
    <path d="M54.43,37.36v-4.68h.24v4.68h-.24Z" fill="#fff"/>
    <path d="M58.05,37.39c-.12,0-.23,0-.34,0-.11,0-.22,0-.33-.01s-.22-.01-.33-.03v-4.62c.1-.02.21-.03.32-.05.11-.01.23-.02.36-.03.13,0,.27-.01.42-.01.41,0,.75.04,1,.13.26.09.45.22.57.4.12.18.18.4.18.68,0,.17-.03.34-.1.5s-.18.29-.34.41-.38.19-.65.22v-.04c.43.04.74.17.94.39.2.22.3.49.3.82,0,.21-.04.39-.11.55-.08.16-.19.29-.35.4-.16.11-.37.19-.62.24s-.56.08-.92.08ZM58.05,37.19c.42,0,.77-.04,1.02-.11.26-.08.44-.19.56-.34.11-.15.17-.35.17-.59,0-.36-.12-.63-.35-.81-.24-.18-.61-.27-1.13-.27h-1.1v-.21h.96c.38,0,.67-.04.89-.12.21-.08.36-.2.45-.35.09-.15.13-.33.13-.55,0-.35-.11-.61-.34-.76-.23-.15-.62-.23-1.18-.23-.17,0-.33,0-.46.01-.13,0-.26.02-.39.04v4.25c.12.01.25.02.38.02.13,0,.26,0,.39,0Z" fill="#fff"/>
    <path d="M63.65,37.42c-.37,0-.67-.06-.9-.18-.23-.12-.4-.29-.51-.53-.11-.24-.16-.54-.16-.9v-3.12h.24v3.15c0,.46.1.81.31,1.03.21.23.55.34,1.02.34s.82-.11,1.02-.34.31-.57.31-1.03v-3.15h.23v3.12c0,.36-.05.67-.16.9-.11.24-.28.42-.51.53-.23.12-.53.18-.9.18Z" fill="#fff"/>
    <path d="M67.56,37.36v-4.68h.24v4.68h-.24Z" fill="#fff"/>
    <path d="M71.06,37.39c-.09,0-.18,0-.27,0-.09,0-.18,0-.28-.01-.1,0-.21-.01-.33-.03v-4.63c.1-.01.21-.03.32-.04s.22-.02.33-.03c.11,0,.22-.01.33-.01.73,0,1.27.19,1.64.58s.55.99.55,1.81c0,.56-.09,1.02-.26,1.37-.17.35-.43.6-.77.76-.34.16-.76.24-1.25.24ZM71.07,37.19c.45,0,.83-.07,1.12-.21.3-.14.52-.37.67-.69.15-.32.22-.74.22-1.26s-.07-.93-.21-1.25-.35-.56-.64-.71c-.29-.15-.65-.22-1.1-.22-.11,0-.23,0-.36.01-.12,0-.25.02-.37.04v4.26c.12.01.23.02.33.02.1,0,.21,0,.32,0Z" fill="#fff"/>
    <path d="M76.96,37.42c-.35,0-.65-.08-.91-.23-.26-.15-.45-.41-.59-.76-.14-.35-.21-.82-.21-1.41s.07-1.06.21-1.41c.14-.35.34-.6.59-.76.26-.15.56-.23.91-.23s.65.08.91.23c.26.15.45.41.59.76.14.35.21.82.21,1.41s-.07,1.06-.21,1.41c-.14.35-.34.6-.59.76-.26.15-.56.23-.91.23ZM76.96,37.21c.29,0,.55-.06.77-.19.22-.13.39-.35.51-.67.12-.32.18-.75.18-1.31s-.06-1.01-.18-1.33c-.12-.32-.29-.54-.51-.68-.22-.13-.47-.2-.77-.2s-.55.06-.77.19c-.22.13-.39.35-.51.67-.12.32-.18.75-.18,1.31s.06,1.01.18,1.33c.12.32.29.54.51.67s.47.2.77.2Z" fill="#fff"/>
    <path d="M80.81,37.36v-4.64c.11-.01.21-.03.33-.04s.23-.02.35-.03c.12,0,.25-.01.4-.01.59,0,1.02.11,1.31.33s.43.55.43.98c0,.3-.07.55-.22.74-.15.2-.37.35-.66.45s-.65.15-1.09.15c-.14,0-.25,0-.35,0-.09,0-.18,0-.27-.01v2.08h-.24ZM81.65,35.1c.61,0,1.06-.09,1.33-.28.27-.19.41-.48.41-.86,0-.25-.05-.45-.15-.62-.1-.16-.27-.29-.49-.37s-.52-.12-.88-.12c-.16,0-.3,0-.42.01-.13,0-.26.02-.39.04v2.18c.08,0,.15,0,.22.01.06,0,.13,0,.19,0,.06,0,.12,0,.19,0ZM83.75,37.36l-1.77-2.21h.29l1.78,2.21h-.3Z" fill="#fff"/>
  </g>
</svg>