<?xml version="1.0" encoding="UTF-8"?>
<svg id="Capa_1" xmlns="http://www.w3.org/2000/svg" width="100" height="100" xmlns:xlink="http://www.w3.org/1999/xlink" viewBox="0 0 100 100">
  <defs>
    <clipPath id="clippath">
      <rect width="100" height="100" fill="none"/>
    </clipPath>
  </defs>
  <g clip-path="url(#clippath)">
    <g id="Grupo_767">
      <path id="Trazado_1144" d="M32.91,32.55v-5.47l-13.3-.08,1.32,45.96,5.61.06-.08-20.88h4.99v-5.48h-5v-14.11h6.45ZM35.33,27l.89,46.02h5.78l.13-46.03h-6.81ZM59.11,27.05h-13.15l.16,45.95h5.46l.04-20.75h6.91c.61,3.79.68,19.43.68,20.65v.12h5.31c.2-11.67,1.11-33.4-5.41-45.96M51.48,46.91l-.02-14.5s3.02-.12,3.35-.12h.07c1.21,2.91,2.07,5.96,2.55,9.08.54,3,.81,5.54.81,5.54h-6.77ZM63.84,27.05v5.38h4.91l-.21,40.58h5.65l1.36-40.58h4.83v-5.45l-16.55.07ZM63.84,27.05v5.38h4.91l-.21,40.58h5.65l1.36-40.58h4.83v-5.45l-16.55.07ZM59.11,27.05h-13.15l.16,45.95h5.46l.04-20.75h6.91c.61,3.79.68,19.43.68,20.65v.12h5.31c.2-11.67,1.11-33.4-5.41-45.96M51.48,46.91l-.02-14.5s3.02-.12,3.35-.12h.07c1.21,2.91,2.07,5.96,2.55,9.08.54,3,.81,5.54.81,5.54h-6.77ZM35.33,27l.89,46.02h5.78l.13-46.03h-6.81ZM32.91,32.55v-5.47l-13.3-.08,1.32,45.96,5.61.06-.08-20.88h4.99v-5.48h-5v-14.11h6.45ZM32.91,32.55v-5.47l-13.3-.08,1.32,45.96,5.61.06-.08-20.88h4.99v-5.48h-5v-14.11h6.45ZM35.33,27l.89,46.02h5.78l.13-46.03h-6.81ZM59.11,27.05h-13.15l.16,45.95h5.46l.04-20.75h6.91c.61,3.79.68,19.43.68,20.65v.12h5.31c.2-11.67,1.11-33.4-5.41-45.96M51.48,46.91l-.02-14.5s3.02-.12,3.35-.12h.07c1.21,2.91,2.07,5.96,2.55,9.08.54,3,.81,5.54.81,5.54h-6.77ZM63.84,27.05v5.38h4.91l-.21,40.58h5.65l1.36-40.58h4.83v-5.45l-16.55.07ZM63.84,27.05v5.38h4.91l-.21,40.58h5.65l1.36-40.58h4.83v-5.45l-16.55.07ZM59.11,27.05h-13.15l.16,45.95h5.46l.04-20.75h6.91c.61,3.79.68,19.43.68,20.65v.12h5.31c.2-11.67,1.11-33.4-5.41-45.96M51.48,46.91l-.02-14.5s3.02-.12,3.35-.12h.07c1.21,2.91,2.07,5.96,2.55,9.08.54,3,.81,5.54.81,5.54h-6.77ZM35.33,27l.89,46.02h5.78l.13-46.03h-6.81ZM32.91,32.55v-5.47l-13.3-.08,1.32,45.96,5.61.06-.08-20.88h4.99v-5.48h-5v-14.11h6.45ZM32.91,32.55v-5.47l-13.3-.08,1.32,45.96,5.61.06-.08-20.88h4.99v-5.48h-5v-14.11h6.45ZM35.33,27l.89,46.02h5.78l.13-46.03h-6.81ZM59.11,27.05h-13.15l.16,45.95h5.46l.04-20.75h6.91c.61,3.79.68,19.43.68,20.65v.12h5.31c.2-11.67,1.11-33.4-5.41-45.96M51.48,46.91l-.02-14.5s3.02-.12,3.35-.12h.07c1.21,2.91,2.07,5.96,2.55,9.08.54,3,.81,5.54.81,5.54h-6.77ZM63.84,27.05v5.38h4.91l-.21,40.58h5.65l1.36-40.58h4.83v-5.45l-16.55.07ZM63.84,27.05v5.38h4.91l-.21,40.58h5.65l1.36-40.58h4.83v-5.45l-16.55.07ZM59.11,27.05h-13.15l.16,45.95h5.46l.04-20.75h6.91c.61,3.79.68,19.43.68,20.65v.12h5.31c.2-11.67,1.11-33.4-5.41-45.96M51.48,46.91l-.02-14.5s3.02-.12,3.35-.12h.07c1.21,2.91,2.07,5.96,2.55,9.08.54,3,.81,5.54.81,5.54h-6.77ZM35.33,27l.89,46.02h5.78l.13-46.03h-6.81ZM32.91,32.55v-5.47l-13.3-.08,1.32,45.96,5.61.06-.08-20.88h4.99v-5.48h-5v-14.11h6.45ZM32.91,32.55v-5.47l-13.3-.08,1.32,45.96,5.61.06-.08-20.88h4.99v-5.48h-5v-14.11h6.45ZM35.33,27l.89,46.02h5.78l.13-46.03h-6.81ZM59.11,27.05h-13.15l.16,45.95h5.46l.04-20.75h6.91c.61,3.79.68,19.43.68,20.65v.12h5.31c.2-11.67,1.11-33.4-5.41-45.96M51.48,46.91l-.02-14.5s3.02-.12,3.35-.12h.07c1.21,2.91,2.07,5.96,2.55,9.08.54,3,.81,5.54.81,5.54h-6.77ZM63.84,27.05v5.38h4.91l-.21,40.58h5.65l1.36-40.58h4.83v-5.45l-16.55.07ZM63.84,27.05v5.38h4.91l-.21,40.58h5.65l1.36-40.58h4.83v-5.45l-16.55.07ZM59.11,27.05h-13.15l.16,45.95h5.46l.04-20.75h6.91c.61,3.79.68,19.43.68,20.65v.12h5.31c.2-11.67,1.11-33.4-5.41-45.96M51.48,46.91l-.02-14.5s3.02-.12,3.35-.12h.07c1.21,2.91,2.07,5.96,2.55,9.08.54,3,.81,5.54.81,5.54h-6.77ZM35.33,27l.89,46.02h5.78l.13-46.03h-6.81ZM32.91,32.55v-5.47l-13.3-.08,1.32,45.96,5.61.06-.08-20.88h4.99v-5.48h-5v-14.11h6.45ZM32.91,32.55v-5.47l-13.3-.08,1.32,45.96,5.61.06-.08-20.88h4.99v-5.48h-5v-14.11h6.45ZM35.33,27l.89,46.02h5.78l.13-46.03h-6.81ZM59.11,27.05h-13.15l.16,45.95h5.46l.04-20.75h6.91c.61,3.79.68,19.43.68,20.65v.12h5.31c.2-11.67,1.11-33.4-5.41-45.96M51.48,46.91l-.02-14.5s3.02-.12,3.35-.12h.07c1.21,2.91,2.07,5.96,2.55,9.08.54,3,.81,5.54.81,5.54h-6.77ZM63.84,27.05v5.38h4.91l-.21,40.58h5.65l1.36-40.58h4.83v-5.45l-16.55.07ZM63.84,27.05v5.38h4.91l-.21,40.58h5.65l1.36-40.58h4.83v-5.45l-16.55.07ZM59.11,27.05h-13.15l.16,45.95h5.46l.04-20.75h6.91c.61,3.79.68,19.43.68,20.65v.12h5.31c.2-11.67,1.11-33.4-5.41-45.96M51.48,46.91l-.02-14.5s3.02-.12,3.35-.12h.07c1.21,2.91,2.07,5.96,2.55,9.08.54,3,.81,5.54.81,5.54h-6.77ZM35.33,27l.89,46.02h5.78l.13-46.03h-6.81ZM32.91,32.55v-5.47l-13.3-.08,1.32,45.96,5.61.06-.08-20.88h4.99v-5.48h-5v-14.11h6.45Z"/>
    </g>
  </g>
</svg>