<?xml version="1.0" encoding="UTF-8"?>
<svg id="Capa_1" xmlns="http://www.w3.org/2000/svg" width="100" height="100" xmlns:xlink="http://www.w3.org/1999/xlink" viewBox="0 0 100 100">
  <defs>
    <clipPath id="clippath">
      <rect width="100" height="100" fill="none"/>
    </clipPath>
  </defs>
  <g clip-path="url(#clippath)">
    <g id="Grupo_765">
      <path id="Trazado_1139" d="M29.33,50.65c0,7.62-3.51,10.53-10.53,10.53s-10.23-3.91-10.23-9.93v-3.81h7.72v3.11c0,2.11,0,4.11,2.31,4.11s2.11-2.71,2.11-3.91v-17.76h8.63v17.66Z" fill="#424d07" fill-rule="evenodd"/>
      <path id="Trazado_1140" d="M37.06,48.24c.3-2.11,1.51-3.31,3.51-3.31,1.75.03,3.15,1.48,3.11,3.23,0,.03,0,.05,0,.08h-6.62ZM50.4,52.26c0-7.83-3.21-12.24-10.43-12.24-5.82,0-9.63,4.72-9.63,10.53,0,6.72,4.42,10.53,10.23,10.53,4.21,0,8.03-2.01,9.43-6.32h-6.52c-.69.9-1.77,1.42-2.91,1.4-2.21,0-3.41-1.6-3.61-3.91h13.44Z" fill="#424d07" fill-rule="evenodd"/>
      <path id="Trazado_1141" d="M57.62,48.24c.3-2.11,1.51-3.31,3.51-3.31,1.75.03,3.15,1.48,3.11,3.23,0,.03,0,.05,0,.08h-6.62ZM70.97,52.26c0-7.83-3.21-12.24-10.43-12.24-5.82,0-9.63,4.72-9.63,10.53,0,6.72,4.42,10.53,10.23,10.53,4.11,0,8.03-2.01,9.43-6.32h-6.52c-.69.9-1.77,1.42-2.91,1.4-2.21,0-3.41-1.6-3.61-3.91h13.44Z" fill="#424d07" fill-rule="evenodd"/>
      <path id="Trazado_1142" d="M78.39,50.55c0-2.41.5-4.92,3.01-4.92s3.11,2.51,3.11,4.92-.6,4.92-3.11,4.92-3.01-2.61-3.01-4.92M71.67,67.01h6.92v-8.63h.1c1.07,1.73,2.98,2.76,5.02,2.71,6.12,0,7.73-5.72,7.73-10.44,0-5.02-2.41-10.63-7.62-10.63-3.41,0-4.51,1.4-5.42,2.71v-2.21h-6.72v26.49Z" fill="#424d07" fill-rule="evenodd"/>
      <path id="Trazado_1143" d="M88.33,63.49c-.05-.78.53-1.45,1.31-1.5.78-.05,1.45.53,1.5,1.31,0,.07,0,.13,0,.2,0,.78-.63,1.4-1.4,1.4s-1.4-.63-1.4-1.4M87.93,63.49c.04.96.84,1.72,1.81,1.7.93-.03,1.68-.77,1.71-1.7,0-.93-.74-1.7-1.68-1.71-.01,0-.02,0-.03,0-.95-.05-1.75.68-1.8,1.62,0,.03,0,.05,0,.08M89.03,64.49h.3v-.9h.4l.5.9h.4l-.6-.9c.3,0,.5-.2.5-.6,0-.3-.2-.5-.7-.5h-.8v2ZM89.33,62.69h.5c.2,0,.4.1.4.3,0,.3-.3.4-.5.4h-.4v-.7Z" fill="#424d07" fill-rule="evenodd"/>
    </g>
  </g>
</svg>