<?xml version="1.0" encoding="UTF-8"?>
<svg id="Capa_1" xmlns="http://www.w3.org/2000/svg" width="48" height="48" xmlns:xlink="http://www.w3.org/1999/xlink" viewBox="0 0 48 48">
  <defs>
    <clipPath id="clippath">
      <rect width="48" height="48" fill="none"/>
    </clipPath>
  </defs>
  <g clip-path="url(#clippath)">
    <g>
      <g id="Grupo_725">
        <path id="Trazado_1050" d="M7.97,43.09v1.29H3.97v-4.79c.42,0,2.58-.02,3.92-.02,1.93,0,3.72,0,4.98.02,1.82.01,3.55.09,3.55,1.7-.05.68-.54,1.25-1.2,1.41.08.08,1.82,1.68,1.82,1.68h-4.49l-1.3-1.29h-3.29ZM7.97,41.75h2.92c.33,0,1.29,0,1.29-.41s-.96-.4-1.28-.4h-2.93s0,.81,0,.81Z" fill="#fff"/>
        <path id="Trazado_1051" d="M37.63,41.32l1.16-1.72h5.24v4.79h-4v-2.8h-.16l-1.88,2.8h-.89l-1.88-2.8h-.16v2.8h-4v-4.79h5.23l1.15,1.72h.19Z" fill="#fff"/>
        <path id="Trazado_1052" d="M29.83,20.25l-3.45,2.37,1.7.66,2.15-.83-.4-2.21Z" fill="#fff"/>
        <path id="Trazado_1053" d="M26.26,25.15l1.82-1.87-1.7-.66-.12,2.53Z" fill="#fff"/>
        <path id="Trazado_1054" d="M39.26,14.4s-.04-.89-.12-1.76c-.11-1.28-.14-1.36-.62-1.91-.43-.48-.92-.89-1.47-1.22-.64-.47-1.45-.67-2.24-.55-1.69-.02-1.76,0-2.74.87-1.61,1.61-3.07,3.35-4.39,5.2.54.44,1.55,1.27,2.47,2.02.13-.32.29-.63.48-.92.82-1.33,1.73-2.59,2.74-3.77.55-.6.59-.62,1.72-.64.53-.09,1.06.08,1.45.44.67.48.69.55.76,1.68.12,1.84,0,5.92-.07,7.45v.02c.55-2.89,1.18-6.91,1.18-6.91l.84.04-.02-.05Z" fill="#fff"/>
        <path id="Trazado_1055" d="M37.33,13.85c-.08-1.13-.09-1.2-.76-1.68-.39-.37-.93-.53-1.45-.44-1.13.01-1.17.03-1.72.64-1.01,1.19-1.93,2.45-2.75,3.77-.19.29-.35.6-.48.92l3.34,2.72v-.03c.15-1.1.19-2.2.15-3.31.19-.28.35-.49.5-.68.32-.4.38-.44.67-.47.51-.06.56-.06.72.11.13.12.2.28.19.46.09,1.8.06,5.99-.09,7.23-.29,1.41-.82,2.77-1.55,4.02-.02.04-.03.08-.03.13h.05s1.74-1.89,2.17-2.51c.28-.37.47-.8.56-1.26.12-.51.26-1.24.42-2.06v-.1c.07-1.53.19-5.61.07-7.45" fill="#fff"/>
        <path id="Trazado_1056" d="M30.16,17.05h0c-.09.3-.15.62-.18.94-.14,1.13-.16,2.26-.16,2.26l2.11,3.58c.09-.31.15-.64.18-.96.04-.41.08-1.01.11-1.47.49-.49.92-1.04,1.27-1.63-.49-.4-2.47-2.02-3.34-2.72" fill="#fff"/>
        <path id="Trazado_1057" d="M26.24,26.53h-.03s-.22,5.3-.22,5.3l1.19,3.21c.35-1.22.63-2.46.82-3.72l-1.76-4.79Z" fill="#fff"/>
        <path id="Trazado_1058" d="M30.35,26.97c.49-.89.95-1.73,1.25-2.32.14-.26.25-.53.34-.81l-2.11-3.58.4,2.21-1.1,2.36,1.23,2.14Z" fill="#fff"/>
        <path id="Trazado_1059" d="M26.24,26.53l1.76,4.79c.09-.32,1.3-2.44,2.35-4.35l-1.23-2.14-2.89,1.71Z" fill="#fff"/>
        <path id="Trazado_1060" d="M42.05,11.55c-.16-3.13-.17-3.18-1.25-4.37-.86-.93-1.82-1.77-2.85-2.5-1.37-.91-1.42-.93-3.49-1.01-3.81-.13-3.84-.11-5.13.9-1.67,1.51-3.2,3.18-4.56,4.98.07.71.17,1.41.32,2.1,1.58-2.02,3.26-3.96,5.03-5.81,1.49-1.41,1.66-1.44,4.04-1.44,1.93,0,2.09.03,3.33.86,1.01.69,1.93,1.5,2.75,2.4,1.08,1.19,1.09,1.19,1.23,4.14.04.96.04,2.24.04,2.24v.06l.55-.23-.64,1.3s-.25,8.45-.33,9.16c-.23,1.96-.24,2.06-2.01,4.14l-.08.08c.86-.33,1.64-.85,2.27-1.52l.15-.2c.45-.77.51-1.55.63-3.57.08-1.32.09-9.96,0-11.71" fill="#fff"/>
        <path id="Trazado_1061" d="M37.81,25.3l2.94.82c.18-.58.29-1.18.33-1.79.08-.71.33-9.16.33-9.16l-1.83.27s-.68,6.02-1.4,8.8c-.08.37-.21.72-.37,1.06" fill="#fff"/>
        <path id="Trazado_1062" d="M37.81,25.3h0c-.17.29-.35.57-.56.84-.66.87-2.05,2.44-2.05,2.44l-.03.03c.11.04.22.06.33.06,1.17.06,2.33.02,3.49-.12l.08-.08c.68-.69,1.25-1.48,1.68-2.35l-2.94-.82Z" fill="#fff"/>
        <path id="Trazado_1063" d="M18.17,20.25l3.45,2.37-1.7.66-2.15-.83.4-2.21Z" fill="#fff"/>
        <path id="Trazado_1064" d="M21.73,25.15l-1.82-1.87,1.7-.66.12,2.53Z" fill="#fff"/>
        <path id="Trazado_1065" d="M8.74,14.4s.04-.89.12-1.76c.11-1.28.14-1.36.62-1.91.43-.48.92-.89,1.47-1.22.64-.47,1.45-.67,2.24-.55,1.69-.02,1.76,0,2.73.88,1.61,1.61,3.07,3.35,4.39,5.2-.54.44-1.55,1.27-2.47,2.02-.13-.32-.29-.63-.48-.92-.82-1.33-1.73-2.59-2.74-3.77-.55-.6-.59-.62-1.72-.64-.53-.09-1.07.08-1.46.44-.67.48-.69.55-.76,1.68-.12,1.84,0,5.92.07,7.45l-.02.02c-.53-2.89-1.17-6.91-1.17-6.91l-.84.04.02-.05Z" fill="#fff"/>
        <path id="Trazado_1066" d="M10.67,13.85c.07-1.13.09-1.2.76-1.68.39-.37.93-.53,1.45-.44,1.13.01,1.17.03,1.72.64,1.01,1.19,1.93,2.45,2.75,3.77.19.29.35.6.48.92l-3.34,2.72v-.03c-.15-1.1-.19-2.2-.15-3.31-.19-.28-.35-.49-.5-.68-.31-.4-.38-.44-.67-.47-.52-.06-.56-.06-.72.11-.13.12-.2.28-.19.46-.09,1.8-.06,5.99.09,7.23.29,1.41.82,2.77,1.55,4.02.02.04.03.08.03.13h-.05s-1.75-1.89-2.17-2.51c-.28-.37-.47-.8-.56-1.26-.12-.51-.26-1.24-.41-2.06v-.1c-.07-1.53-.19-5.61-.07-7.45" fill="#fff"/>
        <path id="Trazado_1067" d="M17.84,17.05h0c.09.3.15.62.18.94.14,1.13.15,2.26.15,2.26l-2.11,3.58c-.09-.31-.15-.64-.18-.96-.04-.41-.07-1.01-.11-1.47-.49-.49-.92-1.04-1.28-1.63.49-.4,2.47-2.02,3.34-2.72" fill="#fff"/>
        <path id="Trazado_1068" d="M25.08,11.66c-.14-.69-.25-1.39-.32-2.1h-1.53c-.07.71-.17,1.41-.32,2.1h0s2.18.01,2.18.01h0" fill="#fff"/>
        <path id="Trazado_1069" d="M25.99,31.83l-1.99.5-1.99-.5-1.19,3.21c.03.06.06.12.09.17.27.45.67.82,1.15,1.04.64.1,1.29.14,1.95.13.65.01,1.3-.03,1.95-.13.48-.23.88-.59,1.15-1.04.03-.05.06-.11.08-.17l-1.19-3.21Z" fill="#fff"/>
        <path id="Trazado_1070" d="M21.76,26.53h.03s.22,5.3.22,5.3l-1.19,3.21c-.35-1.22-.62-2.46-.82-3.72l1.76-4.79Z" fill="#fff"/>
        <path id="Trazado_1071" d="M17.64,26.97c-.49-.89-.95-1.73-1.25-2.32-.14-.26-.25-.53-.34-.81l2.11-3.58-.4,2.21,1.1,2.36-1.23,2.14Z" fill="#fff"/>
        <path id="Trazado_1072" d="M21.76,26.53l-1.76,4.79c-.1-.32-1.3-2.44-2.35-4.35l1.23-2.14,2.89,1.71Z" fill="#fff"/>
        <path id="Trazado_1073" d="M5.94,11.55c.16-3.13.17-3.18,1.25-4.37.86-.93,1.82-1.77,2.85-2.5,1.37-.91,1.42-.93,3.49-1.01,3.81-.13,3.84-.11,5.13.9,1.67,1.51,3.2,3.18,4.56,4.98-.07.71-.17,1.41-.32,2.1-1.58-2.02-3.26-3.96-5.04-5.81-1.49-1.4-1.66-1.43-4.03-1.43-1.93,0-2.09.03-3.33.86-1.01.69-1.93,1.5-2.76,2.4-1.08,1.19-1.09,1.19-1.23,4.14-.04.96-.04,2.24-.04,2.24v.06l-.55-.23.64,1.3s.26,8.45.34,9.16c.23,1.96.24,2.06,2.01,4.14l.08.08c-.86-.33-1.64-.85-2.28-1.52l-.15-.2c-.45-.77-.51-1.55-.63-3.57-.08-1.32-.09-9.96,0-11.71" fill="#fff"/>
        <path id="Trazado_1074" d="M10.19,25.3l-2.94.82c-.18-.58-.29-1.18-.32-1.79-.08-.71-.33-9.16-.33-9.16l1.83.27s.68,6.02,1.4,8.8c.08.37.21.72.38,1.06" fill="#fff"/>
        <path id="Trazado_1075" d="M10.19,25.3h0c.17.29.35.57.56.84.66.87,2.05,2.44,2.05,2.44l.03.03c-.11.04-.22.06-.33.06-1.17.06-2.33.02-3.49-.12l-.08-.08c-.68-.69-1.25-1.48-1.68-2.35l2.94-.82Z" fill="#fff"/>
      </g>
      <path id="Trazado_1049" d="M27.43,39.6h-6.68l-3.21,4.79h4.15l.65-1.07h3.49l.65,1.07h4.15l-3.21-4.79ZM23.8,40.94h.59l.63,1.03h-1.85l.63-1.03Z" fill="#fff"/>
    </g>
  </g>
</svg>