<?xml version="1.0" encoding="UTF-8"?>
<svg id="svg2" xmlns="http://www.w3.org/2000/svg" width="100" height="100" xmlns:xlink="http://www.w3.org/1999/xlink" viewBox="0 0 100 100">
  <defs>
    <clipPath id="clippath">
      <rect width="100" height="100" fill="none"/>
    </clipPath>
    <clipPath id="clippath-1">
      <rect x="-34.13" y="-61.72" width="168.26" height="223.44" fill="none"/>
    </clipPath>
    <linearGradient id="Degradado_sin_nombre" data-name="Degradado sin nombre" x1="-409.45" y1="356.41" x2="-409.26" y2="356.41" gradientTransform="translate(5695.87 -6652.34) rotate(-90) scale(16.37 -15.96)" gradientUnits="userSpaceOnUse">
      <stop offset="0" stop-color="#bcbec0"/>
      <stop offset=".7" stop-color="#939598"/>
      <stop offset=".7" stop-color="#939598"/>
      <stop offset="1" stop-color="#939598"/>
    </linearGradient>
    <linearGradient id="Degradado_sin_nombre_2" data-name="Degradado sin nombre 2" x1="-414.93" y1="350.36" x2="-414.74" y2="350.36" gradientTransform="translate(4419.4 -5310.65) rotate(-90) scale(12.92 -12.59)" gradientUnits="userSpaceOnUse">
      <stop offset="0" stop-color="#fff"/>
      <stop offset="1" stop-color="#bcbec0"/>
    </linearGradient>
    <clipPath id="clippath-2">
      <rect x="-34.13" y="-61.72" width="168.26" height="223.44" fill="none"/>
    </clipPath>
    <linearGradient id="Degradado_sin_nombre_3" data-name="Degradado sin nombre 3" x1="-409.45" y1="365.09" x2="-409.26" y2="365.09" gradientTransform="translate(5867.85 -6652.34) rotate(-90) scale(16.37 -15.96)" gradientUnits="userSpaceOnUse">
      <stop offset="0" stop-color="#bcbec0"/>
      <stop offset=".7" stop-color="#939598"/>
      <stop offset=".7" stop-color="#939598"/>
      <stop offset="1" stop-color="#939598"/>
    </linearGradient>
    <clipPath id="clippath-3">
      <rect x="-34.13" y="-61.72" width="168.26" height="223.44" fill="none"/>
    </clipPath>
    <linearGradient id="Degradado_sin_nombre_4" data-name="Degradado sin nombre 4" x1="-414.93" y1="361.36" x2="-414.74" y2="361.36" gradientTransform="translate(4591.38 -5310.65) rotate(-90) scale(12.92 -12.59)" gradientUnits="userSpaceOnUse">
      <stop offset="0" stop-color="#fff"/>
      <stop offset="1" stop-color="#bcbec0"/>
    </linearGradient>
    <clipPath id="clippath-4">
      <rect x="-34.13" y="-61.72" width="168.26" height="223.44" fill="none"/>
    </clipPath>
    <linearGradient id="Degradado_sin_nombre_5" data-name="Degradado sin nombre 5" x1="-413.51" y1="357.27" x2="-413.32" y2="357.27" gradientTransform="translate(4816.98 -5641.31) rotate(-90) scale(13.76 -13.41)" gradientUnits="userSpaceOnUse">
      <stop offset="0" stop-color="#fff"/>
      <stop offset="1" stop-color="#bcbec0"/>
    </linearGradient>
    <linearGradient id="Degradado_sin_nombre_6" data-name="Degradado sin nombre 6" x1="-412.23" y1="357.78" x2="-412.04" y2="357.78" gradientTransform="translate(4939.73 -5758.06) rotate(-90) scale(14.09 -13.73)" gradientUnits="userSpaceOnUse">
      <stop offset="0" stop-color="#bcbec0"/>
      <stop offset=".9" stop-color="#939598"/>
      <stop offset=".9" stop-color="#939598"/>
      <stop offset="1" stop-color="#939598"/>
    </linearGradient>
    <clipPath id="clippath-5">
      <rect x="-34.13" y="-61.72" width="168.26" height="223.44" fill="none"/>
    </clipPath>
    <linearGradient id="Degradado_sin_nombre_7" data-name="Degradado sin nombre 7" x1="-413.66" y1="367.55" x2="-413.46" y2="367.55" gradientTransform="translate(4948.87 -5597.42) rotate(-90) scale(13.65 -13.3)" gradientUnits="userSpaceOnUse">
      <stop offset="0" stop-color="#fff"/>
      <stop offset="1" stop-color="#bcbec0"/>
    </linearGradient>
    <linearGradient id="Degradado_sin_nombre_8" data-name="Degradado sin nombre 8" x1="-414.46" y1="366.67" x2="-414.27" y2="366.67" gradientTransform="translate(4607.01 -5223.37) rotate(-90) scale(12.73 -12.4)" gradientUnits="userSpaceOnUse">
      <stop offset="0" stop-color="#bcbec0"/>
      <stop offset=".9" stop-color="#939598"/>
      <stop offset=".9" stop-color="#939598"/>
      <stop offset="1" stop-color="#939598"/>
    </linearGradient>
    <clipPath id="clippath-6">
      <rect x="-34.13" y="-61.72" width="168.26" height="223.44" fill="none"/>
    </clipPath>
    <linearGradient id="Degradado_sin_nombre_9" data-name="Degradado sin nombre 9" x1="-412.25" y1="373.17" x2="-412.06" y2="373.17" gradientTransform="translate(5373.25 -5955.57) rotate(-90) scale(14.57 -14.19)" gradientUnits="userSpaceOnUse">
      <stop offset="0" stop-color="#fff"/>
      <stop offset="1" stop-color="#bcbec0"/>
    </linearGradient>
    <linearGradient id="Degradado_sin_nombre_10" data-name="Degradado sin nombre 10" x1="-416.1" y1="371.87" x2="-415.9" y2="371.87" gradientTransform="translate(4382.21 -4892.71) rotate(-90) scale(11.88 -11.58)" gradientUnits="userSpaceOnUse">
      <stop offset="0" stop-color="#bcbec0"/>
      <stop offset=".9" stop-color="#939598"/>
      <stop offset=".9" stop-color="#939598"/>
      <stop offset="1" stop-color="#939598"/>
    </linearGradient>
    <clipPath id="clippath-7">
      <rect x="-34.13" y="-61.72" width="168.26" height="223.44" fill="none"/>
    </clipPath>
  </defs>
  <g clip-path="url(#clippath)">
    <g id="g10">
      <g id="g3627">
        <g id="g12">
          <path id="path14" d="M72.96,56.8h5.8l11.32-13.61h-5.8l-11.32,13.61Z" fill="#cd3029"/>
        </g>
        <g id="g16">
          <path id="path18" d="M80.98,56.8h5.8l11.32-13.61h-5.8l-11.32,13.61Z" fill="#cd3029"/>
        </g>
        <g id="g20">
          <g clip-path="url(#clippath-1)">
            <g id="g22">
              <g id="g28">
                <path id="path30" d="M2.38,51.91c-.27,0-.49-.23-.49-.51v-4.6c0-.28.22-.51.49-.51l9.53.02c2.68,0,4.86,1.25,4.86,2.79s-2.18,2.79-4.86,2.79H2.38ZM10.55,50.61c1.38,0,2.49-.67,2.49-1.51s-1.12-1.51-2.49-1.51h-4.88c-.14-.01-.25.11-.25.26v2.48c0,.15.11.28.25.28,0,0,4.88,0,4.88,0Z" fill="#262626"/>
              </g>
              <g id="g32">
                <path id="path34" d="M2.41,51.88c-.27,0-.49-.23-.49-.51v-4.57c0-.28.22-.51.49-.51l9.48.02c2.67,0,4.84,1.24,4.84,2.77,0,1.53-2.17,2.77-4.84,2.77H2.41ZM10.55,50.62c1.39,0,2.51-.68,2.51-1.53,0-.85-1.13-1.53-2.51-1.53h-4.93c-.14-.01-.25.11-.25.27v2.52c0,.15.11.28.25.28h4.93Z" fill="#313131"/>
              </g>
              <g id="g36">
                <path id="path38" d="M2.43,51.85c-.27,0-.48-.22-.48-.5v-4.53c0-.28.22-.5.48-.5l9.43.02c2.66,0,4.81,1.23,4.81,2.75s-2.16,2.75-4.81,2.75H2.43ZM10.55,50.64c1.4,0,2.54-.7,2.54-1.55,0-.86-1.13-1.56-2.54-1.56l-4.97-.02c-.14,0-.26.13-.26.28v2.56c0,.16.11.28.25.28h4.97Z" fill="#3c3c3c"/>
              </g>
              <g id="g40">
                <path id="path42" d="M2.45,51.82c-.27,0-.48-.22-.48-.5v-4.49c0-.28.22-.5.48-.5l9.39.02c2.65,0,4.79,1.22,4.79,2.73s-2.14,2.73-4.79,2.73H2.45ZM10.55,50.65c1.41,0,2.56-.71,2.56-1.58,0-.87-1.14-1.58-2.56-1.58l-5.01-.02c-.14,0-.26.13-.26.29v2.6c0,.16.11.29.26.29,0,0,5.01,0,5.01,0Z" fill="#474747"/>
              </g>
              <g id="g44">
                <path id="path46" d="M2.47,51.79c-.27,0-.48-.22-.48-.49v-4.45c0-.27.21-.49.48-.49l9.34.02c2.63,0,4.77,1.21,4.77,2.7,0,1.49-2.13,2.7-4.77,2.7H2.47ZM10.55,50.66c1.43,0,2.58-.72,2.58-1.6,0-.89-1.15-1.6-2.58-1.61l-5.06-.02c-.14,0-.26.13-.26.29v2.64c0,.16.11.29.26.29,0,0,5.06,0,5.06,0Z" fill="#515151"/>
              </g>
              <g id="g48">
                <path id="path50" d="M2.5,51.76c-.26,0-.48-.22-.48-.49v-4.42c0-.27.21-.49.48-.49l9.29.02c2.62,0,4.74,1.2,4.74,2.68s-2.12,2.68-4.74,2.68H2.5ZM10.56,50.67c1.44,0,2.6-.73,2.61-1.63,0-.9-1.16-1.63-2.6-1.63l-5.1-.02c-.14,0-.26.13-.26.3v2.68c0,.16.11.3.26.3h5.1Z" fill="#5c5c5c"/>
              </g>
              <g id="g52">
                <path id="path54" d="M2.52,51.73c-.26,0-.48-.22-.48-.49v-4.38c0-.27.21-.49.48-.49l9.25.02c2.61,0,4.72,1.19,4.72,2.66s-2.11,2.66-4.72,2.66H2.52ZM10.56,50.68c1.45,0,2.63-.74,2.63-1.65,0-.91-1.17-1.65-2.62-1.66l-5.15-.02c-.15,0-.26.14-.27.3v2.72c0,.17.12.3.26.3h5.15Z" fill="#676767"/>
              </g>
              <g id="g56">
                <path id="path58" d="M2.54,51.7c-.26,0-.47-.22-.47-.48v-4.34c0-.27.21-.48.47-.48l9.2.02c2.59,0,4.69,1.18,4.69,2.64s-2.1,2.63-4.69,2.63H2.54ZM10.56,50.69c1.46,0,2.65-.75,2.65-1.67,0-.93-1.18-1.68-2.65-1.68l-5.19-.02c-.15,0-.27.14-.27.31v2.76c0,.17.12.31.26.31h5.19Z" fill="#727272"/>
              </g>
              <g id="g60">
                <path id="path62" d="M2.56,51.67c-.26,0-.47-.21-.47-.48v-4.31c0-.26.21-.48.47-.48l9.15.02c2.58,0,4.67,1.17,4.67,2.61s-2.09,2.61-4.67,2.61H2.56ZM10.56,50.71c1.48,0,2.67-.76,2.67-1.7,0-.94-1.19-1.7-2.67-1.71l-5.24-.02c-.15,0-.27.14-.27.31v2.8c0,.17.12.31.26.31h5.23Z" fill="#7c7c7c"/>
              </g>
              <g id="g64">
                <path id="path66" d="M2.58,51.64c-.26,0-.47-.21-.47-.47v-4.27c0-.26.21-.47.47-.47l9.11.02c2.57,0,4.65,1.16,4.65,2.59s-2.08,2.59-4.65,2.59H2.58ZM10.56,50.72c1.49,0,2.7-.77,2.7-1.72,0-.95-1.2-1.73-2.69-1.73l-5.28-.02c-.15,0-.27.14-.27.32v2.84c0,.17.12.32.27.32h5.28Z" fill="#878787"/>
              </g>
              <g id="g68">
                <path id="path70" d="M2.61,51.61c-.26,0-.47-.21-.47-.47v-4.23c0-.26.21-.47.47-.47l9.06.02c2.55,0,4.62,1.15,4.62,2.57s-2.07,2.57-4.62,2.57H2.61ZM10.56,50.73c1.5,0,2.72-.78,2.72-1.74,0-.97-1.21-1.75-2.71-1.76l-5.32-.03c-.15,0-.27.14-.27.32v2.88c0,.18.12.32.27.32h5.32Z" fill="#929292"/>
              </g>
              <g id="g72">
                <path id="path74" d="M2.63,51.58c-.26,0-.46-.21-.46-.46v-4.19c0-.26.21-.46.46-.46l9.01.02c2.54,0,4.6,1.14,4.6,2.54s-2.06,2.54-4.6,2.54H2.63ZM10.56,50.74c1.51,0,2.74-.79,2.74-1.77,0-.98-1.22-1.78-2.73-1.78l-5.37-.03c-.15,0-.28.14-.28.32v2.92c0,.18.12.33.27.33h5.37Z" fill="#9d9d9d"/>
              </g>
              <g id="g76">
                <path id="path78" d="M2.65,51.55c-.25,0-.46-.21-.46-.46v-4.16c0-.25.21-.46.46-.46l8.97.02c2.53,0,4.58,1.13,4.58,2.52s-2.05,2.52-4.58,2.52H2.65ZM10.56,50.75c1.52,0,2.76-.8,2.76-1.79,0-.99-1.23-1.8-2.76-1.8l-5.41-.03c-.15,0-.28.15-.28.33v2.97c0,.18.12.33.27.33h5.41Z" fill="#a8a8a8"/>
              </g>
              <g id="g80">
                <path id="path82" d="M2.67,51.52c-.25,0-.46-.2-.46-.46v-4.12c0-.25.21-.46.46-.46l8.92.02c2.51,0,4.55,1.12,4.55,2.5s-2.04,2.5-4.55,2.5H2.67ZM10.56,50.76c1.54,0,2.79-.81,2.79-1.82,0-1.01-1.24-1.83-2.78-1.83l-5.45-.03c-.16,0-.28.15-.28.33v3.01c0,.18.12.33.27.33h5.45Z" fill="#b3b3b3"/>
              </g>
            </g>
          </g>
        </g>
        <g id="g84">
          <g id="g86">
            <g id="g92">
              <g id="g94">
                <path id="path106" d="M2.34,49.24c-.04.57-.08,1.11-.08,1.67h0c0,.55.12.69.5.7h0c.4,0,3.21.02,5.26-.01h0c.57,0,1.12,0,1.65,0h0c1.83.01,3.41.03,4.62-.49h0c1.34-.57,1.84-1.53,1.88-1.79h0c.04-.25.06-.72-.08-.72h0c-.14,0-2.23.36-2.4.37h0c-.11,0-.15.27-.15.27h0c-.27,1.37-1.74,1.83-2.09,1.84h0c-.43.01-5.41,0-5.78,0h0c-.37,0-.78-.12-.78-.5h0c0-.38-.05-1.04-.07-1.33h0c0-.11-.06-.39-.03-.77h0c-.06.33-.23.56-.41.56h-1.55c-.4,0-.4-.15-.47-.6h0c0,.18,0,.6-.01.81" fill="url(#Degradado_sin_nombre)"/>
              </g>
            </g>
          </g>
        </g>
        <g id="g108">
          <g id="g110">
            <g id="g116">
              <g id="g118">
                <path id="path126" d="M2.72,46.57c-.23.01-.52-.02-.5.34h0c.01.36.11,1.77.13,2.14h2.42c.05-.19.09-1.17.09-1.31h0c0-.14-.05-.65.59-.64h0c.63.01,3.93.01,4.69.01h0c.76,0,3.44.23,3.44,1.96h2.63c0-.4-.06-.68-.24-.9h0c-.28-.36-1.11-1.27-3.7-1.53h0c-.55-.06-5.19-.08-7.89-.08h0c-.73,0-1.32,0-1.65,0" fill="url(#Degradado_sin_nombre_2)"/>
              </g>
            </g>
          </g>
        </g>
        <g id="g128">
          <g clip-path="url(#clippath-2)">
            <g id="g130">
              <g id="g136">
                <path id="path138" d="M4.83,50.93c0,.19.04.32.32.32.53,0,4.34,0,5.16,0s1.84.02,2.81-.96c.37-.37.07-.39-.22-.17-.29.22-.77.75-2.57.75s-3.73,0-4.83,0c-.21,0-.27-.13-.33-.19-.05-.06-.34-.11-.34.25" fill="#fff"/>
              </g>
              <g id="g140">
                <path id="path142" d="M35.86,51.91c-.27,0-.49-.23-.49-.51v-4.6c0-.28.22-.51.49-.51l9.53.02c2.68,0,4.86,1.25,4.86,2.79s-2.18,2.79-4.86,2.79h-9.53ZM44.03,50.61c1.38,0,2.49-.67,2.49-1.51s-1.12-1.51-2.49-1.51h-4.88c-.14-.01-.25.11-.25.26v2.48c0,.15.11.28.25.28,0,0,4.88,0,4.88,0Z" fill="#262626"/>
              </g>
              <g id="g144">
                <path id="path146" d="M35.89,51.88c-.27,0-.49-.23-.49-.51v-4.57c0-.28.22-.51.49-.51l9.48.02c2.67,0,4.84,1.24,4.84,2.77s-2.17,2.77-4.84,2.77h-9.48ZM44.03,50.62c1.39,0,2.51-.68,2.51-1.53,0-.85-1.13-1.53-2.51-1.53h-4.93c-.14-.01-.25.11-.25.27v2.52c0,.15.11.28.25.28h4.93Z" fill="#313131"/>
              </g>
              <g id="g148">
                <path id="path150" d="M35.91,51.85c-.27,0-.48-.22-.48-.5v-4.53c0-.28.22-.5.48-.5l9.43.02c2.66,0,4.81,1.23,4.81,2.75s-2.16,2.75-4.81,2.75h-9.43ZM44.03,50.64c1.4,0,2.54-.7,2.54-1.55,0-.86-1.14-1.56-2.54-1.56l-4.97-.02c-.14,0-.26.13-.26.28v2.56c0,.16.11.28.25.28h4.97Z" fill="#3c3c3c"/>
              </g>
              <g id="g152">
                <path id="path154" d="M35.93,51.82c-.27,0-.48-.22-.48-.5v-4.49c0-.28.22-.5.48-.5l9.39.02c2.65,0,4.79,1.22,4.79,2.73s-2.14,2.73-4.79,2.73h-9.39ZM44.03,50.65c1.41,0,2.56-.71,2.56-1.58,0-.87-1.14-1.58-2.56-1.58l-5.02-.02c-.14,0-.26.13-.26.29v2.6c0,.16.11.29.26.29h5.02Z" fill="#474747"/>
              </g>
              <g id="g156">
                <path id="path158" d="M35.95,51.79c-.26,0-.48-.22-.48-.49v-4.45c0-.27.22-.49.48-.49l9.34.02c2.63,0,4.77,1.21,4.77,2.7,0,1.49-2.13,2.7-4.77,2.7h-9.34ZM44.03,50.66c1.43,0,2.58-.72,2.58-1.6,0-.89-1.15-1.6-2.58-1.61l-5.06-.02c-.14,0-.26.13-.26.29v2.64c0,.16.11.29.26.29,0,0,5.06,0,5.06,0Z" fill="#515151"/>
              </g>
              <g id="g160">
                <path id="path162" d="M35.97,51.76c-.26,0-.48-.22-.48-.49v-4.42c0-.27.21-.49.48-.49l9.29.02c2.62,0,4.74,1.2,4.74,2.68s-2.12,2.68-4.74,2.68h-9.29ZM44.03,50.67c1.44,0,2.6-.73,2.61-1.63,0-.9-1.16-1.63-2.6-1.63l-5.1-.02c-.14,0-.26.13-.26.3v2.68c0,.16.11.3.26.3,0,0,5.1,0,5.1,0Z" fill="#5c5c5c"/>
              </g>
              <g id="g164">
                <path id="path166" d="M36,51.73c-.26,0-.48-.22-.48-.49v-4.38c0-.27.21-.49.48-.49l9.25.02c2.61,0,4.72,1.19,4.72,2.66s-2.11,2.66-4.72,2.66h-9.25ZM44.04,50.68c1.45,0,2.63-.74,2.63-1.65,0-.91-1.17-1.65-2.62-1.66l-5.15-.02c-.15,0-.27.14-.27.3v2.72c0,.17.11.3.26.3h5.15Z" fill="#676767"/>
              </g>
              <g id="g168">
                <path id="path170" d="M36.02,51.7c-.26,0-.47-.22-.47-.48v-4.34c0-.27.21-.48.47-.48l9.2.02c2.59,0,4.69,1.18,4.69,2.64s-2.1,2.63-4.69,2.63h-9.2ZM44.04,50.69c1.46,0,2.65-.75,2.65-1.67,0-.93-1.18-1.68-2.65-1.68l-5.19-.02c-.15,0-.27.14-.27.31v2.76c0,.17.12.31.26.31h5.19Z" fill="#727272"/>
              </g>
              <g id="g172">
                <path id="path174" d="M36.04,51.67c-.26,0-.47-.21-.47-.48v-4.31c0-.26.21-.48.47-.48l9.15.02c2.58,0,4.67,1.17,4.67,2.61s-2.09,2.61-4.67,2.61h-9.15ZM44.04,50.71c1.48,0,2.67-.76,2.67-1.7,0-.94-1.19-1.7-2.67-1.71l-5.24-.02c-.15,0-.27.14-.27.31v2.8c0,.17.12.31.26.31,0,0,5.24,0,5.24,0Z" fill="#7c7c7c"/>
              </g>
              <g id="g176">
                <path id="path178" d="M36.06,51.64c-.26,0-.47-.21-.47-.47v-4.27c0-.26.21-.47.47-.47l9.11.02c2.57,0,4.65,1.16,4.65,2.59s-2.08,2.59-4.65,2.59h-9.11ZM44.04,50.72c1.49,0,2.69-.77,2.7-1.72,0-.95-1.2-1.73-2.69-1.73l-5.28-.02c-.15,0-.27.14-.27.32v2.84c0,.17.12.32.27.32h5.28Z" fill="#878787"/>
              </g>
              <g id="g180">
                <path id="path182" d="M36.09,51.61c-.26,0-.47-.21-.47-.47v-4.23c0-.26.21-.47.47-.47l9.06.02c2.55,0,4.62,1.15,4.62,2.57s-2.07,2.57-4.62,2.57h-9.06ZM44.04,50.73c1.5,0,2.72-.78,2.72-1.74,0-.97-1.21-1.75-2.71-1.76l-5.32-.03c-.15,0-.27.14-.27.32v2.88c0,.18.12.32.27.32h5.32Z" fill="#929292"/>
              </g>
              <g id="g184">
                <path id="path186" d="M36.11,51.58c-.26,0-.46-.21-.46-.46v-4.19c0-.26.21-.46.46-.46l9.01.02c2.54,0,4.6,1.14,4.6,2.54s-2.06,2.54-4.6,2.54h-9.01ZM44.04,50.74c1.51,0,2.74-.79,2.74-1.77,0-.98-1.22-1.78-2.73-1.78l-5.37-.03c-.15,0-.28.14-.28.32v2.92c0,.18.12.33.27.33h5.37Z" fill="#9d9d9d"/>
              </g>
              <g id="g188">
                <path id="path190" d="M36.13,51.55c-.25,0-.46-.21-.46-.46v-4.16c0-.25.21-.46.46-.46l8.97.02c2.53,0,4.58,1.13,4.58,2.52s-2.05,2.52-4.58,2.52h-8.97ZM44.04,50.75c1.52,0,2.76-.8,2.76-1.79,0-.99-1.23-1.8-2.76-1.8l-5.41-.03c-.15,0-.28.15-.28.33v2.97c0,.18.12.33.27.33h5.41Z" fill="#a8a8a8"/>
              </g>
              <g id="g192">
                <path id="path194" d="M36.15,51.52c-.25,0-.46-.2-.46-.46v-4.12c0-.25.21-.46.46-.46l8.92.02c2.51,0,4.55,1.12,4.55,2.5s-2.04,2.5-4.55,2.5h-8.92ZM44.04,50.76c1.54,0,2.79-.81,2.79-1.82,0-1.01-1.24-1.83-2.78-1.83l-5.45-.03c-.16,0-.28.15-.28.33v3.01c0,.18.12.33.27.33h5.45Z" fill="#b3b3b3"/>
              </g>
            </g>
          </g>
        </g>
        <g id="g196">
          <g id="g198">
            <g id="g204">
              <g id="g206">
                <path id="path218" d="M35.76,49.24c-.04.57-.08,1.11-.08,1.67h0c0,.55.12.69.5.7h0c.4,0,3.21.02,5.26-.01h0c.57,0,1.12,0,1.65,0h0c1.83.01,3.41.03,4.62-.49h0c1.34-.57,1.84-1.53,1.88-1.79h0c.04-.25.06-.72-.08-.72h0c-.14,0-2.23.36-2.4.37h0c-.11,0-.15.27-.15.27h0c-.27,1.37-1.74,1.83-2.1,1.84h0c-.43.01-5.41,0-5.79,0h0c-.37,0-.78-.12-.78-.5h0c0-.38-.05-1.04-.07-1.33h0c0-.11-.06-.39-.03-.77h0c-.06.33-.23.56-.41.56h-1.55c-.4,0-.4-.15-.47-.6h0c0,.18,0,.6-.01.81" fill="url(#Degradado_sin_nombre_3)"/>
              </g>
            </g>
          </g>
        </g>
        <g id="g220">
          <g clip-path="url(#clippath-3)">
            <g id="g222">
              <g id="g228">
                <path id="path230" d="M38.32,50.93c0,.19.04.32.32.32.53,0,4.34,0,5.16,0s1.84.02,2.81-.96c.36-.37.07-.39-.22-.17-.29.22-.77.75-2.57.75s-3.73,0-4.83,0c-.21,0-.27-.13-.33-.19-.05-.06-.34-.11-.34.25" fill="#fff"/>
              </g>
            </g>
          </g>
        </g>
        <g id="g232">
          <g id="g234">
            <g id="g240">
              <g id="g242">
                <path id="path250" d="M36.15,46.57c-.23.01-.52-.02-.5.34h0c.01.36.11,1.77.13,2.14h2.42c.05-.19.09-1.17.09-1.31h0c0-.14-.05-.65.59-.64h0c.63.01,3.93.01,4.69.01h0c.76,0,3.44.23,3.44,1.96h2.63c0-.4-.06-.68-.24-.9h0c-.28-.36-1.11-1.27-3.7-1.53h0c-.55-.06-5.19-.08-7.89-.08h0c-.73,0-1.32,0-1.65,0" fill="url(#Degradado_sin_nombre_4)"/>
              </g>
            </g>
          </g>
        </g>
        <g id="g252">
          <g clip-path="url(#clippath-4)">
            <g id="g254">
              <g id="g260">
                <path id="path262" d="M24.16,52.04c-3.36-.11-6.09-1.31-6.09-2.92s2.73-2.82,6.09-2.92c.62-.02,1.28-.04,1.91-.04s1.29.02,1.91.04c3.36.1,6.09,1.31,6.09,2.92s-2.73,2.81-6.09,2.92c-.56.02-1.12.04-1.91.04s-1.35-.02-1.91-.04M26.07,50.78c.43,0,.73-.01,1.04-.02,1.83-.06,3.31-.73,3.31-1.64s-1.48-1.58-3.31-1.64c-.34-.01-.7-.02-1.04-.02s-.7.01-1.04.02c-1.83.06-3.31.73-3.31,1.64s1.48,1.58,3.31,1.64c.31.01.61.02,1.04.02" fill="#262626"/>
              </g>
              <g id="g264">
                <path id="path266" d="M24.16,52.01c-3.34-.11-6.06-1.3-6.06-2.9s2.71-2.79,6.06-2.9c.62-.02,1.28-.04,1.9-.04s1.28.02,1.9.04c3.34.1,6.06,1.3,6.06,2.9s-2.71,2.78-6.06,2.9c-.56.02-1.12.04-1.9.04s-1.34-.02-1.9-.04M26.07,50.8c.43,0,.74-.01,1.05-.02,1.85-.06,3.34-.75,3.34-1.67s-1.5-1.61-3.34-1.67c-.34-.01-.7-.02-1.05-.02s-.71.01-1.05.02c-1.85.06-3.34.75-3.34,1.67s1.5,1.6,3.34,1.67c.31.01.62.02,1.05.02" fill="#313131"/>
              </g>
              <g id="g268">
                <path id="path270" d="M24.15,51.98c-3.33-.11-6.03-1.29-6.03-2.87s2.7-2.77,6.03-2.87c.61-.02,1.27-.04,1.89-.04s1.28.02,1.89.04c3.33.1,6.03,1.29,6.03,2.87s-2.7,2.76-6.03,2.87c-.56.02-1.11.04-1.89.04s-1.33-.02-1.89-.04M26.06,50.81c.44,0,.75-.01,1.06-.02,1.86-.06,3.37-.76,3.37-1.69s-1.51-1.63-3.37-1.69c-.34-.01-.71-.02-1.06-.02s-.72.01-1.06.02c-1.86.06-3.37.76-3.37,1.69s1.51,1.63,3.37,1.69c.31.01.62.02,1.06.02" fill="#3c3c3c"/>
              </g>
              <g id="g272">
                <path id="path274" d="M24.15,51.95c-3.31-.11-5.99-1.28-5.99-2.85s2.69-2.75,5.99-2.85c.61-.02,1.26-.04,1.88-.04s1.27.02,1.88.04c3.31.1,5.99,1.28,5.99,2.85s-2.69,2.74-5.99,2.85c-.56.02-1.1.04-1.88.04s-1.32-.02-1.88-.04M26.05,50.83c.44,0,.75-.01,1.07-.02,1.88-.06,3.4-.77,3.4-1.72s-1.52-1.66-3.4-1.72c-.35-.01-.72-.02-1.07-.02s-.72.01-1.07.02c-1.88.06-3.4.77-3.4,1.72s1.52,1.65,3.4,1.72c.32.01.63.02,1.07.02" fill="#474747"/>
              </g>
              <g id="g276">
                <path id="path278" d="M24.14,51.92c-3.29-.11-5.96-1.27-5.96-2.83s2.67-2.73,5.96-2.83c.61-.02,1.26-.04,1.87-.04s1.26.02,1.87.04c3.29.1,5.96,1.27,5.96,2.83s-2.67,2.72-5.96,2.83c-.55.02-1.1.04-1.87.04s-1.32-.02-1.87-.04M26.04,50.84c.45,0,.76-.01,1.08-.02,1.89-.07,3.43-.78,3.43-1.74s-1.54-1.68-3.43-1.74c-.35-.01-.72-.02-1.08-.02s-.73.01-1.08.02c-1.89.06-3.43.78-3.43,1.74s1.54,1.68,3.43,1.74c.32.01.63.02,1.08.02" fill="#515151"/>
              </g>
              <g id="g280">
                <path id="path282" d="M24.14,51.89c-3.27-.11-5.93-1.26-5.93-2.81s2.66-2.71,5.93-2.81c.6-.02,1.25-.04,1.86-.04s1.26.02,1.86.04c3.27.1,5.93,1.26,5.93,2.81s-2.66,2.7-5.93,2.81c-.55.02-1.09.04-1.86.04s-1.31-.02-1.86-.04M26.04,50.86c.45,0,.76-.01,1.09-.02,1.91-.07,3.46-.79,3.46-1.77s-1.55-1.71-3.46-1.77c-.35-.01-.73-.02-1.09-.02s-.73.01-1.09.02c-1.91.06-3.46.79-3.46,1.77s1.55,1.7,3.46,1.77c.32.01.64.02,1.09.02" fill="#5c5c5c"/>
              </g>
              <g id="g284">
                <path id="path286" d="M24.13,51.87c-3.26-.11-5.9-1.25-5.9-2.78s2.64-2.69,5.9-2.78c.6-.02,1.24-.04,1.85-.04s1.25.02,1.85.04c3.26.1,5.9,1.25,5.9,2.78s-2.64,2.68-5.9,2.78c-.55.02-1.09.04-1.85.04s-1.3-.02-1.85-.04M26.03,50.87c.45,0,.77-.01,1.1-.02,1.93-.07,3.49-.8,3.49-1.79s-1.56-1.73-3.49-1.79c-.35-.01-.74-.02-1.1-.02s-.74.01-1.1.02c-1.93.06-3.49.8-3.49,1.79s1.56,1.72,3.49,1.79c.32.01.64.02,1.1.02" fill="#676767"/>
              </g>
              <g id="g288">
                <path id="path290" d="M24.13,51.84c-3.24-.11-5.87-1.24-5.87-2.76s2.63-2.67,5.87-2.76c.6-.02,1.24-.04,1.84-.04s1.24.02,1.84.04c3.24.1,5.87,1.24,5.87,2.76s-2.63,2.66-5.87,2.76c-.54.02-1.08.04-1.84.04s-1.3-.02-1.84-.04M26.02,50.89c.46,0,.78-.01,1.1-.02,1.94-.07,3.52-.81,3.52-1.82s-1.58-1.75-3.52-1.82c-.36-.01-.74-.02-1.1-.02s-.75.01-1.1.02c-1.94.06-3.52.81-3.52,1.82s1.58,1.75,3.52,1.82c.33.01.65.02,1.1.02" fill="#727272"/>
              </g>
              <g id="g292">
                <path id="path294" d="M24.12,51.81c-3.22-.1-5.83-1.23-5.83-2.74s2.61-2.64,5.83-2.74c.59-.02,1.23-.03,1.83-.03s1.24.02,1.83.03c3.22.1,5.83,1.23,5.83,2.74s-2.61,2.64-5.83,2.74c-.54.02-1.07.04-1.83.04s-1.29-.02-1.83-.04M26.02,50.9c.46,0,.78-.01,1.11-.02,1.96-.07,3.55-.83,3.55-1.84s-1.59-1.78-3.55-1.84c-.36-.01-.75-.02-1.11-.02s-.75.01-1.11.02c-1.96.06-3.55.83-3.55,1.84s1.59,1.77,3.55,1.84c.33.01.65.02,1.11.02" fill="#7c7c7c"/>
              </g>
              <g id="g296">
                <path id="path298" d="M24.11,51.78c-3.2-.1-5.8-1.22-5.8-2.72s2.6-2.62,5.8-2.72c.59-.02,1.22-.03,1.82-.03s1.23.02,1.82.03c3.2.09,5.8,1.22,5.8,2.72s-2.6,2.61-5.8,2.72c-.54.02-1.07.03-1.82.03s-1.28-.02-1.82-.03M26.01,50.92c.46,0,.79-.01,1.12-.02,1.98-.07,3.58-.84,3.58-1.87s-1.6-1.8-3.58-1.87c-.36-.01-.75-.02-1.12-.02s-.76.01-1.12.02c-1.98.06-3.58.84-3.58,1.87s1.6,1.8,3.58,1.87c.33.01.66.02,1.12.02" fill="#878787"/>
              </g>
              <g id="g300">
                <path id="path302" d="M24.11,51.75c-3.19-.1-5.77-1.21-5.77-2.7s2.59-2.6,5.77-2.7c.59-.02,1.22-.03,1.81-.03s1.22.02,1.81.03c3.19.09,5.77,1.21,5.77,2.7s-2.59,2.59-5.77,2.7c-.54.02-1.06.03-1.81.03s-1.27-.02-1.81-.03M26,50.94c.47,0,.8-.01,1.13-.02,1.99-.07,3.61-.85,3.61-1.89s-1.62-1.83-3.61-1.89c-.37-.01-.76-.02-1.13-.02s-.77.01-1.13.02c-1.99.07-3.61.85-3.61,1.89s1.62,1.82,3.61,1.89c.33.01.66.02,1.13.02" fill="#929292"/>
              </g>
              <g id="g304">
                <path id="path306" d="M24.1,51.72c-3.17-.1-5.74-1.2-5.74-2.67s2.57-2.58,5.74-2.67c.58-.02,1.21-.03,1.8-.03s1.22.02,1.8.03c3.17.09,5.74,1.2,5.74,2.67s-2.57,2.57-5.74,2.67c-.53.02-1.06.03-1.8.03s-1.27-.02-1.8-.03M25.99,50.95c.47,0,.8-.01,1.14-.02,2.01-.07,3.64-.86,3.64-1.92s-1.63-1.85-3.64-1.92c-.37-.01-.77-.02-1.14-.02s-.77.01-1.14.02c-2.01.07-3.64.86-3.64,1.92s1.63,1.85,3.64,1.92c.34.01.67.02,1.14.02" fill="#9d9d9d"/>
              </g>
              <g id="g308">
                <path id="path310" d="M24.1,51.69c-3.15-.1-5.71-1.19-5.71-2.65s2.56-2.56,5.71-2.65c.58-.02,1.2-.03,1.79-.03s1.21.02,1.79.03c3.15.09,5.71,1.19,5.71,2.65s-2.56,2.55-5.71,2.65c-.53.02-1.05.03-1.79.03s-1.26-.02-1.79-.03M25.99,50.97c.48,0,.81-.01,1.15-.03,2.02-.07,3.67-.87,3.67-1.94s-1.64-1.88-3.67-1.94c-.37-.01-.77-.03-1.15-.03s-.78.01-1.15.03c-2.02.07-3.67.87-3.67,1.94s1.64,1.87,3.67,1.94c.34.01.68.03,1.15.03" fill="#a8a8a8"/>
              </g>
              <g id="g312">
                <path id="path314" d="M24.09,51.66c-3.13-.1-5.68-1.18-5.68-2.63s2.54-2.54,5.68-2.63c.58-.02,1.2-.03,1.78-.03s1.2.02,1.78.03c3.13.09,5.68,1.18,5.68,2.63s-2.54,2.53-5.68,2.63c-.53.02-1.04.03-1.78.03s-1.25-.02-1.78-.03M25.98,50.98c.48,0,.82-.01,1.16-.03,2.04-.07,3.7-.88,3.7-1.97s-1.66-1.9-3.7-1.97c-.38-.01-.78-.03-1.16-.03s-.78.01-1.16.03c-2.04.07-3.7.88-3.7,1.97s1.66,1.9,3.7,1.97c.34.01.68.03,1.16.03" fill="#b3b3b3"/>
              </g>
            </g>
          </g>
        </g>
        <g id="g316">
          <g id="g318">
            <g id="g324">
              <g id="g326">
                <path id="path334" d="M21.7,46.8c-1.82.37-2.6,1.02-2.92,1.35h0c-.32.33-.41.75-.33.97h2.51c.08-.65.41-1.11,1.32-1.59h0c.92-.48,2.4-.5,3.52-.5h0c1.11,0,2.04,0,3.34.34h0c1.51.4,1.75,1.35,1.79,1.74h2.4s.07-.33-.07-.64h0c-.18-.41-.52-.97-2.19-1.48h0c-1.67-.51-3.35-.54-5.25-.54h0c-.25,0-.48,0-.68,0h0c-1.35,0-1.86.02-3.44.35" fill="url(#Degradado_sin_nombre_5)"/>
              </g>
            </g>
          </g>
        </g>
        <g id="g336">
          <g id="g338">
            <g id="g344">
              <g id="g346">
                <path id="path358" d="M18.43,49.02c0,2.35,5.19,2.74,6.85,2.74h0c1.67,0,2.95.01,4.58-.27h0c2.77-.49,3.38-1.79,3.47-2.41h-2.39c-.05.72-.55,1.6-2.06,1.98h0c-1.51.38-5.86.13-6.7-.29h0c-.84-.42-1.16-1.4-1.19-1.75h-2.56Z" fill="url(#Degradado_sin_nombre_6)"/>
              </g>
            </g>
          </g>
        </g>
        <g id="g360">
          <g clip-path="url(#clippath-5)">
            <g id="g362">
              <g id="g368">
                <path id="path370" d="M26.01,51.45c3.57,0,4.55-.99,4.82-1.78,0-.09-.07-.16-.15-.16s-.12.08-.15.16c-.06.15-.47,1.42-4.52,1.42s-4.45-1.27-4.52-1.42c-.03-.08-.07-.16-.15-.16s-.15.08-.15.16c.27.8,1.25,1.78,4.82,1.78" fill="#fff"/>
              </g>
              <g id="g372">
                <path id="path374" d="M67.25,46.58c0-.16-.12-.29-.26-.29h-7.82c-.57,0-1.18-.02-1.75,0-3.08.1-5.57,1.26-5.57,2.82s1.42,2.79,5.57,2.82c.38,0,1.45,0,1.75,0h7.55c.27,0,.49-.23.49-.51v-2.3c0-.28-.22-.51-.49-.51h-7.57c-.14,0-.26.13-.26.29v.67c0,.16.12.29.26.29h4.24c.14,0,.26.13.26.3v.34c0,.16-.12.29-.26.29h-4.16c-.37,0-.64-.01-.9-.02-1.59-.06-2.88-.71-2.88-1.65s1.29-1.41,2.88-1.47c.29-.01.61-.02.9-.02h7.75c.14,0,.26-.19.26-.36v-.68Z" fill="#262626"/>
              </g>
              <g id="g376">
                <path id="path378" d="M51.88,49.11c0,1.54,1.41,2.75,5.54,2.78.38,0,1.43,0,1.74,0h7.51c.27,0,.49-.22.49-.5v-2.25c0-.28-.22-.5-.49-.5h-7.49c-.14,0-.26.13-.26.29v.63c0,.16.12.29.26.29h4.24c.14,0,.26.13.26.29v.38c0,.16-.12.29-.26.29h-4.19c-.36,0-.63-.01-.88-.02-1.62-.06-2.91-.75-2.91-1.67s1.31-1.44,2.89-1.49c.29-.01.6-.02.9-.02h7.71c.14,0,.26-.19.26-.35v-.63c0-.16-.12-.29-.26-.29h-7.77c-.57,0-1.17-.01-1.74,0-3.07.1-5.54,1.27-5.54,2.79" fill="#313131"/>
              </g>
              <g id="g380">
                <path id="path382" d="M51.9,49.1c0,1.52,1.4,2.71,5.51,2.74.39,0,1.4,0,1.73,0h7.47c.27,0,.49-.22.49-.5v-2.21c0-.27-.22-.5-.49-.5h-7.42c-.14,0-.26.13-.26.28v.59c0,.16.12.29.26.29h4.24c.14,0,.26.13.26.29v.43c0,.16-.12.29-.26.29h-4.23c-.34,0-.62-.01-.86-.02-1.66-.06-2.94-.78-2.94-1.7s1.33-1.46,2.9-1.52c.29-.01.6-.02.89-.02h7.67c.14,0,.26-.18.26-.34v-.59c0-.16-.12-.29-.26-.29h-7.73c-.57,0-1.16-.01-1.73,0-3.05.09-5.51,1.28-5.51,2.76" fill="#3c3c3c"/>
              </g>
              <g id="g384">
                <path id="path386" d="M51.93,49.1c0,1.5,1.39,2.67,5.48,2.7.4,0,1.38,0,1.72,0h7.43c.27,0,.49-.22.49-.49v-2.16c0-.27-.22-.49-.49-.49h-7.35c-.14,0-.26.13-.26.28v.55c0,.16.12.28.26.28h4.24c.14,0,.26.13.26.29v.48c0,.16-.12.28-.26.28h-4.26c-.33,0-.61,0-.83-.02-1.7-.06-2.98-.82-2.98-1.72,0-.95,1.36-1.48,2.92-1.54.29-.01.6-.02.89-.02h7.64c.14,0,.26-.17.26-.33v-.55c0-.16-.12-.28-.26-.28h-7.69c-.57,0-1.15,0-1.72,0-3.04.09-5.48,1.29-5.48,2.73" fill="#474747"/>
              </g>
              <g id="g388">
                <path id="path390" d="M51.95,49.09c0,1.48,1.38,2.63,5.44,2.66.4,0,1.36,0,1.71,0h7.38c.27,0,.48-.22.48-.48v-2.12c0-.27-.22-.48-.48-.48h-7.27c-.14,0-.26.12-.26.28v.5c0,.15.11.28.26.28h4.23c.14,0,.26.13.26.28v.53c0,.15-.11.28-.26.28h-4.29c-.31,0-.6,0-.81-.02-1.73-.06-3.01-.85-3.01-1.74,0-.96,1.38-1.5,2.93-1.56.29-.01.59-.02.88-.02h7.6c.14,0,.26-.17.26-.32v-.51c0-.15-.11-.28-.26-.28h-7.64c-.56,0-1.14,0-1.71.01-3.03.09-5.44,1.31-5.44,2.7" fill="#515151"/>
              </g>
              <g id="g392">
                <path id="path394" d="M51.98,49.09c0,1.46,1.37,2.59,5.41,2.63.41,0,1.33,0,1.7,0h7.34c.27,0,.48-.21.48-.48v-2.07c0-.26-.21-.48-.48-.48h-7.2c-.14,0-.25.12-.25.27v.46c0,.15.11.28.25.28h4.23c.14,0,.25.13.25.28v.58c0,.15-.11.28-.25.28h-4.33c-.3,0-.59,0-.79-.01-1.77-.06-3.04-.89-3.04-1.77,0-.96,1.4-1.53,2.95-1.58.28-.01.59-.02.88-.02h7.56c.14,0,.25-.16.25-.31v-.47c0-.15-.11-.28-.25-.28h-7.6c-.56,0-1.13,0-1.7.01-3.02.09-5.41,1.32-5.41,2.67" fill="#5c5c5c"/>
              </g>
              <g id="g396">
                <path id="path398" d="M52,49.09c0,1.45,1.36,2.54,5.38,2.59.41,0,1.31.01,1.69.01h7.3c.26,0,.48-.21.48-.47v-2.03c0-.26-.21-.47-.48-.47h-7.12c-.14,0-.25.12-.25.27v.42c0,.15.11.27.25.27h4.23c.14,0,.25.13.25.28v.63c0,.15-.11.27-.25.27h-4.36c-.28,0-.59,0-.76-.01-1.81-.05-3.08-.92-3.08-1.79,0-.97,1.42-1.55,2.96-1.6.28-.01.59-.02.87-.02h7.52c.14,0,.25-.16.25-.31v-.43c0-.15-.11-.27-.25-.27h-7.56c-.56,0-1.12,0-1.69.01-3.01.09-5.38,1.33-5.38,2.65" fill="#676767"/>
              </g>
              <g id="g400">
                <path id="path402" d="M52.02,49.08c0,1.43,1.36,2.5,5.35,2.55.42,0,1.29.01,1.68.01h7.26c.26,0,.47-.21.47-.47v-1.98c0-.26-.21-.47-.47-.47h-7.05c-.14,0-.25.12-.25.27v.38c0,.15.11.27.25.27h4.23c.14,0,.25.12.25.27v.68c0,.15-.11.27-.25.27h-4.4c-.27,0-.58,0-.74-.01-1.84-.05-3.11-.96-3.11-1.82,0-.97,1.45-1.57,2.97-1.63.28,0,.58-.02.87-.02h7.48c.14,0,.25-.15.25-.3v-.39c0-.15-.11-.27-.25-.27h-7.51c-.55,0-1.11,0-1.68.02-3,.09-5.35,1.34-5.35,2.62" fill="#727272"/>
              </g>
              <g id="g404">
                <path id="path406" d="M52.05,49.08c0,1.41,1.35,2.46,5.32,2.51.42,0,1.26.02,1.67.02h7.22c.26,0,.47-.21.47-.46v-1.93c0-.25-.21-.46-.47-.46h-6.98c-.14,0-.25.12-.25.26v.34c0,.15.11.27.25.27h4.23c.14,0,.25.12.25.27v.73c0,.15-.11.27-.25.27h-4.43c-.25.01-.57,0-.72,0-1.88-.05-3.14-.99-3.14-1.84,0-.98,1.47-1.6,2.99-1.65.28,0,.58-.02.86-.02h7.44c.14,0,.25-.14.25-.29v-.35c0-.15-.11-.27-.25-.27h-7.47c-.55,0-1.1,0-1.67.02-2.99.08-5.32,1.35-5.32,2.59" fill="#7c7c7c"/>
              </g>
              <g id="g408">
                <path id="path410" d="M52.07,49.07c0,1.39,1.34,2.42,5.29,2.48.43,0,1.24.02,1.66.02h7.18c.26,0,.47-.2.47-.45v-1.89c0-.25-.21-.45-.47-.45h-6.9c-.14,0-.25.12-.25.26v.3c0,.14.11.26.25.26h4.23c.14,0,.25.12.25.27v.78c0,.14-.11.26-.25.26h-4.47c-.24.01-.56,0-.69,0-1.91-.05-3.18-1.03-3.18-1.86,0-.98,1.49-1.62,3-1.67.28,0,.58-.02.86-.02h7.41c.14,0,.25-.14.25-.28v-.31c0-.14-.11-.26-.25-.26h-7.43c-.55,0-1.09,0-1.66.02-2.98.08-5.29,1.36-5.29,2.56" fill="#878787"/>
              </g>
              <g id="g412">
                <path id="path414" d="M52.1,49.07c0,1.37,1.33,2.38,5.25,2.44.43,0,1.21.02,1.65.02h7.13c.26,0,.47-.2.47-.45v-1.84c0-.25-.21-.45-.47-.45h-6.83c-.14,0-.25.12-.25.26v.26c0,.14.11.26.25.26h4.23c.14,0,.25.12.25.26v.82c0,.14-.11.26-.25.26h-4.5c-.22.01-.55,0-.67,0-1.95-.04-3.21-1.06-3.21-1.89,0-.99,1.52-1.64,3.02-1.69.28,0,.57-.02.85-.02h7.37c.14,0,.25-.13.25-.27v-.27c0-.14-.11-.26-.25-.26h-7.38c-.54,0-1.07,0-1.65.02-2.97.08-5.25,1.38-5.25,2.53" fill="#929292"/>
              </g>
              <g id="g416">
                <path id="path418" d="M52.12,49.07c0,1.35,1.32,2.34,5.22,2.4.44,0,1.19.03,1.64.03h7.09c.26,0,.46-.2.46-.44v-1.8c0-.24-.21-.44-.46-.44h-6.76c-.14,0-.25.11-.25.25v.22c0,.14.11.25.25.25h4.23c.14,0,.25.12.25.26v.87c0,.14-.11.26-.25.26l-4.54.02c-.21,0-.54-.02-.65-.02-1.99-.04-3.25-1.1-3.25-1.91,0-.99,1.54-1.66,3.03-1.72.27,0,.57-.02.85-.02h7.33c.14,0,.25-.12.25-.26v-.23c0-.14-.11-.25-.25-.25h-7.34c-.54,0-1.06,0-1.64.03-2.96.08-5.22,1.39-5.22,2.51" fill="#9d9d9d"/>
              </g>
              <g id="g420">
                <path id="path422" d="M52.14,49.06c0,1.34,1.31,2.29,5.19,2.36.44,0,1.17.03,1.63.03h7.05c.25,0,.46-.19.46-.44v-1.75c0-.24-.21-.44-.46-.44h-6.68c-.13,0-.24.11-.24.25v.18c0,.14.11.25.24.25h4.23c.14,0,.24.12.24.26v.92c0,.14-.11.25-.24.25l-4.57.02c-.19,0-.54-.02-.62-.02-2.02-.03-3.28-1.13-3.28-1.94,0-1,1.56-1.69,3.04-1.74.27,0,.57-.02.84-.02h7.29c.13,0,.24-.12.24-.26v-.18c0-.14-.11-.25-.24-.25h-7.3c-.54,0-1.05.01-1.63.03-2.95.08-5.19,1.4-5.19,2.48" fill="#a8a8a8"/>
              </g>
              <g id="g424">
                <path id="path426" d="M66.45,46.83c0-.14-.11-.25-.24-.25h-7.25c-.53,0-1.04.01-1.62.03-2.94.08-5.16,1.41-5.16,2.45,0,1.32,1.3,2.25,5.16,2.32.45,0,1.14.03,1.62.03h7.01c.25,0,.46-.19.46-.43v-1.7c0-.24-.21-.43-.46-.43h-6.61c-.13,0-.24.11-.24.25v.14c0,.14.11.25.24.25h4.22c.13,0,.24.11.24.25v.97c0,.14-.11.25-.24.25l-4.6.02c-.18,0-.53-.02-.6-.02-2.06-.02-3.31-1.17-3.31-1.96,0-1,1.58-1.71,3.06-1.76.27,0,.56-.02.84-.02h7.25c.13,0,.24-.11.24-.25v-.14Z" fill="#b3b3b3"/>
              </g>
              <g id="g428">
                <path id="path430" d="M66.45,46.83c0-.14-.11-.25-.24-.25h-7.25c-.53,0-1.04.01-1.62.03-2.94.08-5.16,1.41-5.16,2.45,0,1.32,1.3,2.25,5.16,2.32.45,0,1.14.03,1.62.03h7.01c.25,0,.46-.19.46-.43v-1.7c0-.24-.21-.43-.46-.43h-6.61c-.13,0-.24.11-.24.25v.14c0,.14.11.25.24.25h4.22c.13,0,.24.11.24.25v.97c0,.14-.11.25-.24.25l-4.6.02c-.18,0-.53-.02-.6-.02-2.06-.02-3.31-1.17-3.31-1.96,0-1,1.58-1.71,3.06-1.76.27,0,.56-.02.84-.02h7.25c.13,0,.24-.11.24-.25v-.14Z" fill="#b3b3b3"/>
              </g>
              <g id="g432">
                <path id="path434" d="M66.45,46.83c0-.14-.11-.25-.24-.25h-7.25c-.53,0-1.04.01-1.62.03-2.94.08-5.16,1.41-5.16,2.45,0,1.32,1.3,2.25,5.16,2.32.45,0,1.14.03,1.62.03h7.01c.25,0,.46-.19.46-.43v-1.7c0-.24-.21-.43-.46-.43h-6.61c-.13,0-.24.11-.24.25v.14c0,.14.11.25.24.25h4.22c.13,0,.24.11.24.25v.97c0,.14-.11.25-.24.25l-4.6.02c-.18,0-.53-.02-.6-.02-2.06-.02-3.31-1.17-3.31-1.96,0-1,1.58-1.71,3.06-1.76.27,0,.56-.02.84-.02h7.25c.13,0,.24-.11.24-.25v-.14Z" fill="#b3b3b3"/>
              </g>
              <g id="g436">
                <path id="path438" d="M66.45,46.83c0-.14-.11-.25-.24-.25h-7.25c-.53,0-1.04.01-1.62.03-2.94.08-5.16,1.41-5.16,2.45,0,1.32,1.3,2.25,5.16,2.32.45,0,1.14.03,1.62.03h7.01c.25,0,.46-.19.46-.43v-1.7c0-.24-.21-.43-.46-.43h-6.61c-.13,0-.24.11-.24.25v.14c0,.14.11.25.24.25h4.22c.13,0,.24.11.24.25v.97c0,.14-.11.25-.24.25l-4.6.02c-.18,0-.53-.02-.6-.02-2.06-.02-3.31-1.17-3.31-1.96,0-1,1.58-1.71,3.06-1.76.27,0,.56-.02.84-.02h7.25c.13,0,.24-.11.24-.25v-.14Z" fill="#b3b3b3"/>
              </g>
              <g id="g440">
                <path id="path442" d="M66.45,46.83c0-.14-.11-.25-.24-.25h-7.25c-.53,0-1.04.01-1.62.03-2.94.08-5.16,1.41-5.16,2.45,0,1.32,1.3,2.25,5.16,2.32.45,0,1.14.03,1.62.03h7.01c.25,0,.46-.19.46-.43v-1.7c0-.24-.21-.43-.46-.43h-6.61c-.13,0-.24.11-.24.25v.14c0,.14.11.25.24.25h4.22c.13,0,.24.11.24.25v.97c0,.14-.11.25-.24.25l-4.6.02c-.18,0-.53-.02-.6-.02-2.06-.02-3.31-1.17-3.31-1.96,0-1,1.58-1.71,3.06-1.76.27,0,.56-.02.84-.02h7.25c.13,0,.24-.11.24-.25v-.14Z" fill="#b3b3b3"/>
              </g>
              <g id="g444">
                <path id="path446" d="M66.45,46.83c0-.14-.11-.25-.24-.25h-7.25c-.53,0-1.04.01-1.62.03-2.94.08-5.16,1.41-5.16,2.45,0,1.32,1.3,2.25,5.16,2.32.45,0,1.14.03,1.62.03h7.01c.25,0,.46-.19.46-.43v-1.7c0-.24-.21-.43-.46-.43h-6.61c-.13,0-.24.11-.24.25v.14c0,.14.11.25.24.25h4.22c.13,0,.24.11.24.25v.97c0,.14-.11.25-.24.25l-4.6.02c-.18,0-.53-.02-.6-.02-2.06-.02-3.31-1.17-3.31-1.96,0-1,1.58-1.71,3.06-1.76.27,0,.56-.02.84-.02h7.25c.13,0,.24-.11.24-.25v-.14Z" fill="#b3b3b3"/>
              </g>
              <g id="g448">
                <path id="path450" d="M66.45,46.83c0-.14-.11-.25-.24-.25h-7.25c-.53,0-1.04.01-1.62.03-2.94.08-5.16,1.41-5.16,2.45,0,1.32,1.3,2.25,5.16,2.32.45,0,1.14.03,1.62.03h7.01c.25,0,.46-.19.46-.43v-1.7c0-.24-.21-.43-.46-.43h-6.61c-.13,0-.24.11-.24.25v.14c0,.14.11.25.24.25h4.22c.13,0,.24.11.24.25v.97c0,.14-.11.25-.24.25l-4.6.02c-.18,0-.53-.02-.6-.02-2.06-.02-3.31-1.17-3.31-1.96,0-1,1.58-1.71,3.06-1.76.27,0,.56-.02.84-.02h7.25c.13,0,.24-.11.24-.25v-.14Z" fill="#b3b3b3"/>
              </g>
              <g id="g452">
                <path id="path454" d="M66.45,46.83c0-.14-.11-.25-.24-.25h-7.25c-.53,0-1.04.01-1.62.03-2.94.08-5.16,1.41-5.16,2.45,0,1.32,1.3,2.25,5.16,2.32.45,0,1.14.03,1.62.03h7.01c.25,0,.46-.19.46-.43v-1.7c0-.24-.21-.43-.46-.43h-6.61c-.13,0-.24.11-.24.25v.14c0,.14.11.25.24.25h4.22c.13,0,.24.11.24.25v.97c0,.14-.11.25-.24.25l-4.6.02c-.18,0-.53-.02-.6-.02-2.06-.02-3.31-1.17-3.31-1.96,0-1,1.58-1.71,3.06-1.76.27,0,.56-.02.84-.02h7.25c.13,0,.24-.11.24-.25v-.14Z" fill="#b3b3b3"/>
              </g>
              <g id="g456">
                <path id="path458" d="M66.45,46.83c0-.14-.11-.25-.24-.25h-7.25c-.53,0-1.04.01-1.62.03-2.94.08-5.16,1.41-5.16,2.45,0,1.32,1.3,2.25,5.16,2.32.45,0,1.14.03,1.62.03h7.01c.25,0,.46-.19.46-.43v-1.7c0-.24-.21-.43-.46-.43h-6.61c-.13,0-.24.11-.24.25v.14c0,.14.11.25.24.25h4.22c.13,0,.24.11.24.25v.97c0,.14-.11.25-.24.25l-4.6.02c-.18,0-.53-.02-.6-.02-2.06-.02-3.31-1.17-3.31-1.96,0-1,1.58-1.71,3.06-1.76.27,0,.56-.02.84-.02h7.25c.13,0,.24-.11.24-.25v-.14Z" fill="#b3b3b3"/>
              </g>
              <g id="g460">
                <path id="path462" d="M66.45,46.83c0-.14-.11-.25-.24-.25h-7.25c-.53,0-1.04.01-1.62.03-2.94.08-5.16,1.41-5.16,2.45,0,1.32,1.3,2.25,5.16,2.32.45,0,1.14.03,1.62.03h7.01c.25,0,.46-.19.46-.43v-1.7c0-.24-.21-.43-.46-.43h-6.61c-.13,0-.24.11-.24.25v.14c0,.14.11.25.24.25h4.22c.13,0,.24.11.24.25v.97c0,.14-.11.25-.24.25l-4.6.02c-.18,0-.53-.02-.6-.02-2.06-.02-3.31-1.17-3.31-1.96,0-1,1.58-1.71,3.06-1.76.27,0,.56-.02.84-.02h7.25c.13,0,.24-.11.24-.25v-.14Z" fill="#b3b3b3"/>
              </g>
              <g id="g464">
                <path id="path466" d="M66.45,46.83c0-.14-.11-.25-.24-.25h-7.25c-.53,0-1.04.01-1.62.03-2.94.08-5.16,1.41-5.16,2.45,0,1.32,1.3,2.25,5.16,2.32.45,0,1.14.03,1.62.03h7.01c.25,0,.46-.19.46-.43v-1.7c0-.24-.21-.43-.46-.43h-6.61c-.13,0-.24.11-.24.25v.14c0,.14.11.25.24.25h4.22c.13,0,.24.11.24.25v.97c0,.14-.11.25-.24.25l-4.6.02c-.18,0-.53-.02-.6-.02-2.06-.02-3.31-1.17-3.31-1.96,0-1,1.58-1.71,3.06-1.76.27,0,.56-.02.84-.02h7.25c.13,0,.24-.11.24-.25v-.14Z" fill="#b3b3b3"/>
              </g>
              <g id="g468">
                <path id="path470" d="M66.45,46.83c0-.14-.11-.25-.24-.25h-7.25c-.53,0-1.04.01-1.62.03-2.94.08-5.16,1.41-5.16,2.45,0,1.32,1.3,2.25,5.16,2.32.45,0,1.14.03,1.62.03h7.01c.25,0,.46-.19.46-.43v-1.7c0-.24-.21-.43-.46-.43h-6.61c-.13,0-.24.11-.24.25v.14c0,.14.11.25.24.25h4.22c.13,0,.24.11.24.25v.97c0,.14-.11.25-.24.25l-4.6.02c-.18,0-.53-.02-.6-.02-2.06-.02-3.31-1.17-3.31-1.96,0-1,1.58-1.71,3.06-1.76.27,0,.56-.02.84-.02h7.25c.13,0,.24-.11.24-.25v-.14Z" fill="#b3b3b3"/>
              </g>
              <g id="g472">
                <path id="path474" d="M66.45,46.83c0-.14-.11-.25-.24-.25h-7.25c-.53,0-1.04.01-1.62.03-2.94.08-5.16,1.41-5.16,2.45,0,1.32,1.3,2.25,5.16,2.32.45,0,1.14.03,1.62.03h7.01c.25,0,.46-.19.46-.43v-1.7c0-.24-.21-.43-.46-.43h-6.61c-.13,0-.24.11-.24.25v.14c0,.14.11.25.24.25h4.22c.13,0,.24.11.24.25v.97c0,.14-.11.25-.24.25l-4.6.02c-.18,0-.53-.02-.6-.02-2.06-.02-3.31-1.17-3.31-1.96,0-1,1.58-1.71,3.06-1.76.27,0,.56-.02.84-.02h7.25c.13,0,.24-.11.24-.25v-.14Z" fill="#b3b3b3"/>
              </g>
              <g id="g476">
                <path id="path478" d="M66.45,46.83c0-.14-.11-.25-.24-.25h-7.25c-.53,0-1.04.01-1.62.03-2.94.08-5.16,1.41-5.16,2.45,0,1.32,1.3,2.25,5.16,2.32.45,0,1.14.03,1.62.03h7.01c.25,0,.46-.19.46-.43v-1.7c0-.24-.21-.43-.46-.43h-6.61c-.13,0-.24.11-.24.25v.14c0,.14.11.25.24.25h4.22c.13,0,.24.11.24.25v.97c0,.14-.11.25-.24.25l-4.6.02c-.18,0-.53-.02-.6-.02-2.06-.02-3.31-1.17-3.31-1.96,0-1,1.58-1.71,3.06-1.76.27,0,.56-.02.84-.02h7.25c.13,0,.24-.11.24-.25v-.14Z" fill="#b3b3b3"/>
              </g>
            </g>
          </g>
        </g>
        <g id="g480">
          <g id="g482">
            <g id="g488">
              <g id="g490">
                <path id="path498" d="M57.34,46.61c-2.94.08-5.17,1.25-5.17,2.62h2.89s0,0,0-.11h0c0-1.1,1.55-1.82,3.02-1.87h0c.27,0,.6-.01.87-.01h7.45c.13,0,.21-.15.29-.41h0l.03-.09c0-.14-.11-.16-.24-.16h-7.53c-.08,0-.15,0-.23,0h0c-.45,0-.9.02-1.39.03" fill="url(#Degradado_sin_nombre_7)"/>
              </g>
            </g>
          </g>
        </g>
        <g id="g500">
          <g id="g502">
            <g id="g508">
              <g id="g510">
                <path id="path522" d="M59.15,49.25c0,.12,0,.14,0,.16h0c-.01.09,0,.18.24.18h4.09c.14,0,.38.07.38.23h0s0,.89,0,1.05h0c0,.15.02.31-.39.31h0c-.41,0-6.36.44-7.29-.52h0c-.43-.44-1.04-1-1.1-1.52h-2.89c0,2.35,3.96,2.38,4.75,2.38h0c.79,0,8.6.06,8.91.06h0c.31,0,.59-.1.59-.46h0s0-1.66,0-1.77h0c0-.1,0-.08-.11-.23h0l-6.7-.02s-.47.09-.47.15" fill="url(#Degradado_sin_nombre_8)"/>
              </g>
            </g>
          </g>
        </g>
        <g id="g524">
          <g clip-path="url(#clippath-6)">
            <g id="g526">
              <g id="g532">
                <path id="path534" d="M64.11,51.07c0,.19-.04.24-.33.24-.54,0-4.43,0-5.26,0s-2.17-.15-2.87-.88c-.27-.28,0-.3.31-.08.3.22,1.18.66,2.54.66,1.83,0,3.8,0,4.93,0,.21,0,.28-.13.33-.19.05-.06.35-.11.35.25" fill="#fff"/>
              </g>
              <g id="g536">
                <path id="path538" d="M66.41,49.26c0-.17-.13-.34-.32-.34h-6.78c-.13,0-.16.19-.16.34h7.26Z" fill="#fff"/>
              </g>
              <g id="g540">
                <path id="path542" d="M69.82,51.91c-.27,0-.48-.22-.48-.5v-4.63c0-.27.22-.5.48-.5h13.06c.11,0,.19.09.19.2v.89c0,.11-.09.2-.19.2h-9.59c-.2,0-.36.17-.36.38v.2c0,.21.16.37.36.37h9.12c.11,0,.19.09.19.2v.76c0,.11-.09.2-.19.2h-9.14c-.2,0-.36.17-.36.37v.21c0,.21.16.37.36.37h9.79c.11,0,.19.08.19.19v.87c0,.11-.09.2-.19.2h-13.23Z" fill="#262626"/>
              </g>
              <g id="g544">
                <path id="path546" d="M69.86,51.88c-.27,0-.48-.22-.48-.49v-4.57c0-.27.22-.49.48-.49h12.98c.11,0,.19.09.19.2v.84c0,.11-.08.2-.19.2h-9.6c-.2,0-.36.17-.36.38v.26c0,.2.16.37.36.37h9.13c.11,0,.19.09.19.2v.71c0,.11-.09.2-.19.2h-9.15c-.2,0-.36.17-.36.37v.27c0,.2.16.37.36.37h9.79c.11,0,.19.08.19.19v.81c0,.11-.09.2-.19.2h-13.15Z" fill="#313131"/>
              </g>
              <g id="g548">
                <path id="path550" d="M69.89,51.84c-.26,0-.48-.22-.48-.49v-4.51c0-.27.21-.49.48-.49h12.9c.1,0,.19.09.19.2v.78c0,.11-.08.2-.19.2h-9.61c-.2,0-.36.17-.36.37v.31c0,.2.16.37.36.37h9.14c.1,0,.19.09.19.2v.66c0,.11-.08.2-.19.2h-9.15c-.2,0-.36.17-.36.37v.33c0,.2.16.37.36.37h9.8c.1,0,.19.08.19.19v.76c0,.11-.08.19-.19.19h-13.07Z" fill="#3c3c3c"/>
              </g>
              <g id="g552">
                <path id="path554" d="M69.92,51.81c-.26,0-.48-.22-.48-.49v-4.45c0-.27.21-.49.48-.49h12.82c.1,0,.19.09.19.2v.72c0,.11-.08.19-.19.19h-9.61c-.2,0-.36.17-.36.37v.36c0,.2.16.37.36.37h9.14c.1,0,.19.09.19.2v.61c0,.11-.08.19-.19.19h-9.16c-.2,0-.36.17-.36.37v.39c0,.2.16.36.36.36h9.8c.1,0,.19.08.19.19v.7c0,.11-.08.19-.19.19h-12.99Z" fill="#474747"/>
              </g>
              <g id="g556">
                <path id="path558" d="M69.95,51.77c-.26,0-.47-.22-.47-.49v-4.39c0-.27.21-.49.47-.49h12.74c.1,0,.19.09.19.19v.67c0,.11-.08.19-.19.19h-9.62c-.2,0-.35.17-.35.37v.42c0,.2.16.37.35.37h9.15c.1,0,.19.09.19.2v.56c0,.11-.08.19-.19.19h-9.17c-.2,0-.35.16-.35.37v.45c0,.2.16.36.35.36h9.81c.1,0,.19.08.19.19v.65c0,.11-.08.19-.19.19h-12.91Z" fill="#515151"/>
              </g>
              <g id="g560">
                <path id="path562" d="M69.99,51.74c-.26,0-.47-.22-.47-.49v-4.34c0-.27.21-.49.47-.49h12.66c.1,0,.19.09.19.19v.61c0,.11-.08.19-.19.19h-9.62c-.19,0-.35.17-.35.37v.47c0,.2.16.37.35.37h9.16c.1,0,.19.09.19.19v.51c0,.11-.08.19-.19.19h-9.18c-.19,0-.35.16-.35.37v.5c0,.2.16.36.35.36h9.81c.1,0,.19.09.19.19v.59c0,.11-.08.19-.19.19h-12.83Z" fill="#5c5c5c"/>
              </g>
              <g id="g564">
                <path id="path566" d="M70.02,51.7c-.26,0-.47-.22-.47-.49v-4.28c0-.27.21-.49.47-.49h12.58c.1,0,.18.09.18.19v.55c0,.11-.08.19-.18.19h-9.63c-.19,0-.35.16-.35.37v.53c0,.2.16.36.35.36h9.17c.1,0,.18.09.18.19v.46c0,.11-.08.19-.18.19h-9.19c-.19,0-.35.16-.35.36v.56c-.01.2.16.35.35.35h9.81c.1,0,.18.09.18.19v.54c0,.11-.08.19-.18.19h-12.75Z" fill="#676767"/>
              </g>
              <g id="g568">
                <path id="path570" d="M70.05,51.67c-.26,0-.46-.22-.46-.48v-4.22c0-.27.21-.48.46-.48h12.5c.1,0,.18.09.18.19v.5c0,.11-.08.19-.18.19h-9.64c-.19,0-.35.16-.35.36v.58c0,.2.16.36.35.36h9.18c.1,0,.18.09.18.19v.41c0,.11-.08.19-.18.19h-9.2c-.19,0-.35.16-.35.36v.62c-.01.2.16.35.35.35h9.82c.1,0,.18.09.18.19v.48c0,.11-.08.19-.18.19h-12.67Z" fill="#727272"/>
              </g>
              <g id="g572">
                <path id="path574" d="M70.08,51.63c-.25,0-.46-.22-.46-.48v-4.16c0-.27.21-.48.46-.48h12.42c.1,0,.18.09.18.19v.44c0,.11-.08.19-.18.19h-9.64c-.19,0-.35.16-.35.36v.64c0,.2.15.36.35.36h9.19c.1,0,.18.08.18.19v.36c0,.11-.08.19-.18.19h-9.21c-.19,0-.35.16-.35.36l-.02.68c0,.2.17.35.36.35h9.82c.1,0,.18.09.18.19v.43c0,.1-.08.19-.18.19h-12.59Z" fill="#7c7c7c"/>
              </g>
              <g id="g576">
                <path id="path578" d="M70.12,51.6c-.25,0-.46-.21-.46-.48v-4.1c0-.26.21-.48.46-.48h12.35c.1,0,.18.09.18.19v.38c0,.1-.08.19-.18.19h-9.65c-.19,0-.34.16-.34.36v.69c0,.2.15.36.34.36h9.2c.1,0,.18.08.18.19v.31c0,.1-.08.19-.18.19h-9.21c-.19,0-.34.16-.34.36l-.02.73c0,.2.17.35.36.35h9.83c.1,0,.18.09.18.19v.37c0,.1-.08.19-.18.19h-12.51Z" fill="#878787"/>
              </g>
              <g id="g580">
                <path id="path582" d="M70.15,51.56c-.25,0-.45-.21-.45-.48v-4.04c0-.26.2-.48.45-.48h12.27c.1,0,.18.09.18.19v.33c0,.1-.08.19-.18.19h-9.65c-.19,0-.34.16-.34.36v.75c0,.2.15.36.34.36h9.21c.1,0,.18.08.18.19v.26c0,.1-.08.19-.18.19h-9.22c-.19,0-.34.16-.34.36l-.02.79c0,.2.17.34.36.34h9.83c.1,0,.18.09.18.19v.32c0,.1-.08.19-.18.19h-12.43Z" fill="#929292"/>
              </g>
              <g id="g584">
                <path id="path586" d="M70.18,51.53c-.25,0-.45-.21-.45-.48v-3.98c0-.26.2-.48.45-.48h12.19c.1,0,.18.09.18.19v.27c0,.1-.08.19-.18.19h-9.66c-.19,0-.34.16-.34.36v.8c0,.2.15.36.34.36h9.21c.1,0,.18.08.18.19v.21c0,.1-.08.19-.18.19h-9.23c-.19,0-.34.16-.34.36l-.02.85c0,.2.17.34.36.34h9.84c.1,0,.18.09.18.19v.26c0,.1-.08.19-.18.19h-12.35Z" fill="#9d9d9d"/>
              </g>
              <g id="g588">
                <path id="path590" d="M70.21,51.49c-.25,0-.45-.21-.45-.47v-3.93c0-.26.2-.47.45-.47h12.11c.1,0,.18.09.18.19v.21c0,.1-.08.19-.18.19h-9.66c-.19,0-.34.16-.34.35v.86c0,.2.15.35.34.35h9.22c.1,0,.18.08.18.18v.16c0,.1-.08.19-.18.19h-9.24c-.19,0-.34.16-.34.36l-.02.91c0,.2.17.34.36.34h9.84c.1,0,.18.09.18.19v.21c0,.1-.08.19-.18.19h-12.27Z" fill="#a8a8a8"/>
              </g>
              <g id="g592">
                <path id="path594" d="M70.25,51.45c-.25,0-.45-.21-.45-.47v-3.87c0-.26.2-.47.45-.47h12.03c.1,0,.18.09.18.19v.16c0,.1-.08.19-.18.19h-9.67c-.18,0-.33.16-.33.35v.91c0,.2.15.35.33.35h9.23c.1,0,.18.08.18.18v.11c0,.1-.08.19-.18.19h-9.25c-.18,0-.33.16-.33.35l-.03.96c0,.2.18.33.36.33h9.85c.1,0,.18.09.18.19v.15c0,.1-.08.19-.18.19h-12.19Z" fill="#b3b3b3"/>
              </g>
            </g>
          </g>
        </g>
        <g id="g596">
          <g id="g598">
            <g id="g604">
              <g id="g606">
                <path id="path614" d="M69.8,47.09l.13,2.07,2.65.23h9.25c.1,0,.15-.07.21-.19h0l.05-.1.07-.2c.03-.12-.08-.19-.18-.19h-9.38c-.18,0-.33-.16-.33-.35h0v-.78c0-.2.15-.35.33-.35h9.67c.1,0,.15-.09.2-.19h0l.12-.29c.04-.12-.08-.19-.18-.19h-12.18c-.25,0-.45.27-.45.53" fill="url(#Degradado_sin_nombre_9)"/>
              </g>
            </g>
          </g>
        </g>
        <g id="g616">
          <g id="g618">
            <g id="g624">
              <g id="g626">
                <path id="path638" d="M69.94,49.16s-.12,1.28-.14,1.78h0c-.02.51.19.53.66.53h11.81c.25,0,.24-.02.33-.17h0c.08-.14.17-.37.13-.41h0s-9.47.13-9.82.13h0c-.35,0-.67-.06-.67-.35h0v-.96c0-.21.03-.31.42-.31h9.01c.27,0,.31-.02.4-.24h-12.13Z" fill="url(#Degradado_sin_nombre_10)"/>
              </g>
            </g>
          </g>
        </g>
        <g id="g640">
          <g clip-path="url(#clippath-7)">
            <g id="g642">
              <g id="g648">
                <path id="path650" d="M82.58,50.83h-9.71c-.21,0-.27-.14-.33-.2-.06-.06-.35-.11-.35.25,0,.19.04.34.33.34s1.57,0,2.81,0c2.85,0,6.82,0,6.89,0,.12,0,.3.01.35-.04.05-.05.07-.09.15-.2.05-.1-.03-.15-.13-.15" fill="#fff"/>
              </g>
            </g>
          </g>
        </g>
      </g>
    </g>
  </g>
</svg>