<?xml version="1.0" encoding="UTF-8"?>
<svg id="Capa_1" xmlns="http://www.w3.org/2000/svg" width="100" height="100" xmlns:xlink="http://www.w3.org/1999/xlink" viewBox="0 0 100 100">
  <defs>
    <clipPath id="clippath">
      <rect width="100" height="100" fill="none"/>
    </clipPath>
  </defs>
  <g id="Grupo_822">
    <g clip-path="url(#clippath)">
      <g>
        <g id="Grupo_821">
          <path id="Trazado_1384" d="M29.5,74.42v1.65h-5.12v-6.12c.54,0,3.3-.02,5.01-.02,2.47,0,4.75.01,6.37.02,2.33.01,4.55.12,4.55,2.17-.06.87-.68,1.6-1.53,1.81l2.33,2.15h-5.75l-1.67-1.65h-4.2ZM29.5,72.71h3.74c.42,0,1.65-.01,1.65-.52s-1.23-.51-1.63-.51h-3.76s0,1.04,0,1.04Z" fill="#161615"/>
          <path id="Trazado_1385" d="M67.44,72.15l1.48-2.2h6.7v6.13h-5.12v-3.59h-.21l-2.4,3.58h-1.14l-2.4-3.58h-.21v3.58h-5.12v-6.13h6.7l1.48,2.2h.24Z" fill="#161615"/>
          <path id="Trazado_1386" d="M57.46,45.2l-4.41,3.04,2.18.85,2.74-1.06-.51-2.83Z" fill="#161615"/>
          <path id="Trazado_1387" d="M52.9,51.47l2.33-2.39-2.18-.85-.15,3.23Z" fill="#161615"/>
          <path id="Trazado_1388" d="M69.52,37.72s-.06-1.14-.15-2.25c-.14-1.63-.18-1.73-.79-2.45-.54-.61-1.18-1.13-1.87-1.55-1.09-.67-1.17-.69-2.86-.71-2.17-.02-2.25,0-3.5,1.12-2.06,2.06-3.93,4.28-5.61,6.65.69.56,1.99,1.62,3.16,2.58.17-.41.37-.81.62-1.18,1.05-1.7,2.22-3.31,3.51-4.83.7-.77.75-.8,2.2-.81.67-.11,1.36.1,1.86.56.86.61.88.7.97,2.15.15,2.35,0,7.57-.09,9.53l.02.03c.68-3.69,1.49-8.84,1.49-8.84l1.08.05-.02-.06Z" fill="#161615"/>
          <path id="Trazado_1389" d="M67.05,37.01c-.1-1.45-.11-1.54-.97-2.15-.5-.47-1.19-.68-1.86-.56-1.45.01-1.5.04-2.2.81-1.29,1.52-2.47,3.13-3.51,4.83-.24.37-.45.77-.62,1.18l4.27,3.49v-.04c.19-1.4.25-2.82.19-4.23.24-.36.44-.63.63-.88.4-.51.48-.56.86-.6.66-.08.71-.08.92.15.16.15.25.36.24.58.12,2.3.07,7.67-.11,9.25-.24,2.12-1.44,3.92-1.98,5.14-.03.05-.04.11-.04.17h.06s2.23-2.42,2.77-3.21c.36-.48.6-1.03.72-1.61.15-.65.33-1.58.53-2.64v-.14c.09-1.96.25-7.18.09-9.53" fill="#161615"/>
          <path id="Trazado_1390" d="M57.88,41.11h0c-.12.39-.2.79-.23,1.19-.18,1.45-.2,2.9-.2,2.9l2.71,4.58c.11-.4.19-.82.23-1.23.05-.52.09-1.29.13-1.87.63-.62,1.18-1.32,1.64-2.08l-4.28-3.49" fill="#161615"/>
          <path id="Trazado_1391" d="M52.87,53.24h-.04s-.28,6.77-.28,6.77l1.52,4.11c.45-1.56.8-3.15,1.05-4.76l-2.25-6.12Z" fill="#161615"/>
          <path id="Trazado_1392" d="M58.13,53.79c.63-1.13,1.21-2.21,1.6-2.97.18-.33.32-.68.43-1.04l-2.7-4.58.51,2.82-1.41,3.03,1.57,2.74Z" fill="#161615"/>
          <path id="Trazado_1393" d="M52.87,53.24l2.25,6.12c.12-.4,1.66-3.12,3.01-5.57l-1.57-2.74-3.69,2.19Z" fill="#161615"/>
          <path id="Trazado_1394" d="M73.09,34.07c-.21-4-.22-4.06-1.6-5.59-1.1-1.19-2.32-2.26-3.65-3.19-1.76-1.17-1.82-1.2-4.47-1.29-4.87-.17-4.91-.15-6.56,1.15-2.14,1.93-4.09,4.07-5.83,6.37.09.9.22,1.8.41,2.68,2.02-2.59,4.17-5.07,6.44-7.43,1.91-1.8,2.12-1.84,5.17-1.84,2.47,0,2.67.04,4.26,1.09,1.28.89,2.46,1.92,3.52,3.07,1.39,1.53,1.4,1.52,1.57,5.29.06,1.23.05,2.87.05,2.87v.07l.7-.3-.83,1.66s-.32,10.81-.43,11.72c-.29,2.5-.31,2.63-2.57,5.29l-.1.1c1.1-.43,2.1-1.09,2.92-1.94l.19-.25c.57-.99.65-1.98.81-4.57.1-1.69.11-12.74,0-14.98" fill="#161615"/>
          <path id="Trazado_1395" d="M67.67,51.66l3.76,1.04c.23-.74.37-1.51.42-2.28.1-.9.43-11.72.43-11.72l-2.34.35s-.87,7.69-1.79,11.25c-.1.47-.26.93-.48,1.36" fill="#161615"/>
          <path id="Trazado_1396" d="M67.67,51.66h0c-.21.38-.45.73-.72,1.07-.84,1.12-2.62,3.12-2.62,3.12l-.03.04c.14.05.28.08.42.08,1.49.08,2.99.03,4.47-.16l.1-.1c.88-.88,1.6-1.9,2.15-3.01l-3.76-1.04Z" fill="#161615"/>
          <path id="Trazado_1397" d="M42.54,45.2l4.41,3.04-2.18.85-2.74-1.06.51-2.82Z" fill="#161615"/>
          <path id="Trazado_1398" d="M47.1,51.47l-2.33-2.39,2.18-.85.15,3.23Z" fill="#161615"/>
          <path id="Trazado_1399" d="M30.48,37.72s.06-1.14.16-2.25c.15-1.63.18-1.73.79-2.45.54-.61,1.18-1.13,1.87-1.55,1.09-.67,1.17-.69,2.86-.71,2.17-.02,2.25,0,3.5,1.12,2.06,2.06,3.93,4.28,5.61,6.65-.69.56-1.99,1.62-3.16,2.58-.16-.41-.37-.81-.62-1.18-1.05-1.7-2.22-3.31-3.51-4.83-.7-.77-.75-.8-2.2-.81-.67-.11-1.36.1-1.86.56-.86.61-.88.7-.97,2.15-.15,2.35,0,7.57.09,9.53l-.02.03c-.68-3.69-1.49-8.84-1.49-8.84l-1.08.05.02-.06Z" fill="#161615"/>
          <path id="Trazado_1400" d="M32.95,37.01c.1-1.45.12-1.54.97-2.15.5-.47,1.19-.68,1.86-.56,1.45.01,1.5.04,2.2.81,1.29,1.52,2.47,3.13,3.51,4.83.24.37.45.77.62,1.18l-4.27,3.49v-.04c-.19-1.4-.25-2.82-.19-4.23-.24-.36-.44-.63-.63-.88-.4-.51-.48-.56-.86-.6-.66-.08-.71-.08-.92.15-.16.15-.25.36-.24.58-.12,2.3-.07,7.67.11,9.25.24,2.12,1.44,3.92,1.98,5.14.02.05.04.11.04.17h-.06s-2.23-2.42-2.77-3.21c-.36-.48-.6-1.03-.72-1.61-.15-.65-.33-1.58-.53-2.64v-.14c-.09-1.96-.25-7.18-.09-9.53" fill="#161615"/>
          <path id="Trazado_1401" d="M42.12,41.11h0c.12.39.2.79.23,1.19.18,1.45.2,2.9.2,2.9l-2.71,4.58c-.11-.4-.19-.82-.23-1.23-.05-.52-.09-1.29-.13-1.87-.63-.62-1.18-1.32-1.64-2.08l4.28-3.49" fill="#161615"/>
          <path id="Trazado_1402" d="M51.39,34.21c-.19-.89-.32-1.78-.41-2.69h-1.96c-.09.9-.22,1.8-.41,2.69v.02s2.78,0,2.78,0v-.02" fill="#161615"/>
          <path id="Trazado_1403" d="M52.54,60.01l-2.54.63-2.54-.63-1.52,4.11c.03.08.07.15.11.22.35.58.86,1.05,1.47,1.33.82.13,1.66.18,2.49.17.83.02,1.67-.04,2.49-.17.61-.29,1.12-.75,1.47-1.33.04-.07.07-.14.11-.22l-1.52-4.11Z" fill="#161615"/>
          <path id="Trazado_1404" d="M47.13,53.24h.04s.28,6.77.28,6.77l-1.52,4.11c-.45-1.56-.8-3.15-1.05-4.76l2.25-6.12Z" fill="#161615"/>
          <path id="Trazado_1405" d="M41.87,53.79c-.63-1.13-1.21-2.21-1.6-2.97-.18-.33-.32-.68-.43-1.04l2.7-4.58-.51,2.82,1.41,3.03-1.57,2.74Z" fill="#161615"/>
          <path id="Trazado_1406" d="M47.13,53.24l-2.25,6.12c-.12-.4-1.66-3.12-3.01-5.57l1.57-2.74,3.69,2.19Z" fill="#161615"/>
          <path id="Trazado_1407" d="M26.91,34.07c.21-4,.22-4.06,1.6-5.59,1.1-1.19,2.32-2.26,3.65-3.19,1.76-1.17,1.81-1.2,4.47-1.29,4.88-.17,4.91-.15,6.56,1.15,2.14,1.93,4.09,4.07,5.83,6.37-.09.9-.22,1.8-.41,2.68-2.02-2.59-4.17-5.07-6.44-7.43-1.91-1.8-2.12-1.84-5.17-1.84-2.47,0-2.67.04-4.26,1.09-1.28.89-2.46,1.92-3.52,3.07-1.39,1.53-1.4,1.52-1.57,5.29-.06,1.23-.05,2.87-.05,2.87v.07l-.7-.3.82,1.66s.32,10.81.43,11.72c.29,2.5.31,2.63,2.57,5.29l.1.1c-1.1-.43-2.1-1.09-2.92-1.95l-.19-.25c-.57-.99-.65-1.98-.81-4.57-.1-1.69-.11-12.74,0-14.97" fill="#161615"/>
          <path id="Trazado_1408" d="M32.33,51.66l-3.76,1.04c-.23-.74-.37-1.51-.42-2.28-.1-.9-.43-11.72-.43-11.72l2.34.35s.87,7.69,1.79,11.25c.1.47.26.93.48,1.36" fill="#161615"/>
          <path id="Trazado_1409" d="M32.33,51.66h0c.21.38.45.73.72,1.07.84,1.12,2.62,3.12,2.62,3.12l.03.04c-.14.05-.28.08-.42.08-1.49.08-2.99.03-4.47-.16l-.1-.1c-.88-.88-1.6-1.9-2.15-3.01l3.76-1.04Z" fill="#161615"/>
        </g>
        <path id="Trazado_1383" d="M54.27,69.95h-8.54l-4.11,6.12h5.31l.83-1.37h4.46l.83,1.37h5.31l-4.11-6.12ZM49.62,71.67h.76l.81,1.32h-2.37l.81-1.32Z" fill="#161615"/>
      </g>
    </g>
  </g>
</svg>