<?xml version="1.0" encoding="UTF-8"?>
<svg id="Capa_1" xmlns="http://www.w3.org/2000/svg" width="48" height="48" xmlns:xlink="http://www.w3.org/1999/xlink" viewBox="0 0 48 48">
  <defs>
    <clipPath id="clippath">
      <rect width="48" height="48" fill="none"/>
    </clipPath>
  </defs>
  <g clip-path="url(#clippath)">
    <g id="Grupo_723">
      <path id="Trazado_983" d="M22.9,41.06c-.91,0-1.36-.16-1.36-1.04v-1.64c0-.82.41-1.08,1.24-1.08h3.57v.61h-3.82c-.18,0-.33.14-.34.32v1.89c.01.18.16.33.34.34h3.42v-1.02h-1.99v-.61h2.64v2.24h-3.7Z" fill="#fff"/>
      <path id="Trazado_984" d="M5.71,37.29H1.87v3.77h.67v-1.17h3.17c.76,0,1.19-.28,1.19-1.07v-.43c0-.77-.43-1.11-1.19-1.11M6.25,38.98c-.02.17-.17.3-.34.3h-3.37v-1.38h3.37c.18,0,.33.14.34.32v.76Z" fill="#fff"/>
      <path id="Trazado_985" d="M13.18,37.9v-.61h-4.8v3.77h4.8v-.61h-4.15v-1.02h3.69v-.61h-3.69v-.93h4.15Z" fill="#fff"/>
      <path id="Trazado_986" d="M33.03,37.9v-.61h-4.8v3.77h4.8v-.61h-4.15v-1.02h3.69v-.61h-3.69v-.93h4.15Z" fill="#fff"/>
      <path id="Trazado_987" d="M16.17,41.06c-.85,0-1.36-.19-1.36-1.04v-2.73h.65v2.84c0,.18.16.33.34.32,0,0,0,0,0,0h3.12c.17,0,.32-.13.33-.31,0,0,0,0,0-.01v-2.84h.67v2.73c0,.86-.45,1.04-1.36,1.04h-2.38Z" fill="#fff"/>
      <path id="Trazado_988" d="M35.65,37.9c-.19,0-.34.14-.34.33,0,0,0,.01,0,.02v1.86c0,.19.16.34.34.34h3.23c.19-.01.33-.16.35-.34v-1.86c0-.19-.16-.34-.35-.34h-3.23ZM36.02,41.06c-.9,0-1.36-.15-1.36-1.04v-1.68c0-.85.42-1.04,1.36-1.04h2.49c.82,0,1.36.18,1.36,1.04v1.68c0,.85-.47,1.04-1.36,1.04h-2.49Z" fill="#fff"/>
      <path id="Trazado_989" d="M46.13,37.29h-5.05v.61h2.2v3.16h.67v-3.16h2.18v-.61Z" fill="#fff"/>
      <path id="Trazado_990" d="M18.42,23.14c-.05.02-.11-.01-.13-.06,0,0,0,0,0-.01-.03-.14-.11-.62-.14-.77-.02-.06,0-.12.07-.14,0,0,0,0,.01,0,.34-.11.92-.31,1.39-.47.1-.03.18-.1.22-.2.2-.31.67-1.16.9-1.59.03-.06.03-.14,0-.2l-.1-.17c-.04-.07-.11-.12-.19-.14-.47-.12-1.1-.27-1.4-.35-.07-.02-.14-.01-.2,0l-.05.02c.45.15.84.29,1.33.48.05.02.08.06.1.11l.05.15c.02.06.01.12-.02.18-.24.46-.53.89-.86,1.29-.04.05-.1.09-.16.12-.28.1-.79.27-1.01.33-.03.01-.07,0-.1-.02-.17-.13-.33-.27-.49-.42,0,0-.03.34-.03.49,0,.02,0,.03,0,.05.06.13.15.39.2.51.01.03.02.06.03.1.06.22.21.88.21.88.02.1.08.13.17.11.11-.02.47-.12.62-.17.02,0,.04-.02.06-.04l.25-.24s-.54.13-.74.17" fill="#fff"/>
      <path id="Trazado_991" d="M19.24,21.14c.23-.29.44-.6.63-.91l-1.51,1.24c.25-.07.58-.19.78-.26.04-.01.07-.03.09-.06" fill="#fff"/>
      <path id="Trazado_992" d="M19.27,16.13l-.27.02s-.04.02-.04.04l-.03.32s.01.03.03.03c0,0,0,0,0,0l.27-.06s.07-.03.09-.07c.04-.08.04-.17,0-.24-.01-.02-.03-.04-.06-.04" fill="#fff"/>
      <path id="Trazado_993" d="M16.65,20.14l.41.48.12-.83c-.22.03-.42.16-.53.35" fill="#fff"/>
      <path id="Trazado_994" d="M29.98,20.05c-.6-.89-1.28-1.73-2.04-2.5-.04-.04-.08-.07-.13-.09l-.17-.07s.3,1.32.44,2.04c.02.09.06.18.13.24.38.36.73.77,1.03,1.2.11.16.18.36.19.55.07,1.1.04,2.2-.08,3.29,0,.12-.07.24-.17.31-1,.81-2.67,2.24-3.38,2.95-.06.05-.11.11-.15.18-.07.11-.14.23-.2.35-.09-.26-.16-.53-.21-.8-.02-.1-.02-.2,0-.3.15-.75.34-1.49.58-2.21,0-.02,0-.04,0-.06v-.13c-.41.88-.78,1.78-1.1,2.7-.03.09-.03.19,0,.27.1.29.4,1.02.54,1.32,0,0,.32-.61.51-.91.05-.08.12-.16.19-.23.56-.52,2.58-2.2,3.52-2.91.1-.07.18-.17.2-.29.4-1.54.52-3.13.35-4.71,0-.06-.03-.12-.06-.18" fill="#fff"/>
      <path id="Trazado_995" d="M25.85,15.79c.04-.07.05-.14.04-.22-.03-.18-.08-.4-.12-.56,0-.03-.03-.06-.06-.07l-.28-.14s-.08-.02-.12-.02c-.68.12-1.41.26-1.95.39-.04.01-.08.04-.11.08l-.17.29s0,.04.01.05c0,0,0,0,.01,0,.14.03.44.08.54.1.04.01.09,0,.13-.02.34-.14.91-.36,1.33-.51.03-.01.07-.01.1,0l.19.06s.05.03.07.05c.05.09.11.2.14.26.02.06.01.12-.03.17-.14.21-.39.53-.56.74-.04.04-.05.1-.03.16.1.34.31,1.04.43,1.37.01.04.04.07.07.1l.16.15s-.25-1.18-.32-1.52c-.01-.05,0-.11.02-.15.14-.2.38-.56.49-.77" fill="#fff"/>
      <path id="Trazado_996" d="M31.98,16.76c-.01-.08-.06-.14-.12-.18-.93-.67-1.93-1.25-2.97-1.73-.11-.04-.22-.05-.33,0-.39.14-1.02.41-1.67.71,0,0,.29.02.42.04.05,0,.11,0,.16-.01.2-.05.55-.14.83-.21.14-.03.28,0,.39.08.38.28,1,.78,1.39,1.11.07.06.15.11.23.14.6.24.86.36,1,.43.09.05.16.14.19.24.16.72.26,1.45.31,2.19.01.12,0,.25-.05.36-.23.57-.5,1.12-.82,1.65-.02.04-.05.07-.08.09-.08.07-.23.19-.34.27-.02.02-.03.04-.03.07,0,.26-.05.76-.05.76.63-.83,1.17-1.71,1.61-2.65.03-.06.06-.13.06-.2.11-1.05.06-2.11-.14-3.15" fill="#fff"/>
      <path id="Trazado_997" d="M24.33,29.68c-.14-.3-.84-1.97-1.03-2.61-.06-.17-.08-.36-.05-.54.19-1.48.46-2.95.81-4.41.02-.05.02-.11,0-.16-.02-.13-.1-.58-.1-.58-.59,1.45-1.09,2.95-1.5,4.46-.06.16-.06.33,0,.49.56,1.32,1.21,2.61,1.94,3.85l-.05-.39s-.01-.07-.03-.11" fill="#fff"/>
      <path id="Trazado_998" d="M23.24,29.77s-.27-.17-.35-.23c-.06-.03-.11-.07-.16-.12-1.15-1.22-2.19-2.55-3.1-3.96-.09-.13-.14-.28-.13-.43.01-.2.05-.59.09-.82.01-.13.08-.26.18-.34.33-.3.87-.84,1.15-1.13.1-.09.19-.2.25-.33.26-.48,1.04-2.19,1.31-2.9.04-.09.05-.19.03-.29-.05-.37-.34-1.32-.34-1.32l-.03.32s0,.04,0,.07c.06.32.09.64.11.96,0,.08-.01.16-.06.23-.86,1.4-1.84,2.73-2.91,3.98-.09.1-.15.22-.17.35-.05.24-.11.78-.14,1.21-.03.2.02.4.14.55.95,1.39,2.04,2.69,3.25,3.86.04.04.09.07.14.09.23.12.86.44.86.44l-.1-.17s-.01-.02-.03-.03" fill="#fff"/>
      <path id="Trazado_999" d="M20.33,15.82l1.24-.39c.07-.02.13-.07.17-.14l.66-1.14s0-.04-.01-.05c0,0-.02,0-.02,0h-.57c-.05,0-.11.02-.16.03-.55.19-1.08.42-1.59.69-.05.03-.09.06-.12.1l-.6.74s-.04.05-.07.06l-.39.16s-.03.02-.04.04l-.02.04s.82-.03,1.1-.05c.14,0,.28-.04.42-.08" fill="#fff"/>
      <path id="Trazado_1000" d="M22.61,13.12c1.57-.12,3.37-.08,3.8-.07.06,0,.13.01.19.03l.32.11c-.79.04-2.69.21-3.46.34l.27.04s.04,0,.06,0c.57-.03,1.68-.07,2.17-.08.1,0,.21.02.3.06.28.11.86.37,1.09.49.1.06.22.09.33.09.25.01.65.04.94.07.08,0,.15.03.22.07.62.32,1.21.67,1.79,1.05.03.02.06.03.09.04l.24.05s-.77-.79-1.07-1.06c-.04-.04-.09-.07-.14-.1-.9-.53-1.82-1.01-2.76-1.44-.09-.04-.19-.06-.29-.07-1.67-.12-3.34-.11-5.01.02-.09,0-.17.05-.22.12-.06.08-.14.22-.22.35-.04.06-.09.12-.14.17-.25.22-.66.57-.93.77-.02.01-.03.03-.05.04-.11.08-.47.32-.54.36-.02.01-.04.03-.05.05-.02.03-.13.17-.13.17,1.08-.62,2.48-1.39,2.96-1.6.07-.03.15-.05.22-.06" fill="#fff"/>
      <path id="Trazado_1001" d="M17.5,16.59s-.03.03-.05.05c-.97.69-1.52,1.14-1.73,1.32-.09.09-.17.17-.25.25s-.08.1-.09.15,0,.11,0,.15c0,.02,0,.04.02.06.02.02.09.11.11.13,0,0,.02.01.03,0,.15-.1.35-.25.53-.39.02-.02.04-.03.05-.06.03-.06.06-.12.09-.18.01-.03.04-.05.07-.07l.15-.09c-.04.16-.09.31-.14.46-.01.03-.03.06-.06.08-.14.15-.4.44-.53.6-.04.05-.04.12,0,.17.16.23.33.44.52.64.03.04.07.07.11.1.03.02.07.04.11.05,0,0,.12-.6.18-.78.02-.07.07-.12.14-.13.64-.16,2.01-.39,2.01-.39-.14-.17-.63-.67-.78-.8-.04-.04-.09-.06-.14-.06-.18-.02-.76-.06-.76-.06,0,0,.05-.06.09-.1.03-.03.06-.05.1-.07.71-.25,1.67-.61,2.23-.84.11-.04.2-.1.27-.19.04-.04.13-.14.18-.2,0-.01.01-.02.02-.04v-.05s-.23.18-.32.24c-.07.05-.16.09-.24.11-.2.05-.57.14-.79.19-.05.02-.1.01-.14,0-.04-.01-.1-.04-.14-.06-.03-.02-.07-.02-.11-.01-.19.04-.73.18-.73.18l.26-.23s.05-.03.08-.04c.18-.07.41-.15.6-.23.04,0,.06-.04.06-.08.01-.15.06-.41.08-.55,0-.04.02-.07.05-.09.11-.09.52-.4.62-.48l.02-.02.11-.14c-.29.17-.82.48-1.09.65-.1.06-.2.13-.29.2-.01,0-.02.02-.03.03-.07.09-.36.47-.47.6" fill="#fff"/>
      <path id="Trazado_1002" d="M35.99,7.97c-7.93-1.38-16.05-1.38-23.98,0-.06,1.64-.13,4.17-.02,6.31.07,4.12,1.21,8.15,3.32,11.69,2.11,3.3,5.12,5.92,8.69,7.54,3.56-1.62,6.58-4.24,8.69-7.54,2.11-3.54,3.25-7.57,3.32-11.69.12-2.15.05-4.68-.01-6.31M35.54,14.26c-.06,4.04-1.18,7.99-3.25,11.47-2.02,3.17-4.9,5.69-8.3,7.28-3.4-1.59-6.28-4.11-8.3-7.28-2.06-3.47-3.18-7.43-3.24-11.46-.08-1.54-.08-3.47,0-5.89,7.64-1.29,15.45-1.29,23.09,0,.08,2.43.08,4.36,0,5.89" fill="#fff"/>
      <path id="Trazado_1003" d="M23.51,10.86c-.4,0-.61-.07-.61-.46v-.73c0-.37.18-.49.55-.49.53,0,1.06,0,1.59,0v.27c-.57,0-1.14,0-1.7,0-.08,0-.15.06-.15.14v.84c0,.08.07.15.15.15.51,0,1.02,0,1.53,0v-.45c-.3,0-.59,0-.89,0v-.27c.39,0,.78,0,1.18,0v.99c-.55,0-1.1-.01-1.65,0" fill="#fff"/>
      <path id="Trazado_1004" d="M15.86,9.6c-.57.06-1.14.12-1.7.2v1.67c.1-.01.2-.02.3-.04v-.52c.47-.06.94-.11,1.41-.16.34-.03.53-.18.53-.53v-.19c0-.34-.19-.48-.53-.44M16.11,10.33c-.01.08-.07.14-.15.15-.5.05-1,.11-1.49.17v-.62c.5-.06,1-.12,1.49-.17.08,0,.14.04.15.12,0,0,0,0,0,0v.34Z" fill="#fff"/>
      <path id="Trazado_1005" d="M19.18,9.6v-.27c-.71.04-1.42.1-2.13.16v1.67c.71-.06,1.42-.12,2.13-.16v-.27c-.62.04-1.23.08-1.84.14v-.45c.55-.05,1.09-.09,1.64-.12v-.27c-.55.03-1.09.08-1.64.12v-.41c.61-.05,1.23-.1,1.84-.14" fill="#fff"/>
      <path id="Trazado_1006" d="M28.02,9.55v-.27c-.71-.04-1.42-.06-2.14-.08v1.68c.71.02,1.42.04,2.14.08v-.27c-.62-.03-1.23-.06-1.85-.07v-.45c.55.01,1.1.04,1.64.06v-.27c-.55-.03-1.1-.05-1.64-.06v-.41c.61.02,1.23.04,1.85.07" fill="#fff"/>
      <path id="Trazado_1007" d="M20.51,10.93c-.38.02-.61-.06-.61-.44v-1.21c.1,0,.19-.01.29-.01v1.26c0,.08.07.14.14.14,0,0,0,0,.01,0,.46-.02.93-.04,1.39-.05.08,0,.15-.06.15-.14,0,0,0,0,0,0v-1.27c.1,0,.2,0,.3,0v1.22c0,.39-.2.47-.61.48-.35.01-.71.02-1.06.04" fill="#fff"/>
      <path id="Trazado_1008" d="M29.19,9.62c-.08,0-.14.05-.15.12,0,0,0,.01,0,.02v.83c0,.08.07.15.15.16.48.03.96.07,1.44.11.08,0,.15-.06.15-.14v-.83c0-.09-.07-.16-.15-.17-.48-.04-.96-.08-1.44-.11M29.35,11.04c-.4-.03-.61-.1-.61-.5v-.75c0-.38.19-.45.61-.43.37.03.74.05,1.11.08.37.03.61.13.61.52v.75c0,.38-.21.44-.61.41-.37-.03-.74-.06-1.11-.08" fill="#fff"/>
      <path id="Trazado_1009" d="M33.84,9.8c-.75-.09-1.49-.18-2.24-.25v.27c.33.03.65.07.98.1v1.41l.3.03v-1.4c.32.04.65.08.97.11v-.27Z" fill="#fff"/>
    </g>
  </g>
</svg>