<?xml version="1.0" encoding="UTF-8"?>
<svg id="Capa_1" xmlns="http://www.w3.org/2000/svg" width="48" height="48" xmlns:xlink="http://www.w3.org/1999/xlink" viewBox="0 0 48 48">
  <defs>
    <clipPath id="clippath">
      <rect width="48" height="48" fill="none"/>
    </clipPath>
  </defs>
  <g clip-path="url(#clippath)">
    <g id="Grupo_788">
      <path id="Trazado_1231" d="M23,37.91c-.85,0-1.28-.15-1.29-.98v-1.55c0-.78.38-1.02,1.17-1.03h3.36s0,.57,0,.57h-3.6c-.17.01-.31.14-.32.31v1.78c.02.17.15.31.33.32h3.23v-.96h-1.88v-.57h2.48s0,2.1,0,2.1h-3.49Z" fill="#fff"/>
      <path id="Trazado_1232" d="M6.8,34.4h-3.61v3.56h.63v-1.1h2.98c.72,0,1.13-.27,1.12-1.01v-.4c0-.73-.4-1.04-1.13-1.04M7.32,35.99c-.02.17-.16.29-.32.29h-3.17s0-1.3,0-1.3h3.17c.17,0,.31.12.33.29v.72Z" fill="#fff"/>
      <path id="Trazado_1233" d="M13.84,34.95v-.57h-4.51s0,3.56,0,3.56h4.51v-.58h-3.9s0-.95,0-.95h3.47v-.58h-3.47s0-.87,0-.87h3.9Z" fill="#fff"/>
      <path id="Trazado_1234" d="M32.52,34.91v-.57h-4.51s0,3.56,0,3.56h4.51v-.58h-3.9s0-.95,0-.95h3.47v-.58h-3.47s0-.87,0-.87h3.9Z" fill="#fff"/>
      <path id="Trazado_1235" d="M16.66,37.93c-.8,0-1.28-.18-1.29-.98v-2.57s.6,0,.6,0v2.68c.01.17.16.31.33.3,0,0,0,0,0,0h2.94c.17,0,.3-.13.31-.3,0,0,0,0,0-.01v-2.68s.62,0,.62,0v2.57c0,.81-.42.98-1.28.99h-2.25Z" fill="#fff"/>
      <path id="Trazado_1236" d="M34.99,34.91c-.17,0-.32.14-.32.31,0,0,0,.01,0,.02v1.76c0,.18.15.32.33.32h3.04c.17-.02.31-.16.32-.33v-1.76c0-.18-.15-.32-.33-.32h-3.04ZM35.35,37.88c-.85,0-1.28-.14-1.29-.98v-1.59c0-.8.39-.98,1.28-.99h2.34c.77,0,1.28.16,1.29.98v1.59c0,.8-.44.98-1.28.99h-2.34Z" fill="#fff"/>
      <path id="Trazado_1237" d="M44.86,34.31h-4.76v.58h2.07s0,2.97,0,2.97h.63v-2.98s2.05,0,2.05,0v-.58Z" fill="#fff"/>
      <path id="Trazado_1238" d="M4.57,40.46v.28c0,.52-.3.7-.8.7H1.68v.77h-.44v-2.48s2.53,0,2.53,0c.5,0,.8.22.8.73M4.13,40.37c0-.13-.11-.24-.25-.24,0,0-.01,0-.02,0H1.68v.91h2.22c.12,0,.21-.09.23-.2v-.47Z" fill="#fff"/>
      <path id="Trazado_1239" d="M8.27,41.41l.49.79h-.46l-.46-.77h-1.92v.77h-.44v-2.48s2.53,0,2.53,0c.56,0,.79.22.79.73v.28c.05.33-.17.63-.5.68-.01,0-.02,0-.03,0M8.36,40.33c0-.15-.08-.21-.23-.21h-2.22v.92h2.22c.12,0,.22-.09.23-.21v-.5Z" fill="#fff"/>
      <path id="Trazado_1240" d="M9.56,41.51v-1.11c0-.52.22-.69.69-.69h2.09c.5,0,.68.17.68.69v1.11c0,.57-.3.69-.68.69h-2.08c-.4,0-.69-.12-.69-.68M12.36,41.79c.11.01.21-.07.22-.18,0-.01,0-.02,0-.03v-1.24c.01-.11-.07-.21-.18-.22-.01,0-.02,0-.03,0h-2.13c-.11-.01-.21.06-.23.17,0,.02,0,.04,0,.06v1.24c0,.11.09.21.2.21,0,0,.02,0,.03,0h2.13Z" fill="#fff"/>
      <path id="Trazado_1241" d="M14.43,40.11v.71h2.43s0,.4,0,.4h-2.43v.96h-.44v-2.48s3.16,0,3.16,0v.41h-2.71Z" fill="#fff"/>
      <path id="Trazado_1242" d="M21.21,41.76v.41h-3.19s0-2.48,0-2.48h3.16s0,.4,0,.4h-2.72v.62h2.43s0,.4,0,.4h-2.43v.66h2.75Z" fill="#fff"/>
      <path id="Trazado_1243" d="M21.91,41.76h2.79c.16,0,.23-.07.23-.21v-.22c0-.16-.07-.22-.23-.22h-2.27c-.41,0-.57-.16-.57-.59v-.23c0-.44.18-.62.62-.62h2.66s0,.4,0,.4h-2.65c-.16,0-.23.07-.23.22v.22c0,.14.07.2.23.2h2.06c.56,0,.78.18.79.62v.22c0,.43-.19.6-.66.6h-2.75s0-.4,0-.4Z" fill="#fff"/>
      <path id="Trazado_1244" d="M25.9,41.75h2.79c.16,0,.23-.07.23-.21v-.22c0-.16-.07-.22-.23-.22h-2.27c-.41,0-.57-.16-.57-.59v-.23c0-.44.18-.62.62-.62h2.66s0,.4,0,.4h-2.65c-.16,0-.23.07-.23.22v.22c0,.14.07.2.23.2h2.06c.56,0,.78.18.79.62v.22c0,.43-.19.6-.66.6h-2.75s0-.4,0-.4Z" fill="#fff"/>
      <path id="Trazado_1245" d="M30.05,39.67h.44v2.48s-.44,0-.44,0v-2.48Z" fill="#fff"/>
      <path id="Trazado_1246" d="M31.47,41.46v-1.11c0-.52.22-.69.69-.69h2.09c.5,0,.68.16.68.68v1.11c0,.57-.3.69-.68.69h-2.08c-.4,0-.69-.12-.69-.68M34.27,41.73c.11.01.2-.07.22-.18,0-.01,0-.02,0-.04v-1.24c.01-.11-.07-.21-.18-.22-.01,0-.02,0-.03,0h-2.13c-.11-.01-.21.07-.23.18,0,.02,0,.03,0,.05v1.24c0,.11.09.21.2.21,0,0,.02,0,.03,0h2.13Z" fill="#fff"/>
      <path id="Trazado_1247" d="M39.03,39.65v2.48s-.65,0-.65,0l-2.04-2.13v2.14h-.44v-2.48s.66,0,.66,0l2.03,2.12v-2.13s.44,0,.44,0Z" fill="#fff"/>
      <path id="Trazado_1248" d="M42.58,41.5h-2.14s-.3.62-.3.62h-.45l1.17-2.49h1.29l1.21,2.48h-.49l-.3-.62ZM42.38,41.1l-.51-1.05h-.74l-.5,1.06h1.75Z" fill="#fff"/>
      <path id="Trazado_1249" d="M44.45,39.63v2.08s2.32,0,2.32,0v.41h-2.75s0-2.48,0-2.48h.45Z" fill="#fff"/>
      <path id="Trazado_1250" d="M18.75,21.05s-.1-.01-.12-.06c0,0,0,0,0-.01-.03-.13-.11-.59-.13-.72-.02-.05,0-.11.06-.13,0,0,.01,0,.02,0,.32-.11.87-.29,1.31-.45.09-.03.17-.1.21-.19.18-.29.63-1.09.84-1.5.03-.06.03-.13,0-.19l-.09-.16c-.04-.06-.1-.11-.18-.13-.44-.11-1.03-.26-1.31-.32-.06-.02-.13-.01-.19,0l-.05.02c.43.15.79.27,1.25.45.04.02.08.06.09.1l.04.14c.02.06.01.12-.02.17-.23.43-.5.84-.8,1.22-.04.05-.09.09-.15.11-.26.09-.74.26-.94.31-.03.01-.07,0-.09-.02-.16-.12-.32-.26-.47-.4,0,0-.02.32-.03.46,0,.02,0,.03,0,.05.05.13.15.36.19.48.01.03.02.06.03.09.05.21.2.82.2.82.02.09.07.13.16.11.11-.02.44-.12.58-.17.02,0,.04-.02.06-.03l.24-.22s-.51.13-.7.16" fill="#fff"/>
      <path id="Trazado_1251" d="M19.51,19.16c.22-.27.41-.56.59-.86l-1.41,1.17c.23-.07.55-.18.74-.25.03-.01.06-.03.09-.06" fill="#fff"/>
      <path id="Trazado_1252" d="M19.53,14.46l-.25.02s-.04.02-.04.04l-.02.3s0,.02.02.02c0,0,0,0,0,0l.26-.06s.06-.03.08-.06c.03-.07.04-.16,0-.23,0-.02-.03-.04-.06-.03" fill="#fff"/>
      <path id="Trazado_1253" d="M17.07,18.23l.39.45.11-.78c-.21.03-.39.15-.5.33" fill="#fff"/>
      <path id="Trazado_1254" d="M29.62,18.12c-.57-.84-1.21-1.63-1.92-2.35-.04-.04-.08-.07-.13-.09l-.16-.07s.29,1.24.42,1.92c.02.09.06.17.12.23.36.34.68.72.97,1.13.11.15.17.33.18.52.07,1.03.05,2.07-.07,3.1,0,.12-.06.22-.16.29-.94.77-2.51,2.12-3.18,2.78-.05.05-.1.11-.14.17-.07.11-.13.22-.18.33-.08-.25-.15-.5-.2-.75-.02-.09-.02-.19,0-.29.14-.71.32-1.4.54-2.09,0-.02,0-.03,0-.05v-.12c-.39.83-.74,1.68-1.04,2.55-.03.08-.03.18,0,.26.09.28.38.96.51,1.24,0,0,.3-.57.48-.86.05-.08.11-.15.18-.22.53-.49,2.42-2.08,3.31-2.75.1-.06.17-.17.19-.28.38-1.45.49-2.95.32-4.43,0-.06-.03-.12-.06-.17" fill="#fff"/>
      <path id="Trazado_1255" d="M25.72,14.12c.04-.06.05-.14.04-.21-.03-.17-.08-.38-.11-.53,0-.03-.03-.05-.05-.07l-.27-.13s-.07-.02-.11-.02c-.65.12-1.32.25-1.84.37-.04,0-.08.04-.1.07l-.16.28s0,.04.01.05c0,0,0,0,.01,0,.14.02.41.07.5.09.04.01.09,0,.12-.01.33-.14.86-.34,1.25-.49.03,0,.06,0,.09,0l.18.06s.05.03.06.05c.05.09.1.19.13.25.02.05,0,.12-.03.16-.13.19-.36.5-.52.69-.03.04-.05.1-.03.15.09.32.3.98.41,1.29.01.04.03.07.06.09l.15.14s-.24-1.11-.3-1.43c-.01-.05,0-.1.02-.14.13-.19.35-.53.46-.73" fill="#fff"/>
      <path id="Trazado_1256" d="M31.49,15.02c-.01-.07-.06-.13-.12-.17-.88-.63-1.81-1.17-2.8-1.62-.1-.04-.21-.04-.31,0-.37.14-.96.39-1.57.68,0,0,.27.02.4.03.05,0,.11,0,.16-.01.19-.05.52-.14.78-.2.13-.03.26,0,.37.08.36.27.94.73,1.31,1.04.07.05.14.1.22.13.56.23.81.34.94.4.09.05.15.13.18.22.15.68.25,1.37.3,2.06,0,.12,0,.23-.05.34-.21.54-.47,1.06-.77,1.55-.02.04-.05.07-.08.09-.08.07-.22.18-.32.26-.02.02-.03.04-.03.06,0,.24-.05.71-.05.71.59-.78,1.1-1.62,1.51-2.5.03-.06.05-.12.06-.19.1-.99.06-1.99-.13-2.97" fill="#fff"/>
      <path id="Trazado_1257" d="M24.32,27.19c-.13-.29-.8-1.85-.98-2.46-.06-.16-.08-.34-.05-.51.18-1.4.43-2.78.75-4.15.02-.05.02-.11,0-.16-.02-.12-.09-.54-.09-.54-.55,1.37-1.02,2.78-1.4,4.21-.06.15-.06.31,0,.46.53,1.24,1.14,2.45,1.83,3.62l-.05-.37s-.01-.07-.03-.1" fill="#fff"/>
      <path id="Trazado_1258" d="M23.29,27.29s-.25-.16-.33-.21c-.05-.03-.1-.07-.15-.11-1.09-1.15-2.07-2.39-2.93-3.72-.08-.12-.13-.26-.11-.41.01-.19.05-.56.08-.77.01-.13.07-.24.17-.33.31-.28.82-.79,1.08-1.07.09-.09.17-.19.23-.31.24-.45.98-2.06,1.23-2.73.04-.09.05-.18.03-.27-.09-.42-.2-.83-.33-1.24l-.02.3s0,.04,0,.06c.05.3.09.6.11.91,0,.08-.01.15-.05.22-.81,1.32-1.72,2.58-2.73,3.75-.09.09-.14.21-.16.33-.05.22-.1.73-.13,1.14-.03.19.02.37.14.52.9,1.31,1.93,2.52,3.06,3.63.04.03.08.06.13.09.22.12.81.41.81.41l-.09-.16s-.01-.02-.02-.03" fill="#fff"/>
      <path id="Trazado_1259" d="M20.52,14.15l1.17-.37c.07-.02.13-.07.17-.13l.62-1.08s0-.04-.01-.05c0,0-.01,0-.02,0h-.54s-.1.02-.15.03c-.51.18-1.02.4-1.5.65-.04.02-.08.06-.11.09l-.56.69s-.04.04-.07.05l-.37.16s-.03.02-.04.04l-.02.04s.77-.03,1.03-.05c.13-.01.27-.04.39-.08" fill="#fff"/>
      <path id="Trazado_1260" d="M22.66,11.61c1.48-.12,3.17-.09,3.58-.08.06,0,.12.01.18.03l.3.1c-.74.04-2.53.2-3.25.33l.25.04s.04,0,.06,0c.54-.03,1.58-.07,2.04-.08.1,0,.2.01.29.05.27.1.81.35,1.03.46.1.05.21.08.32.08.24,0,.61.03.88.06.07,0,.15.03.21.06.58.3,1.14.63,1.69.99.03.02.06.03.09.04l.23.05s-.73-.74-1.01-.99c-.04-.04-.09-.07-.13-.09-.84-.49-1.71-.94-2.6-1.35-.09-.04-.18-.06-.28-.07-1.57-.11-3.15-.1-4.71.03-.08,0-.16.05-.21.12-.05.07-.13.21-.21.33-.04.06-.08.11-.13.16-.23.21-.62.54-.87.72-.02.01-.03.02-.05.04-.1.07-.45.3-.51.34-.02.01-.03.03-.05.04-.02.03-.12.16-.12.16,1.03-.58,2.34-1.31,2.79-1.51.07-.03.14-.05.21-.05" fill="#fff"/>
      <path id="Trazado_1261" d="M17.87,14.89s-.03.03-.05.05c-.92.66-1.42,1.07-1.63,1.24-.08.08-.16.16-.23.24s-.08.09-.09.15,0,.11,0,.14c0,.02,0,.04.02.05.01.02.08.1.1.12s.02.01.03,0c.14-.09.33-.24.5-.37.02-.02.04-.03.05-.05.03-.05.07-.12.09-.17.01-.03.03-.05.06-.06.03-.02.14-.09.14-.09-.03.15-.08.29-.13.43-.01.03-.03.06-.05.08-.14.14-.38.41-.5.56-.04.05-.03.11,0,.16.15.21.31.41.49.6.03.03.07.06.11.09.03.02.06.03.1.05,0,0,.12-.56.16-.74.02-.06.07-.11.13-.13.6-.15,1.9-.37,1.9-.37-.14-.16-.59-.63-.73-.75-.04-.03-.08-.06-.13-.06-.17-.02-.72-.06-.72-.06l.08-.09s.06-.05.09-.06c.67-.24,1.57-.58,2.1-.8.1-.04.19-.1.26-.18.04-.04.12-.13.17-.19,0-.01.01-.02.02-.03v-.05s-.22.17-.31.23c-.07.05-.15.09-.23.11-.19.05-.53.13-.74.18-.04.01-.09.01-.13,0-.03-.01-.09-.04-.13-.06-.03-.02-.07-.02-.1-.01-.19.04-.68.17-.68.17,0,0,.23-.21.25-.22.02-.02.04-.03.07-.04.17-.07.39-.15.56-.22.04-.02.06-.04.06-.08.01-.14.05-.39.07-.52,0-.03.02-.06.05-.08.1-.08.49-.38.59-.45l.02-.02.11-.13c-.28.16-.77.45-1.02.62-.09.06-.18.12-.27.19-.01.01-.02.02-.03.03-.07.08-.34.44-.43.57" fill="#fff"/>
      <path id="Trazado_1262" d="M35.25,6.74c-7.47-1.28-15.11-1.27-22.58.05-.05,1.54-.11,3.92,0,5.94.07,3.88,1.16,7.67,3.15,11,1.99,3.1,4.84,5.56,8.19,7.08,3.35-1.53,6.18-4,8.16-7.11,1.98-3.34,3.05-7.13,3.1-11.01.11-2.02.03-4.4-.03-5.94M34.84,12.66c-.05,3.8-1.1,7.53-3.03,10.8-1.89,2.99-4.59,5.37-7.79,6.87-3.21-1.48-5.92-3.85-7.82-6.83-1.95-3.26-3.02-6.98-3.08-10.79-.08-1.45-.09-3.27-.01-5.55,7.19-1.23,14.54-1.24,21.73-.05.08,2.28.09,4.1.01,5.55" fill="#fff"/>
      <path id="Trazado_1263" d="M23.51,9.48c-.38,0-.57-.06-.57-.43v-.69c0-.35.17-.46.52-.46.5,0,1,0,1.5,0v.26c-.53,0-1.07,0-1.6,0-.08,0-.14.06-.14.14v.79c0,.08.07.14.14.14.48,0,.96,0,1.44,0v-.43h-.83v-.26c.37,0,.74,0,1.11,0v.94c-.52,0-1.04,0-1.55,0" fill="#fff"/>
      <path id="Trazado_1264" d="M16.3,8.31c-.53.06-1.07.12-1.6.19v1.58l.28-.04v-.49c.44-.06.88-.11,1.32-.15.32-.03.5-.17.5-.5v-.18c0-.32-.18-.45-.5-.41M16.53,8.99c0,.08-.07.13-.14.14-.47.05-.94.1-1.41.16v-.58c.47-.06.94-.11,1.41-.16.07,0,.14.04.15.11,0,0,0,0,0,0v.32" fill="#fff"/>
      <path id="Trazado_1265" d="M19.43,8.3v-.25c-.67.04-1.34.09-2.01.15v1.58c.67-.06,1.34-.11,2.01-.16v-.25c-.58.04-1.16.08-1.73.13v-.43c.52-.04,1.03-.08,1.54-.12v-.25c-.52.03-1.03.07-1.54.12v-.39c.58-.05,1.16-.09,1.74-.13" fill="#fff"/>
      <path id="Trazado_1266" d="M27.75,8.24v-.25c-.67-.03-1.34-.06-2.01-.07v1.58c.67.02,1.34.04,2.01.07v-.25c-.58-.03-1.16-.05-1.74-.07v-.43c.52.01,1.03.03,1.55.06v-.26c-.52-.02-1.03-.04-1.55-.06v-.39c.58.02,1.16.04,1.74.07" fill="#fff"/>
      <path id="Trazado_1267" d="M20.68,9.55c-.36.02-.57-.05-.57-.41v-1.14l.27-.02v1.19c0,.07.06.13.14.13,0,0,0,0,0,0,.44-.02.87-.04,1.31-.05.08,0,.14-.06.14-.14v-1.19h.28v1.13c0,.36-.19.44-.57.45-.33,0-.67.02-1,.04" fill="#fff"/>
      <path id="Trazado_1268" d="M28.85,8.3c-.07,0-.14.05-.14.12,0,0,0,.01,0,.02v.78c0,.08.06.15.14.15.45.03.9.06,1.35.09.08,0,.14-.06.14-.13v-.78c0-.08-.06-.15-.14-.16-.45-.04-.9-.07-1.35-.1M29.01,9.63c-.38-.02-.57-.09-.57-.47v-.71c0-.36.18-.43.57-.4.35.02.69.05,1.04.08s.57.12.57.49v.71c0,.35-.2.42-.57.39-.35-.03-.69-.05-1.04-.08" fill="#fff"/>
      <path id="Trazado_1269" d="M33.23,8.46c-.7-.09-1.41-.16-2.11-.23v.26c.31.03.61.06.92.09v1.32l.28.03v-1.32c.3.03.61.07.91.11v-.26" fill="#fff"/>
    </g>
  </g>
</svg>