<?xml version="1.0" encoding="UTF-8"?>
<svg id="Capa_1" xmlns="http://www.w3.org/2000/svg" width="48" height="48" xmlns:xlink="http://www.w3.org/1999/xlink" viewBox="0 0 48 48">
  <defs>
    <clipPath id="clippath">
      <rect width="48" height="48" fill="none"/>
    </clipPath>
  </defs>
  <g clip-path="url(#clippath)">
    <g id="Grupo_721">
      <path id="Trazado_978" d="M13.02,24.12c0,4.02-1.85,5.56-5.56,5.56s-5.4-2.07-5.4-5.24v-2.01h4.08v1.64c0,1.11,0,2.17,1.22,2.17s1.11-1.43,1.11-2.07v-9.37h4.55v9.32Z" fill="#fff" fill-rule="evenodd"/>
      <path id="Trazado_979" d="M17.1,22.85c.02-.98.83-1.77,1.81-1.75.01,0,.03,0,.04,0,.92.02,1.66.78,1.64,1.71,0,.01,0,.03,0,.04h-3.49ZM24.14,24.97c0-4.13-1.69-6.46-5.51-6.46-3.07,0-5.08,2.49-5.08,5.56-.23,2.84,1.89,5.32,4.73,5.55.22.02.45.02.67,0,2.22.15,4.27-1.22,4.98-3.34h-3.44c-.37.48-.94.75-1.54.74-1.16,0-1.8-.85-1.91-2.07h7.1Z" fill="#fff" fill-rule="evenodd"/>
      <path id="Trazado_980" d="M27.95,22.85c.02-.98.83-1.77,1.82-1.75.01,0,.03,0,.04,0,.92.02,1.66.78,1.64,1.71,0,.01,0,.03,0,.04h-3.49ZM34.99,24.97c0-4.13-1.69-6.46-5.51-6.46-3.07,0-5.08,2.49-5.08,5.56-.23,2.84,1.89,5.32,4.73,5.55.22.02.45.02.67,0,2.22.13,4.26-1.23,4.98-3.34h-3.45c-.36.48-.93.75-1.53.74-1.17,0-1.8-.85-1.91-2.07h7.1Z" fill="#fff" fill-rule="evenodd"/>
      <path id="Trazado_981" d="M38.91,24.07c0-1.27.26-2.59,1.59-2.59s1.64,1.32,1.64,2.59-.32,2.59-1.64,2.59-1.59-1.38-1.59-2.59M35.36,32.75h3.65v-4.55h.05c.56.91,1.57,1.46,2.65,1.43,3.23,0,4.08-3.02,4.08-5.51,0-2.65-1.27-5.61-4.03-5.61-1.15-.13-2.27.43-2.86,1.43v-1.17h-3.54v13.98Z" fill="#fff" fill-rule="evenodd"/>
      <path id="Trazado_982" d="M44.16,30.9c-.03-.41.28-.77.69-.8s.77.28.8.69c0,.04,0,.07,0,.11,0,.41-.33.74-.74.74s-.74-.33-.74-.74M43.94,30.9c.02.51.44.91.95.9.49-.01.89-.41.9-.9,0-.49-.39-.9-.89-.9,0,0,0,0-.01,0-.5-.03-.93.36-.95.86,0,.01,0,.03,0,.04M44.53,31.43h.16v-.48h.21l.26.48h.21l-.32-.48c.16,0,.26-.11.26-.32,0-.16-.11-.26-.37-.26h-.42v1.06ZM44.69,30.48h.26c.11,0,.21.05.21.16,0,.16-.16.21-.26.21h-.21v-.37Z" fill="#fff" fill-rule="evenodd"/>
    </g>
  </g>
</svg>