<?xml version="1.0" encoding="UTF-8"?>
<svg id="Capa_1" xmlns="http://www.w3.org/2000/svg" width="74" height="48" xmlns:xlink="http://www.w3.org/1999/xlink" viewBox="0 0 74 48">
  <defs>
    <clipPath id="clippath">
      <rect y="0" width="74" height="48" fill="none"/>
    </clipPath>
    <clipPath id="clippath-1">
      <rect x="1.2" y="19.55" width="71" height="9" fill="none"/>
    </clipPath>
  </defs>
  <g clip-path="url(#clippath)">
    <g>
      <path id="Trazado_967" d="M62.47,19.45l-8.76,8.78h4.29l8.74-8.78h-4.28Z" fill="#d90016"/>
      <path id="Trazado_968" d="M68.52,19.45l-8.76,8.78h4.29l8.74-8.78h-4.27Z" fill="#d90016"/>
      <g id="Grupo_712">
        <g clip-path="url(#clippath-1)">
          <g id="Grupo_711">
            <path id="Trazado_969" d="M9.07,24.11c-.53.17-1.08.27-1.63.28h-3.69s-.21,0-.21-.17c0,0,.03-1.68.03-1.7s0-.17.22-.17h3.65c.48.02.96.1,1.42.23.48.16.8.45.8.79-.03.34-.26.63-.59.73M10.39,21.92c-.99-.21-1.99-.31-3-.31H1.68c-.15-.01-.3.02-.43.09-.1.08-.15.21-.15.33l-.04,2.72c0,.42.54.39.54.39h5.99c1.11.02,2.22-.1,3.31-.36.88-.26,1.33-.76,1.33-1.4,0-.71-.78-1.2-1.84-1.46" fill="#fff"/>
            <path id="Trazado_970" d="M19.28,24.44c-.79,0-3.28-.04-3.28-1.05,0-1.11,2.69-1.09,3.28-1.09s3.49.05,3.49,1.09c0,1.11-2.7,1.05-3.49,1.05M19.26,21.56c-.23,0-5.85-.16-5.85,1.82,0,1.22,2.02,1.57,3.68,1.73,1.18.11,2.18.1,2.18.1,0,0,.93.03,2.07-.02,1.76-.09,4-.43,4-1.81,0-1.81-5.85-1.82-6.07-1.82" fill="#fff"/>
            <path id="Trazado_971" d="M50.12,21.76v.33s.03.27-.22.27h-6.22s-2.23.01-2.23,1.02,1.89,1.01,2.42,1.01h3.48s.2-.01.2-.18v-.32s-.02-.14-.22-.14h-3.03s-.22,0-.22-.18.01-.4.01-.4c0,0,0-.17.23-.17h5.26s.51-.04.51.38-.01,1.13-.01,1.31-.05.45-.57.45h-5.92c-1.26.03-2.52-.14-3.73-.5-.57-.16-.96-.67-.98-1.26,0-1.26,1.96-1.61,3.27-1.72.66-.05,1.15-.05,1.15-.05h6.63c.05,0,.18,0,.18.15" fill="#fff"/>
            <path id="Trazado_972" d="M61.26,21.62s.25-.02.25.15v.33c0,.13-.03.27-.24.27h-7.15s-.22.02-.22.21v.22c0,.11.09.2.21.2,0,0,0,0,.01,0h6.76s.25,0,.25.17v.41s0,.17-.2.17h-6.79c-.08,0-.25.03-.25.19v.31s0,.15.27.15h7.21s.26,0,.26.16v.42s0,.18-.2.18h-9.54c-.33,0-.6-.06-.6-.49s.04-2.3.05-2.6c.01-.38.16-.44.63-.44h9.28Z" fill="#fff"/>
            <path id="Trazado_973" d="M34.53,24.11c-.53.17-1.08.27-1.63.28h-3.68s-.21,0-.21-.17c0,0,.03-1.68.03-1.7s0-.17.22-.17h3.65c.48.02.96.1,1.42.23.48.16.8.45.8.79-.03.34-.26.63-.59.73M35.84,21.92c-.99-.21-1.99-.31-3-.31h-5.71c-.15-.01-.3.02-.43.09-.1.08-.15.21-.15.33l-.04,2.72c0,.42.54.39.54.39h5.99c1.11.02,2.22-.1,3.31-.36.88-.26,1.33-.76,1.33-1.4,0-.71-.78-1.2-1.84-1.46" fill="#fff"/>
          </g>
        </g>
      </g>
    </g>
  </g>
</svg>