<?xml version="1.0" encoding="UTF-8"?>
<svg id="Capa_1" xmlns="http://www.w3.org/2000/svg" width="48" height="48" xmlns:xlink="http://www.w3.org/1999/xlink" viewBox="0 0 48 48">
  <defs>
    <clipPath id="clippath">
      <rect width="48" height="48" fill="none"/>
    </clipPath>
  </defs>
  <g clip-path="url(#clippath)">
    <g id="Grupo_783-2">
      <path id="Trazado_1224" d="M31.86,22.05h-14.51c.27-2.2-.69-4.37-2.5-5.66-1.16-.86-2.59-1.26-4.03-1.12-3.36.31-5.83,3.29-5.52,6.64,0,.05.01.11.02.16-1.34.18-2.7-.03-3.91-.63-.95-.67-1.48-1.79-1.39-2.95-.3-4.63,2.3-7.33,5.62-8.82,1.11-.46,2.25-.85,3.4-1.16,1.34-.38,2.61-.99,3.74-1.81,3.06-2.19,6.58-3.65,10.29-4.29,2.82-.51,5.69-.73,8.56-.67,5.91-.21,11.41,3.04,14.08,8.32.99,1.61,1.71,3.37,2.13,5.2.34,1.85.1,3.76-.68,5.48-.29.71-.94,1.2-1.71,1.29-.5.07-1,.06-1.56.09.26-2.14-.62-4.26-2.32-5.59-1.17-.94-2.65-1.39-4.14-1.26-3.36.26-5.87,3.2-5.61,6.56,0,.08.01.16.02.23M27.74,13.5h13.51c.36,0,.78-.03.88-.41.07-.31.02-.64-.15-.92-.68-1.01-1.45-1.96-2.29-2.84-3.82-3.64-8.44-4.67-13.54-3.94-3.36.47-6.54,1.79-9.24,3.84-1.18.94-2.3,1.94-3.36,3.01-.18.23-.23.53-.16.8.07.2.4.33.64.44.15.04.31.04.47.02h13.24" fill="#fff"/>
      <path id="Trazado_1225" d="M17.39,40.86l-4.27-10.34c1.24-.52,2.49-.95,3.65-1.55,1.57-.81,3.42-.88,5.04-.17,2.38.9,4.78,1.75,7.17,2.62.67.28,1.22.77,1.57,1.4.64-.26,1.28-.52,1.92-.78,2-.82,4-1.66,6.01-2.47,1.72-.75,3.72-.24,4.88,1.23.96,1.11.85,2.78-.26,3.75-.17.15-.37.28-.57.38-2.41,1.32-4.84,2.62-7.26,3.93-1.81.97-3.62,1.95-5.43,2.93-1.27.75-2.79.94-4.21.51-1.69-.52-3.41-.95-5.11-1.43-.99-.44-2.12-.44-3.12,0" fill="#fff"/>
      <path id="Trazado_1226" d="M9.25,29.4c1.16.02,2.19.76,2.56,1.86l2.96,7.04c.45,1.08.92,2.16,1.36,3.24.59,1.28.03,2.79-1.24,3.38-.03.01-.06.03-.09.04-.86.4-1.74.75-2.63,1.1-1.32.61-2.89.03-3.5-1.3-.03-.07-.06-.15-.09-.22-1.15-2.74-2.28-5.49-3.42-8.24-.31-.75-.63-1.49-.92-2.24-.52-1.23,0-2.64,1.19-3.24,1.04-.5,2.13-.9,3.2-1.32.2-.06.4-.09.61-.1M9.04,34.01c-.65,0-.98.41-.87.88.08.3.19.6.32.89.16.37.59.55.96.39.11-.05.21-.12.29-.22.43-.52-.03-.96-.2-1.4-.1-.25-.39-.43-.5-.54" fill="#fff"/>
      <path id="Trazado_1227" d="M6.84,21.52c-.11-2.53,1.85-4.67,4.38-4.78,2.53-.11,4.67,1.85,4.78,4.38.11,2.51-1.81,4.64-4.32,4.78-2.51.16-4.67-1.74-4.84-4.24,0-.04,0-.09,0-.13" fill="#fff"/>
      <path id="Trazado_1228" d="M33.3,21.25c.04-2.53,2.12-4.55,4.65-4.51s4.55,2.12,4.51,4.65-2.12,4.55-4.65,4.51c0,0-.02,0-.03,0-2.52-.05-4.53-2.13-4.48-4.65,0,0,0,0,0,0" fill="#fff"/>
      <path id="Trazado_1229" d="M28.51,11.98v-5.24c3.53-.72,9.41,1.96,11.47,5.24h-11.47Z" fill="#fff"/>
      <path id="Trazado_1230" d="M27,6.83v5.16h-11.08c3.16-2.69,6.99-4.48,11.08-5.16" fill="#fff"/>
    </g>
  </g>
</svg>