<?xml version="1.0" encoding="UTF-8"?>
<svg id="Capa_1" xmlns="http://www.w3.org/2000/svg" width="48" height="48" xmlns:xlink="http://www.w3.org/1999/xlink" viewBox="0 0 48 48">
  <defs>
    <clipPath id="clippath">
      <rect width="48" height="48" fill="none"/>
    </clipPath>
  </defs>
  <g clip-path="url(#clippath)">
    <g id="Grupo_781-2">
      <path id="Trazado_1214" d="M20.76,9.19c-.31.11-.5.17-.67.24-5.74,2.37-11.48,4.75-17.23,7.1-2.19.73-3.37,3.1-2.64,5.28.33.97,1,1.79,1.89,2.3,4.06,2.69,8.12,5.4,12.16,8.12.58.39,1.07.89,1.46,1.46,2.67,3.96,5.3,7.94,7.95,11.91.28.45.6.86.97,1.23,1.64,1.57,4.24,1.52,5.82-.12.4-.42.71-.91.9-1.45,2.43-5.85,4.82-11.72,7.23-17.58.05-.14.08-.29.11-.43-5.16,2.7-11.48,1.68-15.53-2.51-4.17-4.07-5.16-10.41-2.43-15.55M36.55,2.67c4.17,1.35,7.43,4.62,8.78,8.79.9-2.25,1.85-4.29,2.5-6.41.45-1.49-.08-3.11-1.32-4.04-1.15-1.02-2.79-1.29-4.21-.71-1.05.38-2.07.85-3.11,1.28l-2.64,1.1M11.93,35.08c-.28.18-.54.38-.79.59-2.94,2.93-5.87,5.86-8.8,8.79-.12.12-.33.25-.34.39-.02.34-.06.81.13,1s.66.16,1,.14c.16-.01.3-.24.44-.39,2.9-2.9,5.79-5.79,8.69-8.69.14-.14.35-.28.38-.45.08-.3.08-.61-.01-.91-.08-.2-.41-.29-.7-.48M8.23,31.31c-.2-.26-.36-.64-.55-.66-.37-.06-.76.02-1.07.24-2.03,1.97-4.01,3.98-6,5.98-.36.25-.45.75-.2,1.11.03.05.08.1.12.14.45.45.9.3,1.3-.11,1.97-1.98,3.95-3.97,5.92-5.95.18-.23.34-.48.47-.75M16.69,39.75c-.26.1-.5.23-.72.4-2.04,2.02-4.08,4.05-6.1,6.09-.34.26-.4.74-.14,1.08.03.04.07.08.11.12.28.33.77.37,1.09.1.04-.03.07-.07.11-.11.13-.12.25-.24.38-.37,1.63-1.62,3.25-3.25,4.88-4.88.34-.29.65-.62.92-.98.15-.27.19-.59.11-.9-.07-.22-.4-.36-.64-.55" fill="#161615"/>
      <path id="Trazado_1215" d="M20.76,9.19c-2.73,5.15-1.75,11.48,2.42,15.56,4.05,4.19,10.37,5.21,15.53,2.51-.03.15-.06.29-.11.43-2.4,5.86-4.8,11.73-7.23,17.59-.77,2.14-3.13,3.25-5.27,2.47-.54-.2-1.04-.5-1.45-.9-.37-.37-.69-.79-.97-1.23-2.65-3.97-5.28-7.96-7.95-11.91-.39-.58-.89-1.07-1.47-1.46-4.04-2.73-8.09-5.44-12.16-8.12-2-1.14-2.7-3.69-1.55-5.7.51-.89,1.33-1.56,2.3-1.89,5.75-2.35,11.49-4.73,17.23-7.1.18-.07.36-.13.67-.24" fill="#fff"/>
      <path id="Trazado_1216" d="M36.55,2.67l2.64-1.1c1.04-.43,2.06-.9,3.11-1.28,1.42-.59,3.06-.31,4.21.71,1.24.94,1.77,2.55,1.32,4.04-.65,2.13-1.61,4.16-2.5,6.41-1.34-4.17-4.61-7.44-8.78-8.79" fill="#fff"/>
      <path id="Trazado_1217" d="M11.93,35.08c.29.18.62.28.7.48.09.3.09.61.01.91-.04.17-.24.31-.38.45-2.9,2.89-5.79,5.79-8.69,8.68-.14.14-.29.37-.44.38-.34.03-.81.06-1-.13s-.14-.66-.13-1c0-.13.21-.26.34-.39,2.93-2.93,5.86-5.86,8.8-8.79.25-.22.52-.41.79-.59" fill="#fff"/>
      <path id="Trazado_1218" d="M8.23,31.31c-.13.26-.29.52-.47.75-1.97,1.99-3.94,3.97-5.92,5.95-.41.41-.85.56-1.3.1-.33-.3-.35-.8-.05-1.13.04-.05.09-.09.14-.12,1.99-2,3.97-4.01,6-5.98.31-.22.69-.3,1.06-.24.2.02.35.41.55.66" fill="#fff"/>
      <path id="Trazado_1219" d="M16.69,39.75c.24.19.57.33.64.55.08.3.04.62-.11.9-.27.36-.58.69-.92.98-1.62,1.63-3.25,3.25-4.88,4.88-.12.12-.25.25-.38.37-.27.33-.76.39-1.09.12-.04-.03-.08-.07-.11-.11-.32-.27-.36-.76-.09-1.08.03-.04.07-.08.12-.11,2.03-2.04,4.06-4.07,6.1-6.09.22-.16.46-.29.72-.4" fill="#fff"/>
      <path id="Trazado_1220" d="M32.62,3.83c6.39.02,11.55,5.22,11.53,11.61-.02,6.39-5.22,11.55-11.61,11.53-6.38-.02-11.53-5.2-11.53-11.58,0-6.39,5.18-11.57,11.57-11.57.01,0,.03,0,.04,0M28.22,14.5v4.73c-.09,1.59,1.12,2.95,2.71,3.04.07,0,.14,0,.21,0,1.58.03,3.15.01,4.73,0,.59,0,1.06-.21,1.05-.89s-.45-.88-1.06-.87c-1.43,0-2.85,0-4.28,0-1.28,0-1.6-.32-1.6-1.58v-9.31c0-.72-.38-1.17-.93-1.11-.66.07-.84.51-.84,1.11.01,1.63,0,3.25,0,4.88" fill="#fff"/>
    </g>
  </g>
</svg>